<svg id="Capa_1" enable-background="new 0 0 512 512" height="512" viewBox="0 0 512 512" width="512" xmlns="http://www.w3.org/2000/svg"><g><path d="m410.554 280.499c-4.072-.762-7.99 1.917-8.755 5.987-12.377 65.9-68.417 85.797-122.769 107.537v-46.314c40.205-16.079 83.003-29.228 101.014-73.344 1.566-3.835-.273-8.213-4.108-9.778-3.835-1.569-8.213.273-9.778 4.108-15.37 37.642-52.646 49.069-87.127 62.858v-47.354c30.545-12.216 63.229-22.074 74.087-57.278 1.221-3.958-.998-8.156-4.957-9.377-3.957-1.22-8.156.999-9.377 4.957-8.222 26.657-35.55 37.59-59.753 45.543v-45.526c14.249-4.607 32.661-11.242 40.647-24.838 2.098-3.571.903-8.167-2.668-10.265-3.572-2.098-8.167-.903-10.265 2.668-4.565 7.771-19.034 13.916-27.713 16.279v-74.562c-1.319-14.034-8.995-21.711-23.03-23.03-12.699 0-23.03 10.331-23.03 23.03v74.56c-8.572-2.351-22.892-8.37-27.526-15.973-2.155-3.537-6.77-4.656-10.308-2.501-3.537 2.156-4.657 6.771-2.501 10.308 8.139 13.354 26.095 19.575 40.334 24.323v45.526c-24.126-7.933-51.403-18.814-59.691-45.34-1.235-3.954-5.442-6.156-9.396-4.922-3.954 1.235-6.157 5.442-4.922 9.396 10.997 35.192 43.743 44.917 74.009 57.021v47.355c-34.667-13.863-71.638-24.923-87.127-62.858-1.565-3.834-5.942-5.675-9.778-4.108-3.835 1.565-5.674 5.943-4.108 9.778 18.081 44.287 60.696 57.22 101.014 73.344v46.314c-54.252-21.699-110.454-42.001-122.769-107.538-.765-4.071-4.682-6.752-8.756-5.986-4.071.765-6.75 4.685-5.986 8.756 13.934 74.152 66.874 97.411 137.511 120.923v94.322c0 4.142 3.358 7.5 7.5 7.5h31.06c4.142 0 7.5-3.358 7.5-7.5v-42.93c0-4.142-3.358-7.5-7.5-7.5s-7.5 3.358-7.5 7.5v35.43h-16.06v-365.2c0-4.428 3.602-8.03 8.03-8.03 4.892.461 7.569 3.137 8.03 8.03v297.08c0 4.142 3.358 7.5 7.5 7.5s7.5-3.358 7.5-7.5v-18.702c61.089-24.434 123.304-37.511 137.511-120.924.693-4.083-1.918-7.99-5.989-8.755z"/><path d="m100.488 262.666c4.13.333 7.745-2.745 8.078-6.874 2.202-27.341 14.904-52.829 35.767-71.77 48.362-43.924 89.466-89.76 111.618-152.785 21.619 62.034 62.242 109.961 110.996 152.378 21.22 18.94 34.18 44.581 36.49 72.2.328 3.915 3.606 6.875 7.466 6.875.209 0 .421-.009.634-.026 4.127-.346 7.194-3.972 6.849-8.1-2.633-31.461-17.353-60.633-41.45-82.139-53.748-46.685-92.283-98.73-113.81-167.263-2.255-6.871-11.958-6.884-14.242-.034-22.407 69.408-61.505 119.532-114.636 167.789-23.694 21.511-38.125 50.516-40.634 81.67-.332 4.13 2.745 7.746 6.874 8.079z"/></g></svg>