<svg id="Capa_1" enable-background="new 0 0 512 512" height="512" viewBox="0 0 512 512" width="512" xmlns="http://www.w3.org/2000/svg"><g><path d="m414.292 438.638c-53.672 46.585-127.325 67.344-197.428 55.769 2.709-30.838-22.736-58.948-53.913-58.948-16.568 0-32.171 7.677-42.351 20.443-8.228-5.597-16.148-11.712-23.691-18.351-3.111-2.739-7.854-2.436-10.594.675-2.739 3.112-2.437 7.855.675 10.594 94.711 83.353 241.504 84.166 337.142 1.155 3.131-2.718 3.466-7.459.749-10.589-2.719-3.131-7.46-3.465-10.589-.748zm-251.341 11.835c21.605 0 40.088 19.518 39.079 41.015-24.151-5.562-47.306-14.827-68.657-27.467 7.358-8.487 18.148-13.548 29.578-13.548z"/><path d="m16.27 231.73c26.978 6.689 63.299-6.385 66.943-52.612 1.713-21.739-12.797-40.94-32.098-49.474 30.665-49.427 78.682-87.003 135.483-104.159 1.171 28.829 24.974 51.925 54.081 51.925 31.079 0 56.714-28.216 53.902-59.114 44.354 7.136 86.079 26.555 120.274 56.43 3.121 2.728 7.863 2.409 10.592-.714 2.727-3.122 2.407-7.864-.714-10.592-46.234-40.393-107.138-63.207-168.511-63.207-68.438 0-132.78 26.652-181.175 75.046-47.761 47.761-75.047 113.671-75.047 181.176 0 62.012 22.447 121.857 63.207 168.511 3.433 3.166 6.963 3.404 10.592.714 3.122-2.727 3.344-7.387.714-10.592-47.49-57.86-64.595-135.052-58.243-183.338zm262.895-215.402c4.146 23.169-14.829 46.069-38.486 46.069-21.538 0-40.07-19.468-39.08-40.93 25.359-5.894 51.645-7.612 77.566-5.139zm-210.966 162.79c0 25.208-25.82 44.508-49.903 37.629 4.38-26.344 13.037-51.258 25.242-74 14.762 5.821 24.661 20.06 24.661 36.371z"/><path d="m294.818 240.889c0-29.853-24.288-54.14-54.141-54.14s-54.14 24.287-54.14 54.14 24.287 54.14 54.14 54.14 54.141-24.287 54.141-54.14zm-93.268 0c0-21.575 17.552-39.127 39.127-39.127s39.128 17.552 39.128 39.127-17.552 39.127-39.128 39.127c-21.575 0-39.127-17.552-39.127-39.127z"/><path d="m480.067 381.109c52.186-93.662 39.514-213.264-31.459-293.906-2.739-3.113-7.483-3.415-10.594-.675-3.112 2.739-3.414 7.482-.675 10.594 43.806 49.774 65.465 117.371 58.883 183.332-31.474-3.986-60.974 21.762-60.974 53.708 0 19.604 10.725 37.56 27.41 47.061-7.481 12.37-16.104 24.12-25.814 35.088-2.748 3.104-2.46 7.848.644 10.597 3.621 2.714 7.153 2.499 10.596-.645 11.786-13.313 24.376-28.958 31.983-45.154zm-29.807-46.947c0-22.799 21.539-41.621 44.012-38.81-4.153 25.452-12.358 50.014-24.26 72.787-12.025-6.874-19.752-19.831-19.752-33.977z"/><path d="m333.944 450.476c29.853 0 54.141-24.287 54.141-54.14s-24.288-54.141-54.141-54.141-54.14 24.288-54.14 54.141c.001 29.853 24.287 54.14 54.14 54.14zm0-93.268c21.575 0 39.128 17.553 39.128 39.128s-17.552 39.127-39.128 39.127c-21.574 0-39.127-17.552-39.127-39.127.001-21.575 17.553-39.128 39.127-39.128z"/><path d="m388.084 100.989c0-21.282-17.314-38.595-38.595-38.595-21.282 0-38.596 17.314-38.596 38.595s17.314 38.595 38.596 38.595c21.281-.001 38.595-17.314 38.595-38.595zm-62.178 0c0-13.003 10.579-23.582 23.583-23.582s23.582 10.579 23.582 23.582-10.578 23.582-23.582 23.582-23.583-10.58-23.583-23.582z"/><path d="m450.263 225.344c0-21.281-17.314-38.595-38.595-38.595s-38.595 17.314-38.595 38.595c0 21.282 17.314 38.595 38.595 38.595 21.281.001 38.595-17.313 38.595-38.595zm-62.177 0c0-13.003 10.578-23.582 23.582-23.582s23.582 10.579 23.582 23.582-10.578 23.582-23.582 23.582-23.582-10.578-23.582-23.582z"/><path d="m201.549 132.078c0-21.281-17.314-38.595-38.595-38.595-21.282 0-38.595 17.314-38.595 38.595 0 21.282 17.314 38.595 38.595 38.595 21.282.001 38.595-17.313 38.595-38.595zm-62.177 0c0-13.003 10.579-23.582 23.582-23.582s23.582 10.579 23.582 23.582-10.579 23.582-23.582 23.582c-13.003.001-23.582-10.578-23.582-23.582z"/><path d="m100.776 280.017c-21.282 0-38.595 17.314-38.595 38.595s17.314 38.595 38.595 38.595 38.595-17.314 38.595-38.595c0-21.282-17.314-38.595-38.595-38.595zm0 62.177c-13.003 0-23.582-10.579-23.582-23.582s10.579-23.582 23.582-23.582 23.582 10.579 23.582 23.582-10.579 23.582-23.582 23.582z"/><path d="m186.536 365.247c0 12.711 10.341 23.052 23.052 23.052s23.052-10.341 23.052-23.052-10.341-23.052-23.052-23.052-23.052 10.341-23.052 23.052zm31.091 0c0 4.433-3.606 8.039-8.039 8.039s-8.039-3.606-8.039-8.039 3.606-8.039 8.039-8.039 8.039 3.606 8.039 8.039z"/></g></svg>