<svg id="Capa_1" enable-background="new 0 0 512 512" height="512" viewBox="0 0 512 512" width="512" xmlns="http://www.w3.org/2000/svg"><g><path d="m6.149 217.937c4.072.822 8.04-1.816 8.861-5.888 6.77-33.597 35.341-58.637 69.525-60.981 23.955.064 46.532 9.655 61.97 26.344 3.487 3.075 7.03 3.213 10.631.414 3.05-2.822 3.235-7.581.414-10.631-15.661-16.93-37.435-27.684-61.049-30.458 19.767-32.502 55.533-52.968 94.017-52.968 42.292 0 81.316 24.724 99.421 62.988 1.169 2.469 3.583 4.111 6.309 4.289 22.189 1.451 42.608 12.525 56.023 30.382 1.42 1.892 3.649 3.005 6.014 3.005 31.804-3.072 64.622 9.899 74.079 43.247 2.38 4.485 5.477 6.213 9.29 5.185 3.997-1.133 6.319-5.292 5.186-9.289-10.669-37.627-47.607-57.445-84.894-54.188-15.106-18.467-36.725-30.272-60.333-32.962-21.113-40.894-65.017-67.702-111.094-67.702-46.058 0-89.974 26.775-111.095 67.701-39.106 4.452-71.327 33.769-79.163 72.652-.822 4.072 1.815 8.039 5.888 8.86z"/><path d="m430.438 294.015s14.741-21.318 17.515-33.989c.888-4.059-1.681-8.069-5.74-8.958-4.057-.886-8.068 1.682-8.957 5.74-2.44 11.148-8.11 21.381-16.182 29.427-14.417-13.981-33.054-22.892-53.152-25.182-21.109-40.9-65.016-67.702-111.095-67.702-46.061 0-89.966 26.78-111.095 67.702-27.839 3.167-51.76 18.888-66.237 41.189-30.538-5.781-54.595-29.495-60.586-60.334-.792-4.078-4.732-6.74-8.82-5.95-4.078.792-6.742 4.741-5.95 8.819 6.872 35.377 33.598 62.928 67.983 71.266-4.727 11.036-7.357 23.15-7.357 35.828 0 50.401 41.005 91.406 91.406 91.406h114.667c4.155 0 7.523-3.368 7.523-7.523s-3.368-7.523-7.523-7.523h-114.666c-42.106 0-76.361-34.255-76.361-76.361 0-40.037 31.193-73.449 71.056-76.176 45.813.127 81.663 33.536 81.663 76.172 0 4.155 3.368 7.523 7.523 7.523s7.523-3.368 7.523-7.523c0-24.558-10.065-47.538-28.339-64.706-15.325-14.397-35.031-23.322-56.426-25.792 19.775-32.505 55.541-52.972 94.017-52.972 38.521 0 74.319 20.508 94.074 53.067-18.712 2.622-36.22 11.587-49.244 25.523-2.837 3.036-2.676 7.796.359 10.633 3.594 2.817 7.138 2.697 10.633-.359 30.381-32.51 80.221-25.452 105.929 8.794 1.421 1.893 3.65 3.007 6.016 3.007h16.77c32.209 0 59.59 27.295 59.59 59.58 0 32.835-26.696 59.552-59.523 59.589-.021 0-.042-.003-.063-.003-32.854 0-59.584-26.729-59.584-59.584 0-4.155-3.368-7.523-7.523-7.523s-7.523 3.368-7.523 7.523c0 24.32 11.698 45.955 29.757 59.588h-92.88c-4.155 0-7.523 3.368-7.523 7.523s3.368 7.523 7.523 7.523h137.747c41.155 0 74.636-33.482 74.636-74.636.001-57.518-44.132-74.27-81.561-74.626z"/></g></svg>