<svg id="Capa_1" enable-background="new 0 0 512 512" height="512" viewBox="0 0 512 512" width="512" xmlns="http://www.w3.org/2000/svg"><g><path d="m256 485.4c-4.2 0-7.6-3.4-7.6-7.6 0-4.2 3.4-7.6 7.6-7.6 4.2 0 7.6 3.4 7.6 7.6-.1 4.2-3.5 7.6-7.6 7.6z"/><path d="m256 46.5c-4.2 0-7.6-3.4-7.6-7.6 0-4.2 3.4-7.6 7.6-7.6 4.2 0 7.6 3.4 7.6 7.6-.1 4.2-3.5 7.6-7.6 7.6z"/><path d="m452.6 371.9c-2.1 3.6-6.7 4.9-10.3 2.8-3.6-2.1-4.9-6.7-2.8-10.3 2.1-3.6 6.7-4.9 10.3-2.8 3.6 2.1 4.9 6.7 2.8 10.3z"/><path d="m72.5 152.4c-2.1 3.6-6.7 4.9-10.3 2.8-3.6-2.1-4.9-6.7-2.8-10.3 2.1-3.6 6.7-4.9 10.3-2.8 3.6 2.1 4.9 6.7 2.8 10.3z"/><g><path d="m266 508.5c-2.6-3.3-1.1-8.2 2.5-10.4 7.1-4.4 11.3-11.9 11.3-20.2 0-8.5-4.6-16.4-11.9-20.6-2.3-1.4-3.8-3.9-3.8-6.6v-51.6c0-6.7 5-9.9 11.4-6.6l24.3 14c4.5 2.1 8.2 1.1 11.1-3 2.1-4.1 1.2-7.8-3-11.1l-40-23.1c-2.3-1.4-3.8-3.9-3.8-6.6v-40.7c0-2.7 1.4-5.2 3.8-6.6l31.6-18.2c2.3-1.4 5.2-1.4 7.6 0l35.3 20.4c2.3 1.4 3.8 3.9 3.8 6.6v46.1c0 4.5 3.6 8.1 8.1 8.1 4.9-.5 7.6-3.2 8.1-8.1v-28c.3-7.1 5.1-9.8 11.4-6.6l44.7 25.8c2.3 1.4 3.8 3.8 3.8 6.5 0 8.5 4.6 16.4 11.9 20.6 13.2 6.1 24.1 3.2 32.5-8.7 6.1-13.2 3.2-24.1-8.7-32.5-7.3-4.2-16.4-4.2-23.8 0-2.3 1.3-5.2 1.3-7.6 0l-44.7-25.8c-5.9-3.9-6.1-8.8 0-13.1l24.3-14c3.9-2.2 5.2-7.2 3-11.1-3.3-4.1-7-5.1-11.1-3l-40 23.1c-2.3 1.4-5.2 1.4-7.6 0l-35.4-20.4c-2.3-1.4-3.8-3.9-3.8-6.6v-36.5c0-2.7 1.4-5.2 3.8-6.6l35.4-20.4c2.3-1.4 5.2-1.4 7.6 0l40 23.1c3.9 2.2 8.8.9 11.1-3 2.1-4.1 1.1-7.8-3-11.1l-24.3-14c-5-4.4-5-8.7 0-13.1l44.7-25.8c2.3-1.4 5.2-1.4 7.6 0 7.3 4.2 16.5 4.2 23.8 0 4.1-2.4 7.4-5.9 9.5-10.2 1.8-3.8 6.3-5.3 10.1-3.5s5.3 6.4 3.5 10.1c-3.4 7-8.8 12.8-15.5 16.7-10.7 6.2-23.7 6.8-34.9 2l-29.9 17.2 12.9 7.5c10.6 6.1 14.6 21.2 8.5 31.8-6.4 11.1-20.7 14.9-31.8 8.5l-36.2-20.9-27.8 16v27.7l27.8 16 36.2-20.9c10.6-6.1 25.6-2.1 31.8 8.5 6.4 11.1 2.6 25.4-8.5 31.8l-12.9 7.5 29.9 17.2c11.2-4.8 24.2-4.1 34.9 2 18.4 10.6 24.9 34.8 14.2 53.2-10.6 18.4-34.8 24.9-53.2 14.2-10.7-6.2-17.8-17.1-19.2-29.2l-29.9-17.2v14.9c-1.3 14.2-9.1 21.9-23.2 23.2-12.8 0-23.2-10.4-23.2-23.2v-41.8l-27.8-16-24 13.9v32.1l36.2 20.9c10.6 6.1 14.6 21.2 8.5 31.7-8.2 11.6-18.8 14.5-31.8 8.5l-12.9-7.5v34.5c9.8 7.3 15.7 18.9 15.7 31.2 0 13.6-6.8 26.1-18.4 33.1-2.8 1.9-7.3 2.2-10.6-2.1zm-30.5 2.4c-11.7-6.9-18.4-19.5-18.4-33.1 0-12.3 5.9-23.9 15.7-31.2v-34.5l-12.9 7.5c-10.6 6.1-25.7 2.1-31.8-8.5-6.4-11.1-2.6-25.3 8.5-31.7l36.2-20.9v-32.1l-24-13.9-27.7 16v41.8c-1.3 14.2-9.1 21.9-23.2 23.2-12.8 0-23.2-10.4-23.2-23.2v-14.9l-29.9 17.3c-4.3 36-54.1 46.5-72.4 14.9-17.9-31.1 15.1-69.8 49.1-55.2l29.9-17.3-12.9-7.5c-10.6-6.1-14.6-21.2-8.5-31.8 6.4-11.1 20.7-14.9 31.8-8.5l36.2 20.9 27.8-16v-27.7l-27.8-16-36.2 20.9c-10.6 6.1-25.6 2.1-31.8-8.5-6.4-11.1-2.6-25.3 8.5-31.8l12.9-7.5-29.9-17.3c-16.9 7.2-38.9.4-48.5-15.3-2.2-3.6-1.1-8.2 2.5-10.4s8.2-1.1 10.4 2.5c6.4 10.4 21.6 14.1 32.1 8.1 2.3-1.3 5.2-1.3 7.6 0l44.8 25.8c6.2 3.6 5.6 9.9 0 13.1l-24.3 14c-3.9 2.2-5.2 7.2-3 11.1 3.3 4.1 7 5.1 11.1 3l39.9-23.1c2.3-1.4 5.2-1.4 7.6 0l35.3 20.4c2.3 1.4 3.8 3.9 3.8 6.6v36.5c0 2.7-1.4 5.2-3.8 6.6l-35.3 20.4c-2.3 1.4-5.2 1.4-7.6 0l-40-23.1c-3.9-2.2-8.8-.9-11.1 3-2.1 4.1-1.1 7.8 3 11.1l24.3 14c5.9 3.4 6.8 9.2 0 13.1l-44.8 25.8c-2.3 1.4-5.2 1.4-7.6 0-20-11.4-44.9 11.2-32.6 32.5s44.4 11 44.4-11.9c0-2.7 1.4-5.2 3.8-6.5l44.8-25.8c6.3-3.2 11.5-.1 11.4 6.6v28c0 4.5 3.6 8.1 8.1 8.1 4.9-.5 7.6-3.2 8.1-8.1v-46.1c0-2.7 1.4-5.2 3.8-6.6l35.3-20.4c2.3-1.4 5.2-1.4 7.6 0l31.6 18.2c2.3 1.4 3.8 3.9 3.8 6.6v40.8c0 2.7-1.4 5.2-3.8 6.6l-40 23.1c-3.9 2.2-5.2 7.2-3 11.1 3.3 4.1 7 5.1 11.1 3l24.3-14c6.3-4.1 11.4-.6 11.4 6.6v51.6c0 2.7-1.4 5.2-3.8 6.6-7.3 4.2-11.9 12.1-11.9 20.6 0 8.3 4.2 15.9 11.3 20.2 3.6 2.2 4.7 6.9 2.5 10.4-2.6 3.7-8 3.8-10.6 2.2zm16.7-209.7-31.4-18.1c-2.3-1.4-3.8-3.9-3.8-6.6v-36.2c0-2.7 1.4-5.2 3.8-6.6l31.4-18.1c2.3-1.4 5.2-1.4 7.6 0l31.4 18.1c2.3 1.4 3.8 3.9 3.8 6.6v36.2c0 2.7-1.4 5.2-3.8 6.6l-31.4 18.1c-2.3 1.4-4.8 1.4-7.6 0zm-20-29.1 23.8 13.7 23.8-13.7v-27.5l-23.8-13.7-23.8 13.7zm-27.3-52.5-35.3-20.4c-2.3-1.4-3.8-3.9-3.8-6.6v-46.1c0-4.5-3.6-8.1-8.1-8.1-4.9.5-7.6 3.2-8.1 8.1v28c-1.3 6.6-5 8.7-11.4 6.6l-44.8-25.8c-2.3-1.4-3.8-3.8-3.8-6.5 0-22.7-31.3-33.1-44-12.5-2.2 3.6-6.9 4.7-10.4 2.5-3.6-2.2-4.7-6.9-2.5-10.4 18.6-30.1 67.5-20.3 71.8 15.9l29.9 17.3v-14.9c1.3-14.2 9.1-21.9 23.2-23.2 12.8 0 23.2 10.4 23.2 23.2v41.8l27.8 16 24-13.9v-32.1l-36.2-20.9c-10.6-6.1-14.6-21.2-8.5-31.7 8.2-11.6 18.8-14.5 31.8-8.5l12.9 7.5v-34.8c-9.6-7.3-15.6-18.8-15.6-31.2 0-21.4 17.5-38.9 39-38.9s38.9 17.5 38.9 38.9c0 12.3-5.9 23.9-15.7 31.2v34.5l12.9-7.5c10.6-6.1 25.7-2.1 31.8 8.5 6.4 11.1 2.6 25.3-8.5 31.7l-36.2 20.9v32.1l24 13.9 27.8-16.1v-41.8c.3-14.3 10.2-23.3 23.2-23.2 12.8 0 23.2 10.4 23.2 23.2v14.9l29.9-17.2c1.4-12.1 8.5-23 19.2-29.2 16.7-9.7 38.3-5.5 50.2 9.8 2.6 3.3 2 8.1-1.3 10.6-3.3 2.6-8.1 2-10.6-1.3-7.2-9.3-20.4-11.9-30.6-6-7.3 4.2-11.9 12.1-11.9 20.6 0 2.7-1.4 5.2-3.8 6.5l-44.8 26c-6.2 2.9-11.1.2-11.4-6.6v-28c0-4.5-3.6-8.1-8.1-8.1-4.9.5-7.6 3.2-8.1 8.1v46.1c0 2.7-1.4 5.2-3.8 6.6l-35.3 20.5c-2.3 1.4-5.2 1.4-7.6 0l-31.6-18.2c-2.3-1.4-3.8-3.9-3.8-6.6v-40.8c0-2.7 1.4-5.2 3.8-6.6l40-23.1c3.9-2.2 5.2-7.2 3-11.1-3.3-4.1-7-5.1-11.1-3l-24.3 14c-6.6 3.4-11.4.9-11.4-6.6v-51.5c0-2.7 1.4-5.2 3.8-6.6 7.3-4.2 11.9-12.1 11.9-20.6 0-13.1-10.7-23.8-23.8-23.8s-23.8 10.7-23.8 23.8c0 8.5 4.6 16.4 11.9 20.6 2.3 1.4 3.8 3.8 3.8 6.6v51.7c0 6.8-4.8 9.7-11.4 6.6l-24.3-14c-4.5-2.1-8.2-1.1-11.1 3-2.1 4.1-1.2 7.8 3 11.1l40 23.1c2.3 1.4 3.8 3.9 3.8 6.6v40.8c0 2.7-1.4 5.2-3.8 6.6l-31.6 18.2c-2 .8-5.1 1.1-7.5-.2z"/></g><path d="m452.6 144.9c2.1 3.6.9 8.3-2.8 10.3-3.6 2.1-8.3.9-10.3-2.8-2.1-3.6-.9-8.3 2.8-10.3 3.6-2.1 8.2-.8 10.3 2.8z"/><path d="m72.5 364.3c2.1 3.6.8 8.3-2.8 10.3-3.6 2.1-8.3.9-10.3-2.8-2.1-3.6-.8-8.3 2.8-10.3 3.5-2 8.2-.8 10.3 2.8z"/></g></svg>