<svg id="Capa_1" enable-background="new 0 0 511.989 511.989" height="512" viewBox="0 0 511.989 511.989" width="512" xmlns="http://www.w3.org/2000/svg"><g><g><path d="m256.069 170.319c-31.386 0-56.92-28.37-56.92-63.24 0-42.128 49.234-101.695 51.144-104.354 2.609-3.632 8.984-3.632 11.552 0 1.423 2.013 38.63 46.949 48.631 86.161 1.024 4.014-1.4 8.097-5.414 9.121-4.016 1.025-8.098-1.4-9.121-5.414-6.931-27.17-29.216-58.843-39.872-72.916-12.7 16.772-41.921 58.507-41.921 87.402 0 26.6 18.805 48.24 41.92 48.24 18.441 0 34.525-13.609 40.021-33.864 1.085-3.997 5.205-6.358 9.203-5.274 3.998 1.085 6.359 5.205 5.274 9.203-7.293 26.876-29.194 44.935-54.497 44.935z"/></g><g><g><path d="m364.789 511.989c-64.084 0-114.741-58.107-114.998-129.86-.275-76.557 61.435-164.63 110.444-223.824 3.851-3.621 6.479-3.891 10.33-.27 4.098 4.947 100.474 122.184 109.733 210.633.431 4.12-2.559 7.809-6.679 8.24-4.11.425-7.809-2.559-8.24-6.679-7.531-71.941-79.496-168.453-100.589-195.388-22.268 28.446-101.222 134.443-101.222 207.018 0 63.483 45.407 115.13 101.22 115.13 49.649 0 91.625-40.354 99.81-95.952.604-4.099 4.415-6.93 8.512-6.328 4.098.603 6.931 4.415 6.328 8.512-8.403 57.086-54.182 108.768-114.649 108.768z"/></g><g><path d="m364.787 480.687c-46.824 0-84.917-44.334-84.917-98.828 0-4.142 3.358-7.5 7.5-7.5s7.5 3.358 7.5 7.5c0 46.223 31.365 83.828 69.917 83.828 4.142 0 7.5 3.358 7.5 7.5s-3.358 7.5-7.5 7.5z"/></g><g><path d="m116.289 372.229c-46.671 0-84.64-42.397-84.64-94.51 0-64.254 75.644-156.316 78.864-160.204 3.851-3.621 7.701-3.621 11.552 0 2.909 3.512 71.333 86.75 78.289 150.085.452 4.118-2.519 7.822-6.636 8.274-4.122.456-7.822-2.519-8.274-6.636-5.339-48.618-52.513-113.342-69.155-134.861-17.65 22.823-69.64 94.229-69.64 143.342 0 43.842 31.24 79.51 69.64 79.51 31.054 0 58.617-23.816 67.028-57.916.992-4.022 5.059-6.48 9.078-5.486 4.022.992 6.478 5.056 5.486 9.078-10.069 40.816-43.62 69.324-81.592 69.324z"/></g><g><path d="m116.289 340.927c-29.412 0-53.34-28.356-53.34-63.21 0-4.142 3.358-7.5 7.5-7.5s7.5 3.358 7.5 7.5c0 26.583 17.199 48.21 38.34 48.21 4.142 0 7.5 3.358 7.5 7.5s-3.358 7.5-7.5 7.5z"/></g><g><path d="m256.069 139.022c-14.127 0-25.62-14.33-25.62-31.943 0-4.142 3.358-7.5 7.5-7.5s7.5 3.358 7.5 7.5c0 9.697 5.607 16.943 10.62 16.943 4.142 0 7.5 3.358 7.5 7.5s-3.358 7.5-7.5 7.5z"/></g></g></g></svg>