<svg id="Capa_1" enable-background="new 0 0 512 512" height="512" viewBox="0 0 512 512" width="512" xmlns="http://www.w3.org/2000/svg"><g><path d="m70.047 202.452c4.077.809 8.041-1.844 8.849-5.923 6.692-33.783 35.331-58.959 69.683-61.297 45.844.139 81.715 33.574 81.715 76.242 0 4.158 3.371 7.53 7.53 7.53s7.53-3.371 7.53-7.53c0-47.466-38.792-85.265-84.843-90.581 19.79-32.533 55.588-53.018 94.102-53.018 38.561 0 74.391 20.526 94.161 53.114-18.729 2.624-36.253 11.598-49.289 25.547-2.839 3.038-2.679 7.803.36 10.643 3.597 2.82 7.144 2.7 10.643-.36 30.238-32.355 80.379-25.353 106.028 8.796 1.422 1.894 3.653 3.008 6.021 3.008h16.786c26.623 0 51.369 19.194 57.842 45.068 2.287 4.561 5.331 6.387 9.132 5.477 4.034-1.01 6.487-5.098 5.477-9.132-8.12-32.448-39.071-56.472-72.452-56.472h-13.123c-15.113-18.477-36.753-30.29-60.388-32.982-21.125-40.944-65.076-67.765-111.198-67.765-46.105 0-90.052 26.8-111.197 67.765-39.273 4.471-71.549 33.939-79.291 73.023-.809 4.077 1.843 8.039 5.922 8.847z"/><path d="m506.299 237.368c-4.034-1.01-8.123 1.439-9.134 5.473-6.649 26.531-30.435 45.061-57.843 45.061h-.072c-32.849-.042-59.561-26.778-59.561-59.637 0-4.158-3.371-7.53-7.53-7.53s-7.53 3.371-7.53 7.53c0 24.339 11.705 45.99 29.776 59.637h-60.247c7.513-30.393-14.033-62.926-46.5-63.721-22.686-.551-41.535 17.423-42.09 40.076-.102 4.158 3.185 7.61 7.342 7.712 4.204.098 7.611-3.185 7.712-7.342.352-14.352 12.312-25.693 26.667-25.391 24.976.613 38.706 26.562 31.195 48.667h-81.048c-4.158 0-7.53 3.371-7.53 7.53s3.371 7.53 7.53 7.53h72.333c-9.013 10.271-21.516 15.335-35.095 15.335h-204.774c-4.159 0-7.53 3.371-7.53 7.53s3.371 7.53 7.53 7.53h204.684c21.514.49 42.94-11.646 53.589-30.395h111.076c.026 0 .051.002.077.002.024 0 .047-.003.07-.004 34.295-.034 64.052-23.24 72.376-56.458 1.011-4.035-1.44-8.124-5.473-9.135z"/><path d="m359.627 349.997h-259.046c-4.158 0-7.53 3.371-7.53 7.53 0 4.158 3.371 7.53 7.53 7.53h259.134c.062 0 .123 0 .184-.002 24.808-.596 45.397 19.044 46.004 43.803.46 18.778-14.795 34.801-33.573 35.261-14.359.349-26.315-11.039-26.667-25.391-.101-4.158-3.558-7.48-7.712-7.343-4.158.101-7.445 3.555-7.343 7.712.539 22.026 19.044 40.089 41.057 40.089 27.05 0 49.292-23.641 49.292-50.697.001-33.302-21.884-58.492-61.33-58.492z"/><path d="m7.53 272.057h77.83c16.934 19.083 41.606 30.905 68.505 30.905h50.76c4.158 0 7.53-3.371 7.53-7.53s-3.371-7.53-7.53-7.53h-50.76c-17.315 0-33.524-5.866-46.526-15.845h27.529c32.266.747 60.539-26.132 61.332-58.491.669-27.279-20.98-50.016-48.259-50.684-22.416-.585-41.542 17.682-42.09 40.076-.102 4.157 3.185 7.61 7.343 7.712 4.147.139 7.61-3.185 7.712-7.343 1.878-15.827 10.767-24.291 26.667-25.39 18.977.465 34.038 16.283 33.573 35.261-.603 24.594-22.137 43.8-46.189 43.8h-42.468c-6.593-8.853-11.342-19.214-13.593-30.576-.808-4.079-4.77-6.734-8.849-5.923-4.08.808-6.731 4.77-5.923 8.849 1.969 9.936 5.544 19.226 10.394 27.649h-66.988c-4.158 0-7.53 3.371-7.53 7.53s3.371 7.53 7.53 7.53z"/><path d="m69.9 349.981h-31.185c-4.158 0-7.53 3.371-7.53 7.53 0 4.158 3.371 7.53 7.53 7.53h31.185c4.158 0 7.53-3.371 7.53-7.53s-3.371-7.53-7.53-7.53z"/><path d="m46.245 326.62c0-4.159-3.371-7.53-7.53-7.53h-31.185c-4.158 0-7.53 3.371-7.53 7.53s3.371 7.53 7.53 7.53h31.186c4.158-.001 7.529-3.372 7.529-7.53z"/></g></svg>