<svg id="Capa_1" enable-background="new 0 0 512 512" height="512" viewBox="0 0 512 512" width="512" xmlns="http://www.w3.org/2000/svg"><g><path d="m256.015 263.485c-4.141 0-7.499-3.357-7.499-7.499 0-4.141 3.357-7.499 7.499-7.499 4.141 0 7.499 3.357 7.499 7.499 0 4.142-3.357 7.499-7.499 7.499z"/><g><g><path d="m239.357 283.249c-2.928 2.928-7.676 2.928-10.605 0-2.928-2.928-2.928-7.676 0-10.605 2.928-2.928 7.676-2.928 10.605 0 2.928 2.929 2.929 7.677 0 10.605z"/><path d="m239.357 239.328c-2.928 2.928-7.676 2.928-10.605 0-2.928-2.928-2.928-7.676 0-10.605 2.928-2.928 7.676-2.928 10.605 0 2.929 2.929 2.929 7.677 0 10.605z"/><path d="m283.278 283.249c-2.928 2.928-7.676 2.928-10.605 0-2.928-2.928-2.928-7.676 0-10.605 2.928-2.928 7.676-2.928 10.605 0 2.928 2.929 2.929 7.677 0 10.605z"/><path d="m283.278 239.328c-2.928 2.928-7.676 2.928-10.605 0-2.928-2.928-2.928-7.676 0-10.605 2.928-2.928 7.676-2.928 10.605 0 2.928 2.929 2.928 7.677 0 10.605z"/></g><path d="m507.981 249.359c-25.1-13.291-52.117-22.588-79.815-27.597 23.652-15.167 44.795-33.894 63.024-55.895 3.782-4.568 1.409-11.827-4.925-12.429-28.145-2.676-56.677-.999-84.296 5.018 2.946-4.235 5.784-8.547 8.484-12.949 2.165-3.53 1.058-8.147-2.472-10.313-3.533-2.165-8.148-1.058-10.313 2.472-20.519 33.457-48.741 61.961-81.938 82.835-1.549-2.597-3.268-5.079-5.132-7.443l61.264-61.264c2.928-2.928 2.928-7.676 0-10.605-2.929-2.928-7.676-2.928-10.606 0l-61.139 61.139c-2.707-2.229-5.59-4.249-8.616-6.054 29.929-47.658 75.496-84.376 128.222-103.986-2.171 5.845-4.551 11.623-7.123 17.281-1.715 3.77-.048 8.216 3.723 9.93 3.767 1.713 8.216.047 9.929-3.723 4.871-10.714 9.093-21.834 12.549-33.05 1.662-5.661-3.165-11.48-9.312-9.585-27.145 8.351-52.819 20.877-75.942 36.914 5.996-27.429 7.538-55.605 5.037-84.082-.588-6.694-6.545-10.037-12.266-5.303-22.086 18.269-40.873 39.458-56.075 63.16-4.944-27.451-15.246-53.71-27.459-79.528-2.02-4.27-9.883-6.916-13.396-.281-13.292 25.101-22.588 52.117-27.597 79.816-15.167-23.653-33.894-44.795-55.895-63.024-4.574-3.749-11.825-1.441-12.429 4.924-2.677 28.154-.998 56.695 5.023 84.323-23.125-16.04-48.801-28.568-75.949-36.92-6.091-1.875-11.037 3.905-9.31 9.589 8.431 27.316 20.913 52.795 36.841 75.723-27.427-5.994-55.665-8.23-84.055-5.036-7.46.839-10.061 6.535-5.319 12.268 18.266 22.081 39.449 40.865 63.145 56.065-4.129.743-8.245 1.558-12.335 2.493-4.037.922-6.563 4.942-5.641 8.98s4.944 6.564 8.98 5.641c37.261-8.509 76.563-8.51 113.823-.01-.882 3.465-1.495 7.035-1.833 10.684h-87.153c-4.141 0-7.499 3.357-7.499 7.499s3.357 7.499 7.499 7.499h87.387c.359 2.914.884 5.777 1.594 8.569-55.062 12.569-112.559 6.546-164.168-17.12 6.514-2.988 13.141-5.705 19.818-8.122 3.894-1.41 5.908-5.709 4.499-9.603-1.41-3.894-5.709-5.91-9.603-4.499-11.986 4.339-23.817 9.589-35.164 15.603-6.632 3.516-3.987 11.125.284 13.395 25.217 13.407 52.07 22.525 79.519 27.469-23.71 15.21-44.895 33.995-63.152 56.065-3.226 6.133-1.527 10.216 5.099 12.248 27.753 2.994 57.028.945 84.282-5.011-16.035 23.121-28.559 48.792-36.909 75.934-1.695 5.51 4.435 10.876 9.589 9.31 27.316-8.431 52.796-20.914 75.723-36.841-6.016 27.622-7.69 56.16-5.014 84.307.557 5.859 8.179 8.409 12.429 4.924 22.001-18.229 40.728-39.371 55.895-63.024 5.009 27.699 14.306 54.715 27.597 79.816 3.545 6.697 10.051 3.997 13.397-.282 5.176-9.81 9.784-19.959 13.699-30.167 1.482-3.867-.45-8.204-4.318-9.686-3.867-1.483-8.203.45-9.686 4.317-1.974 5.148-4.135 10.282-6.466 15.361-23.411-51.144-29.649-109.306-17.136-164.162 3.133.798 6.352 1.378 9.637 1.732v88.301c0 4.141 3.357 7.499 7.499 7.499s7.499-3.357 7.499-7.499v-88.301c3.283-.354 6.498-.933 9.629-1.73 8.874 38.932 8.509 79.727-1.12 118.493-.998 4.019 1.451 8.086 5.471 9.085 3.785.9 6.813-.923 9.085-5.47 1.42-5.719 2.645-11.481 3.685-17.272 15.208 23.702 33.989 44.882 56.054 63.135 5.354 4.431 10.397.16 12.266-5.299 2.665-28.462.959-56.649-5.035-84.076 22.927 15.928 48.407 28.411 75.723 36.841 5.079 1.544 11.455-3.242 9.589-9.31-8.351-27.146-20.877-52.819-36.915-75.942 27.625 6.018 56.167 7.692 84.318 5.016 6.334-.602 8.707-7.862 4.925-12.429-18.225-21.995-39.361-40.718-63.006-55.883 27.448-4.945 53.994-14.658 79.516-27.467 5.521-2.774 5.771-10.523.282-13.401zm-120.727-71.666c26.773-7.893 54.789-11.343 82.672-10.308-19.103 20.612-41.148 37.764-65.706 51.135-20.355-1.834-41.273-1.296-61.522 1.545 16.39-12.39 31.362-26.623 44.556-42.372zm-131.239 132.784c-30.046 0-54.491-24.444-54.491-54.491s24.444-54.491 54.491-54.491 54.491 24.444 54.491 54.491-24.444 54.491-54.491 54.491zm37.455-202.675c13.365-24.555 30.523-46.607 51.152-65.722 1.068 28.101-2.392 55.814-10.298 82.61-15.676 13.082-30.078 28.238-42.38 44.546 2.858-20.429 3.346-41.03 1.526-61.434zm-37.455-83.324c23.662 51.608 29.684 109.101 17.115 164.158-3.127-.795-6.338-1.374-9.617-1.727v-86.206c0-4.141-3.357-7.499-7.499-7.499-4.141 0-7.499 3.357-7.499 7.499v86.206c-3.285.354-6.504.934-9.637 1.732-12.512-54.857-6.274-113.018 17.137-164.163zm-88.601 17.598c20.612 19.102 37.764 41.148 51.135 65.705-1.833 20.332-1.297 41.225 1.535 61.451-12.301-16.307-26.704-31.463-42.379-44.544-7.881-26.755-11.325-54.75-10.291-82.612zm-59.607 176.442c-24.545-13.364-46.588-30.516-65.698-51.138 28.106-1.071 55.828 2.394 82.632 10.305 13.142 15.718 28.054 29.943 44.521 42.37-12.42-1.739-53.475-2.249-61.455-1.537zm-15.496-126.23c52.724 19.61 98.29 56.329 128.218 103.985-3.026 1.805-5.909 3.825-8.615 6.054l-61.139-61.139c-2.928-2.928-7.676-2.928-10.605 0s-2.929 7.676 0 10.605l61.264 61.264c-1.861 2.361-3.578 4.839-5.126 7.432-47.822-30.046-84.227-74.967-103.997-128.201zm-50.201 252.304c19.102-20.611 41.149-37.766 65.709-51.143 20.33 1.813 41.229 1.29 61.454-1.54-16.31 12.303-31.47 26.707-44.554 42.386-26.792 7.906-54.499 11.368-82.609 10.297zm176.439 59.599c-13.371 24.558-30.522 46.603-51.135 65.705-.122-3.275-.183-6.559-.183-9.836 0-24.754 3.529-49.229 10.47-72.789 15.73-13.15 29.95-28.087 42.387-44.563-2.836 20.236-3.373 41.141-1.539 61.483zm-126.232 15.499c19.61-52.724 56.329-98.29 103.985-128.218 1.805 3.026 3.825 5.909 6.054 8.615l-62.186 62.186c-2.929 2.928-2.929 7.676 0 10.605 3.535 2.929 7.07 2.929 10.605 0l62.311-62.311c2.361 1.861 4.839 3.578 7.432 5.126-30.046 47.823-74.967 84.227-128.201 103.997zm252.305 50.202c-20.616-19.106-37.771-41.155-51.149-65.719 1.807-20.463 1.284-41.112-1.555-61.471 12.434 16.482 26.669 31.407 42.4 44.559 7.91 26.801 11.372 54.522 10.304 82.631zm75.091-50.202c-53.233-19.77-98.155-56.174-128.201-103.997 2.593-1.547 5.071-3.264 7.432-5.126l62.311 62.311c3.535 2.929 7.07 2.929 10.606 0 2.928-2.928 2.928-7.676 0-10.605l-62.186-62.186c2.229-2.707 4.249-5.589 6.053-8.615 47.656 29.929 84.376 75.494 103.985 128.218zm50.213-75.103c-27.858 1.034-55.852-2.402-82.604-10.281-13.086-15.683-28.249-30.091-44.564-42.398 20.225 2.831 41.123 3.352 61.453 1.539 24.561 13.372 46.61 30.526 65.715 51.14zm-146.56-71.486c.71-2.792 1.234-5.655 1.594-8.569h87.386c4.142 0 7.499-3.357 7.499-7.499s-3.357-7.499-7.499-7.499h-87.153c-.338-3.649-.95-7.219-1.833-10.684 54.856-12.514 113.018-6.275 164.162 17.136-51.605 23.663-109.101 29.684-164.156 17.115z"/></g></g></svg>