<svg id="Capa_1" enable-background="new 0 0 511.996 511.996" height="512" viewBox="0 0 511.996 511.996" width="512" xmlns="http://www.w3.org/2000/svg"><g><path d="m465.375 113.153v-43.528c0-4.142-3.357-7.5-7.5-7.5s-7.5 3.358-7.5 7.5v36.307c-5.477.405-10.832 1.254-16.032 2.504v-69.873c0-4.142-3.357-7.5-7.5-7.5s-7.5 3.358-7.5 7.5v74.759c-5.629 2.34-11.001 5.175-16.063 8.453v-114.275c0-4.142-3.357-7.5-7.5-7.5s-7.5 3.358-7.5 7.5v55.418c-4.178-8.086-9.522-15.719-16.036-22.649l-.027-32.775c-.003-4.14-3.36-7.494-7.5-7.494-.002 0-.004 0-.006 0-4.143.003-7.497 3.364-7.494 7.506l.027 32.768c-6.378 6.786-11.64 14.246-15.777 22.146l-.312-54.963c-.023-4.127-3.376-7.457-7.498-7.457-.015 0-.029 0-.044 0-4.142.023-7.48 3.4-7.457 7.542l.651 114.703c-5.25-3.464-10.84-6.452-16.712-8.897l-.001-74.786c0-4.142-3.358-7.5-7.5-7.5-4.143 0-7.5 3.358-7.5 7.5l.001 69.889c-5.22-1.258-10.594-2.112-16.093-2.519v-36.307c0-4.142-3.357-7.5-7.5-7.5s-7.5 3.358-7.5 7.5v43.528c0 23.258 7.93 44.697 21.225 61.763-4.489-.615-9.069-.939-13.725-.939-4.143 0-7.5 3.358-7.5 7.5 0 23.258 7.93 44.697 21.225 61.763-4.489-.615-9.069-.939-13.725-.939-4.143 0-7.5 3.358-7.5 7.5 0 23.258 7.93 44.697 21.225 61.763-4.489-.615-9.069-.939-13.725-.939-4.143 0-7.5 3.358-7.5 7.5 0 52.996 41.157 96.558 93.187 100.407v85.966c0 4.142 3.357 7.5 7.5 7.5s7.5-3.358 7.5-7.5v-85.975c20.115-1.459 38.981-8.777 54.944-21.413 3.247-2.571 3.796-7.288 1.226-10.536-2.57-3.249-7.287-3.797-10.536-1.226-13.192 10.443-28.714 16.629-45.282 18.112 1.797-19.926 10.423-38.42 24.742-52.739 14.312-14.321 32.802-22.949 52.727-24.749-1.193 13.051-5.354 25.653-12.207 36.838-2.164 3.532-1.055 8.149 2.478 10.313s8.149 1.055 10.313-2.477c9.666-15.775 14.775-33.939 14.775-52.528 0-4.142-3.357-7.5-7.5-7.5-4.625 0-9.201.317-13.708.927 13.286-17.063 21.212-38.495 21.212-61.746 0-4.142-3.357-7.5-7.5-7.5-4.655 0-9.235.325-13.725.939 13.294-17.065 21.225-38.504 21.225-61.763 0-4.142-3.357-7.5-7.5-7.5-4.655 0-9.235.325-13.725.939 13.696-17.58 21.227-39.463 21.227-61.761zm-100.627-58.74c26.046 31.279 25.98 78.363 0 109.563-25.86-31.055-25.893-78.468 0-109.563zm-.061 250.452c-3.501-8.527-8.136-16.471-13.723-23.642 9.148 1.252 18.297 1.252 27.445 0-5.586 7.171-10.221 15.116-13.722 23.642zm0-68.323c-3.501-8.527-8.136-16.471-13.723-23.642 9.148 1.252 18.297 1.252 27.445 0-5.586 7.171-10.221 15.115-13.722 23.642zm-7.855-38.06c-40.994-3.742-73.729-36.479-77.472-77.473 40.994 3.743 73.729 36.479 77.472 77.473zm0 68.324c-40.994-3.742-73.729-36.479-77.472-77.473 40.994 3.742 73.729 36.479 77.472 77.473zm0 68.323c-40.994-3.742-73.729-36.479-77.472-77.473 40.994 3.742 73.729 36.479 77.472 77.473zm-77.472-9.15c40.994 3.742 73.729 36.479 77.472 77.473-40.995-3.742-73.73-36.478-77.472-77.473zm85.297 47.136c-3.497-8.499-8.122-16.418-13.693-23.569 9.12 1.249 18.242 1.252 27.362.012-5.651 7.25-10.232 15.168-13.669 23.557zm7.885-37.986c3.742-40.994 36.478-73.73 77.472-77.473-3.742 40.994-36.477 73.731-77.472 77.473zm0-68.323c3.742-40.994 36.478-73.73 77.472-77.473-3.742 40.994-36.477 73.73-77.472 77.473zm0-68.324c3.681-40.323 36.982-73.777 77.472-77.473-3.695 40.479-36.993 73.778-77.472 77.473z"/><path d="m247.999 113.153v-43.528c0-4.142-3.357-7.5-7.5-7.5s-7.5 3.358-7.5 7.5v36.307c-5.477.405-10.832 1.254-16.032 2.504v-69.873c0-4.142-3.357-7.5-7.5-7.5s-7.5 3.358-7.5 7.5v74.759c-5.629 2.34-11.001 5.175-16.063 8.453v-114.275c0-4.142-3.357-7.5-7.5-7.5s-7.5 3.358-7.5 7.5v55.333c-4.23-8.136-9.601-15.724-16.035-22.564l-.028-32.776c-.004-4.14-3.36-7.494-7.5-7.494-.002 0-.004 0-.007 0-4.142.003-7.497 3.364-7.493 7.506l.028 32.766c-6.303 6.702-11.589 14.122-15.778 22.072l-.311-54.885c-.024-4.128-3.377-7.458-7.499-7.458-.015 0-.029 0-.044 0-4.142.023-7.48 3.4-7.457 7.542l.651 114.703c-5.25-3.464-10.841-6.452-16.713-8.898l-.001-74.786c0-4.142-3.358-7.5-7.5-7.5-4.143 0-7.5 3.358-7.5 7.5l.001 69.889c-5.22-1.258-10.594-2.112-16.093-2.519v-36.306c0-4.142-3.357-7.5-7.5-7.5s-7.5 3.358-7.5 7.5v43.528c0 23.258 7.93 44.697 21.225 61.763-4.489-.615-9.069-.939-13.725-.939-4.143 0-7.5 3.358-7.5 7.5 0 23.258 7.93 44.697 21.225 61.763-4.489-.615-9.069-.939-13.725-.939-4.143 0-7.5 3.358-7.5 7.5 0 23.251 7.926 44.684 21.213 61.747-4.51-.611-9.089-.928-13.718-.928-4.143 0-7.5 3.358-7.5 7.5 0 19.737 5.707 38.843 16.504 55.252 2.277 3.46 6.93 4.418 10.388 2.143 3.461-2.277 4.42-6.928 2.144-10.388-7.743-11.767-12.407-25.169-13.68-39.154 40.277 3.637 73.842 37.156 77.481 77.485-15.633-1.409-30.414-7.029-43.142-16.463-3.326-2.469-8.025-1.769-10.491 1.559-2.467 3.328-1.769 8.025 1.56 10.492 15.427 11.436 33.421 18.093 52.428 19.482v85.971c0 4.142 3.357 7.5 7.5 7.5s7.5-3.358 7.5-7.5v-85.975c20.115-1.459 38.981-8.777 54.944-21.413 3.247-2.571 3.796-7.288 1.226-10.536-2.571-3.249-7.288-3.797-10.536-1.226-13.192 10.443-28.714 16.629-45.282 18.112 3.632-40.272 37.144-73.846 77.469-77.488-1.193 13.051-5.354 25.653-12.207 36.838-2.164 3.532-1.055 8.149 2.478 10.313 3.531 2.164 8.15 1.055 10.313-2.477 9.666-15.775 14.775-33.939 14.775-52.528 0-4.142-3.357-7.5-7.5-7.5-4.597 0-9.145.313-13.624.916 13.701-17.583 21.129-39.087 21.128-61.734 0-4.142-3.358-7.5-7.5-7.5-4.626 0-9.178.32-13.64.927 13.709-17.586 21.141-39.097 21.14-61.751 0-4.142-3.358-7.5-7.5-7.5-4.626 0-9.178.321-13.64.927 13.688-17.56 21.118-39.033 21.139-61.649-.001-.035.004-.068.004-.102zm-100.63-58.743c25.638 30.789 25.658 78.758 0 109.57-25.907-31.05-25.94-78.481 0-109.57zm-.059 250.455c-3.501-8.527-8.136-16.471-13.723-23.642 9.143 1.252 18.292 1.249 27.437.011-5.582 7.169-10.215 15.109-13.714 23.631zm0-68.323c-3.501-8.527-8.136-16.471-13.723-23.642 9.143 1.252 18.292 1.249 27.437.011-5.582 7.168-10.215 15.109-13.714 23.631zm-7.855-38.06c-40.994-3.742-73.729-36.479-77.472-77.473 40.994 3.743 73.729 36.479 77.472 77.473zm0 68.324c-40.994-3.742-73.729-36.479-77.472-77.473 40.994 3.742 73.729 36.479 77.472 77.473zm0 68.323c-40.994-3.742-73.729-36.479-77.472-77.473 40.994 3.742 73.729 36.479 77.472 77.473zm7.856 37.91c-3.433-8.361-8.005-16.253-13.639-23.481 9.088 1.236 18.181 1.233 27.269.011-5.63 7.225-10.199 15.113-13.63 23.47zm7.855-37.91c3.742-40.994 36.479-73.73 77.473-77.473-3.743 40.994-36.479 73.731-77.473 77.473zm0-68.323c3.742-40.994 36.479-73.73 77.473-77.473-3.743 40.994-36.479 73.73-77.473 77.473zm0-68.324c3.685-40.368 36.957-73.774 77.473-77.473-3.696 40.479-36.995 73.778-77.473 77.473z"/></g></svg>