<svg id="Capa_1" enable-background="new 0 0 511.998 511.998" height="512" viewBox="0 0 511.998 511.998" width="512" xmlns="http://www.w3.org/2000/svg"><g><path d="m442.372 496.998h-117.487c-3.501-17.685-19.127-31.063-37.824-31.063h-8.026v-109.185h22.744c4.143 0 7.5-3.358 7.5-7.5s-3.357-7.5-7.5-7.5h-22.744v-16.3h70.134c17.418 0 24.363-16.507 22.91-30.947h16.3c1.918 23.641-13.334 47.247-39.21 47.247h-14.7c-4.143 0-7.5 3.358-7.5 7.5s3.357 7.5 7.5 7.5h14.7c33.319 0 57.226-30.261 54.21-62.247h23.462c14.559-1.475 22.227-9.519 23.006-24.134-.578-12.296-10.876-21.928-23.444-21.928h-7.592v-4.875c0-14.439-11.747-26.187-26.187-26.187h-24.752c-14.439 0-26.187 11.748-26.187 26.187v4.875h-7.592c-12.568 0-23.419 9.618-23.443 21.928-.026 13.131 8.224 23.506 23.005 24.134h23.424c.92 9.122.032 15.947-7.91 15.947h-70.134v-78.07c20.188 1.626 41.631-9.712 45.851-31h24.283c18.698 0 34.33-13.379 37.829-31.07h8.781c22.454 0 42.819-14.128 50.675-35.155 1.45-3.88-.521-8.201-4.4-9.651-3.884-1.449-8.201.52-9.65 4.401-5.678 15.196-20.396 25.405-36.624 25.405h-15.55c-4.143 0-7.5 3.358-7.5 7.5 0 12.997-10.569 23.57-23.561 23.57h-30.959c-.029 0-.058-.004-.087-.004-12.992 0-23.562-10.57-23.562-23.562 0-4.142-3.357-7.5-7.5-7.5s-7.5 3.358-7.5 7.5c0 18.363 12.906 33.759 30.121 37.62-2.845 9.778-11.88 16.946-22.563 16.946h-62.24c-14.322-1.344-22.156-9.178-23.5-23.5 0-4.142-3.357-7.5-7.5-7.5h-31.07c-11.257-.871-18.703-6.226-22.339-16.066h53.405c21.263 0 38.562-17.299 38.562-38.563 0-4.142-3.357-7.5-7.5-7.5s-7.5 3.358-7.5 7.5c0 12.992-10.569 23.563-23.562 23.563l-77.656-.003c-16.246 0-32.194-11.522-37.201-27.069-1.27-3.942-5.492-6.109-9.438-4.839-3.942 1.27-6.109 5.495-4.839 9.438 8.235 25.565 34.352 39.045 60.233 37.471 3.449 17.598 20.215 31.07 37.835 31.07h24.296c4.21 21.443 25.69 32.583 45.858 31v109.128h-70.081c-4.362 0-7.912-3.549-7.912-7.912v-8.031h23.374c14.558-1.475 22.226-9.52 23.005-24.134-.578-12.296-10.876-21.928-23.444-21.928h-7.592v-4.875c0-14.439-11.747-26.187-26.187-26.187h-24.751c-14.439 0-26.188 11.747-26.188 26.187v4.875h-7.592c-12.568 0-22.866 9.632-23.443 21.928.777 14.615 8.446 22.66 23.005 24.135h23.512c-3.018 31.989 20.893 62.243 54.213 62.243h70.081v78.127h-8.026c-18.697 0-34.323 13.377-37.824 31.063h-117.487c-4.143 0-7.5 3.358-7.5 7.5s3.357 7.5 7.5 7.5h372.746c4.143 0 7.5-3.358 7.5-7.5s-3.357-7.503-7.5-7.503zm-15.97-233.557c4.468 0 8.263 3.424 8.46 7.633-.265 5.104-2.939 7.914-8.021 8.429l-39.107-.123.006-10.813c.002-2.826 2.303-5.125 5.129-5.125h33.533zm-100.768 7.632c0-4.213 3.992-7.632 8.46-7.632h15.092c4.143 0 7.5-3.358 7.5-7.5v-12.375c0-6.168 5.019-11.187 11.187-11.187h24.752c6.168 0 11.187 5.019 11.187 11.187v4.875h-10.941c-11.093 0-20.123 9.024-20.129 20.117l-.006 10.822-39.079.123c-5.283 0-8.023-4.378-8.023-8.43zm-206.259-7.632h24.751c6.168 0 11.187 5.018 11.187 11.187v12.375c0 4.142 3.357 7.5 7.5 7.5h15.092c4.468 0 8.263 3.424 8.46 7.633-.265 5.104-2.938 7.914-8.021 8.43l-39.08-.119-.006-10.826c-.006-11.093-9.036-20.117-20.129-20.117h-10.941v-4.875c0-6.17 5.018-11.188 11.187-11.188zm-42.239 38.694c.003-4.213 3.992-7.632 8.46-7.632h33.533c2.826 0 5.127 2.299 5.129 5.126l.006 10.817-39.107.119c-5.325 0-8.024-3.898-8.021-8.43zm85.746 70.673c-25.489 0-41.031-23.691-39.213-47.243h16.301c-1.453 14.442 5.494 30.943 22.912 30.943h70.081v16.3zm85.081-140.428h16.072v233.556h-16.072zm-45.364 264.618c3.14-9.327 11.967-16.063 22.338-16.063h62.125c10.371 0 19.198 6.736 22.338 16.063z"/><path d="m70.429 104.751c3.807 1.636 8.217-.125 9.852-3.931 6.181-14.391 20.287-23.69 35.938-23.69h15.53c4.143 0 7.5-3.358 7.5-7.5 0-12.997 10.568-23.57 23.56-23.57h30.979c.029 0 .058.004.087.004 12.992 0 23.562 10.57 23.562 23.562 0 4.142 3.357 7.5 7.5 7.5s7.5-3.358 7.5-7.5c0-18.364-12.907-33.76-30.123-37.62 2.846-9.811 11.909-17.006 22.625-17.006h62.119c12.991 0 23.561 10.569 23.561 23.56 0 4.142 3.357 7.5 7.5 7.5h31.07c10.369 0 19.188 6.739 22.329 16.066h-22.333c-21.264 0-38.563 17.299-38.563 38.562 0 4.142 3.357 7.5 7.5 7.5s7.5-3.358 7.5-7.5c0-12.992 10.57-23.562 23.563-23.562l46.594.003c15.579 0 31.129 10.717 36.605 25.349 2.611 4.266 5.829 5.731 9.653 4.395 3.879-1.452 5.848-5.773 4.396-9.653-9.104-24.324-34.664-36.568-59.416-35.091-3.499-17.691-19.131-31.07-37.828-31.07h-24.303c-3.499-17.684-19.131-31.059-37.827-31.059h-62.119c-18.696 0-34.328 13.375-37.828 31.06h-24.303c-18.697 0-34.329 13.379-37.828 31.07h-8.762c-21.654 0-41.171 12.863-49.722 32.77-1.635 3.806.126 8.216 3.932 9.851z"/></g></svg>