<svg id="Capa_1" enable-background="new 0 0 511.998 511.998" height="512" viewBox="0 0 511.998 511.998" width="512" xmlns="http://www.w3.org/2000/svg"><path d="m473.439 120.098c4.142 0 7.5-3.358 7.5-7.5v-42.97c0-4.206-3.54-7.578-7.645-7.499-76.707.053-148.789 43.636-184.564 111.389-3.856-6.178-9.406-11.196-16.002-14.385l29.229-113.087c11.795.323 23.666-11.421 23.666-23.015 0-12.7-10.332-23.031-23.031-23.031s-23.031 10.332-23.031 23.031c0 7.093 3.225 13.446 8.284 17.674l-29.639 114.674c-1.471-.09-2.942-.09-4.414 0l-29.639-114.674c5.059-4.228 8.284-10.581 8.284-17.674 0-12.7-10.332-23.031-23.031-23.031s-23.031 10.332-23.031 23.031c0 11.594 11.871 23.338 23.666 23.015l29.229 113.087c-6.596 3.189-12.145 8.206-16.001 14.384-35.734-67.699-107.925-111.337-184.572-111.388-4.103-.075-7.638 3.293-7.638 7.499v124.85c0 63.807 48.205 120.001 111.26 129.634-28.664 16.782-47.714 48.42-49.044 81.585-.166 4.139 3.055 7.629 7.193 7.795 4.112.144 7.629-3.054 7.795-7.193.257-6.408 1.241-12.61 2.83-18.552h58.126l-61.011 69.343c-.005-.254-.019-.506-.019-.762v-17.64c0-4.142-3.358-7.5-7.5-7.5s-7.5 3.358-7.5 7.5v17.64c0 30.06 25.506 55.67 55.67 55.67 43.244 0 80.102-27.842 93.606-66.539 1.827 1.332 3.857 2.4 6.034 3.152v24.823c0 4.142 3.358 7.5 7.5 7.5s7.5-3.358 7.5-7.5v-24.823c2.177-.752 4.207-1.82 6.034-3.152 13.504 38.697 50.362 66.539 93.606 66.539 29.958 0 55.67-25.695 55.67-55.67v-17.64c0-4.142-3.358-7.5-7.5-7.5s-7.5 3.358-7.5 7.5v17.64c0 .255-.015.507-.019.762l-61.011-69.343h58.126c1.589 5.942 2.573 12.144 2.83 18.552.166 4.138 3.66 7.347 7.795 7.193 4.139-.166 7.359-3.656 7.193-7.795-1.331-33.173-20.365-64.794-49.044-81.585 63.005-9.626 111.26-65.85 111.26-129.634v-49.2c0-4.142-3.358-7.5-7.5-7.5s-7.5 3.358-7.5 7.5v15.408l-56.537 56.758h-46.406l102.943-126.7v21.855c0 4.141 3.358 7.499 7.5 7.499zm-170.847-105.098c4.428 0 8.031 3.603 8.031 8.031s-3.603 8.031-8.031 8.031-8.031-3.603-8.031-8.031 3.603-8.031 8.031-8.031zm-101.217 8.031c0-4.428 3.603-8.031 8.031-8.031s8.031 3.603 8.031 8.031-3.603 8.031-8.031 8.031-8.031-3.603-8.031-8.031zm255.732 54.795-69.359 85.365v-66.26c21.391-10.501 44.84-17.075 69.359-19.105zm-84.359 27.307v76.52l-47.125 58v-94.237c13.534-16.01 29.464-29.565 47.125-40.283zm-62.124 60.582v92.4l-31.593 38.884v-70.31l1.542-3.119c8.171-6.774 13.505-16.85 13.95-28.161 4.785-10.098 10.103-20.38 16.101-29.694zm-115.215 144.903-77.871-78.175h43.652l63.517 78.175zm-21.171 0h-12.029c-21.464 0-41.582-5.859-58.852-16.05h54.892zm-128.179-219.875 79.902 98.342c.001.001.001.002.002.003l23.039 28.356h-46.406l-56.537-56.758zm8.832-12.917c24.52 2.03 47.969 8.604 69.359 19.103v66.263zm193.078 185.672h16.06v16.062h-16.06zm16.06-15h-16.06v-16.055h16.06zm-16.06 46.062h16.06v16.063h-16.06zm0 31.063h16.06v16.062h-16.06zm0 31.062h16.06v16.063h-16.06zm8.03-186.373c12.992 0 23.562 10.57 23.562 23.562s-10.57 23.563-23.562 23.563-23.562-10.57-23.562-23.563 10.57-23.562 23.562-23.562zm-38.523 25.096c.445 11.312 5.779 21.388 13.95 28.161l1.542 3.119v70.31l-31.593-38.884v-92.406c5.998 9.316 11.315 19.601 16.101 29.7zm-31.101-50v94.245l-47.125-58v-76.523c17.663 10.717 33.593 24.271 47.125 40.278zm-140.316 49.07v-12.538l97.249 97.628h-60.061c-22.858-21.224-37.188-51.513-37.188-85.09zm70.632 178.269c13.647-28.018 42.326-47.104 75.547-47.127.02 0 .041.003.061.003.031 0 .061-.004.092-.004h31.492l-41.466 47.129h-65.726zm32.168 124.251c-15.787 0-29.493-9.048-36.229-22.226l42.682-48.511v31.642c0 4.142 3.358 7.5 7.5 7.5s7.5-3.358 7.5-7.5v-48.691l62.655-71.212v74.945c-.031 46.353-37.749 84.053-84.108 84.053zm115.171-70.158c0 4.428-3.603 8.031-8.031 8.031s-8.031-3.603-8.031-8.031l.001-39.093h16.06zm99.109 70.158c-46.359 0-84.077-37.7-84.109-84.052v-74.945l62.655 71.212v48.691c0 4.142 3.358 7.5 7.5 7.5s7.5-3.358 7.5-7.5v-31.642l42.682 48.511c-6.735 13.177-20.44 22.225-36.228 22.225zm32.168-124.251h-65.726l-41.466-47.129h31.492c.031 0 .061.004.092.004.02 0 .04-.003.061-.003 33.221.024 61.9 19.11 75.547 47.128zm-41.559-78.179h54.892c-17.27 10.192-37.388 16.05-58.852 16.05h-12.028zm112.191-100.09c0 33.577-14.33 63.866-37.188 85.09h-60.061l97.249-97.628zm-71.479 37.965-77.871 78.175h-29.297l63.517-78.175z"/></svg>