<svg id="Capa_1" enable-background="new 0 0 512 512" height="512" viewBox="0 0 512 512" width="512" xmlns="http://www.w3.org/2000/svg"><path d="m504.349 357.77h-23.557c.026-40.337 11.817-77.836 30.261-113.326 3.793-7.298-4.538-15.962-12.008-8.656-14.404 14.088-28.863 28.493-40.77 44.789.793-56.974 19.17-108.04 37.569-161.062 3.007-8.665-7.023-15.33-13.018-7.133-28.275 38.663-55.109 77.333-71.639 122.666-16.48-45.196-42.571-84.735-71.629-122.665-4.401-3.959-8.803-3.959-13.206 0-13.446 17.584-26.974 35.309-38.557 54.185l-4.64-21.442c-.876-4.048-4.875-6.613-8.913-5.742-4.048.876-6.618 4.867-5.742 8.914l8.156 37.689c-8.448 15.789-15.775 32.173-21.936 49.07-6.148-16.87-13.463-33.234-21.901-49.011l22.809-97.207 5.954 27.508c.877 4.048 4.862 6.62 8.914 5.742 4.047-.876 6.617-4.867 5.741-8.914l-12.986-60.002c-2.663-9.971-12.66-8.971-14.627-.127l-26.731 113.919c-10.889-17.795-23.514-34.513-36.176-51.076-1.165-8.717-14.881-8.708-16.054-.004-28.282 36.822-53.002 75.273-69.003 119.162-16.481-45.197-42.567-84.746-71.64-122.666-5.994-7.53-15.358-.865-13.017 7.134 19.69 52.487 36.776 104.144 37.569 161.062-11.92-16.314-26.596-30.441-40.77-44.79-7.053-7.14-14.926 2.857-12.008 8.656 17.98 35.728 30.235 72.989 30.261 113.326h-23.557c-4.141 0-7.498 3.357-7.498 7.498v78.187c0 12.403 10.09 22.493 22.493 22.493h74.507c4.141 0 7.498-3.357 7.498-7.498s-3.357-7.498-7.498-7.498h-74.507c-4.135 0-7.498-3.363-7.498-7.498v-39.628h335.43c4.141 0 7.498-3.357 7.498-7.498s-3.356-7.498-7.498-7.498h-335.429v-16.065h481.856v16.065h-113.757c-4.141 0-7.498 3.357-7.498 7.498s3.356 7.498 7.498 7.498h113.756v39.628c0 4.134-3.363 7.498-7.498 7.498h-359.682c-4.141 0-7.498 3.357-7.498 7.498s3.357 7.498 7.498 7.498h359.682c12.403 0 22.493-10.09 22.493-22.493v-78.187c.001-4.14-3.356-7.497-7.497-7.497zm-458.298 0v-.017c0-27.255-4.766-54.539-13.915-80.235 19.72 23.476 34.43 50.794 43.168 80.251h-29.253zm33.614-31.715c-3.415-7.838-7.246-15.482-11.476-22.899 2.14-47.16-4.358-93.581-19.371-138.208 18.988 28.913 33.974 60.813 44.02 93.927-6.418 21.994-10.819 44.453-13.173 67.18zm55.991 7.041 3.084 24.674h-46.031c1.436-68.271 22.412-135.681 59.778-192.766-18.058 53.865-23.881 111.696-16.831 168.092zm49.459 24.674h-31.263c-10.518-75.865-3.741-146.354 23.837-217.935 17.598 45.326 29.268 91.858 29.946 140.748-11.921-16.316-26.493-30.548-40.774-44.795-8.285-8.265-16.157.608-12.008 8.656 18.331 35.55 30.236 72.989 30.262 113.326zm14.996 0v-.017c0-27.256-4.765-54.539-13.914-80.235 19.719 23.476 34.43 50.794 43.168 80.251h-29.254zm33.612-31.723c-3.413-7.834-7.243-15.473-11.47-22.886 2.142-47.163-4.355-93.582-19.366-138.199 19.029 28.981 33.892 60.78 44.007 93.932-6.417 21.986-10.817 44.437-13.171 67.153zm30.762 31.723h-17.722c1.393-68.189 22.36-135.805 59.796-192.812-15.011 44.599-21.507 91.013-19.363 138.186-9.773 17.134-17.417 35.477-22.711 54.626zm44.842-.016-10.933.017h-18.32c8.738-29.458 23.448-56.776 43.168-80.251-9.15 25.694-13.915 52.978-13.915 80.234zm51.983-26.516-3.315 26.532h-33.672c.026-40.337 12.709-77.387 30.261-113.326 3.808-7.798-4.189-15.962-12.008-8.656-14.719 13.755-28.859 28.489-40.765 44.782.693-50.124 13.099-97.529 31.144-143.943 24.422 62.407 36.74 127.528 28.355 194.611zm26.929 26.532h-15.132c9.035-65.171 7.34-129.914-13.772-192.837 18.995 28.918 33.981 60.824 44.031 93.946-9.389 32.185-14.469 65.354-15.127 98.891zm32.714 0h-17.718c1.392-68.153 22.369-135.841 59.793-192.824-15.015 44.627-21.512 91.045-19.372 138.209-9.768 17.131-17.409 35.47-22.703 54.615zm44.843-.016-29.253.017c8.738-29.458 23.448-56.776 43.168-80.251-9.15 25.694-13.915 52.978-13.915 80.234z"/></svg>