<svg id="Capa_1" enable-background="new 0 0 511.996 511.996" height="512" viewBox="0 0 511.996 511.996" width="512" xmlns="http://www.w3.org/2000/svg"><path d="m380.268 62.124h-23.56v-23.566c0-4.142-3.357-7.5-7.5-7.5-20.876 0-40.285 6.392-56.383 17.313-3.946-16.846-14.517-32.213-32.035-46.658-2.517-2.075-6.087-2.285-8.828-.521-18.255 11.741-29.342 27.496-33.087 46.958-16.033-10.784-35.315-17.091-56.046-17.091-4.143 0-7.5 3.358-7.5 7.5v23.57h-23.56c-4.143 0-7.5 3.358-7.5 7.5v54.69c0 4.142 3.357 7.5 7.5 7.5s7.5-3.358 7.5-7.5v-47.19h16.06v85.68c0 32.898 15.861 62.16 40.335 80.546-35.836-13.056-58.133-48.606-56.395-86.346 0-4.142-3.357-7.5-7.5-7.5s-7.5 3.358-7.5 7.5c-1.5 54.067 38.733 102.59 93.884 106.259 2.942 15.353 15.015 27.499 30.366 30.548v25.441c-8.576-8.106-20.13-13.092-32.834-13.092-4.143 0-7.5 3.358-7.5 7.5v122.984c0 23.828 17.508 43.638 40.334 47.254v20.593c0 4.142 3.357 7.5 7.5 7.5s7.5-3.358 7.5-7.5v-20.59c22.833-3.611 40.349-23.425 40.349-47.258v-24.97c0-4.142-3.357-7.5-7.5-7.5s-7.5 3.358-7.5 7.5v24.97c0 15.529-10.83 28.575-25.334 31.982v-114.617c0-.11-.008-.219-.008-.329.155-15.386 10.935-28.275 25.342-31.653v56.957c0 4.142 3.357 7.5 7.5 7.5s7.5-3.358 7.5-7.5v-65.32c0-4.142-3.357-7.5-7.5-7.5-12.711 0-24.271 4.992-32.849 13.105v-25.44c15.365-3.015 27.481-15.182 30.428-30.571 52.323-3.511 93.821-47.192 93.821-100.389v-93.249c0-4.142-3.358-7.5-7.5-7.5zm-124.749-45.155c14.726 13.303 22.571 27.21 23.88 42.306-9.997 9.633-18.024 21.298-23.38 34.336-5.365-13.061-13.411-24.744-23.432-34.386 1.076-17.628 8.605-31.523 22.932-42.256zm-32.334 419.68v-114.621c14.301 3.352 25.026 16.077 25.334 31.313v.638c0 .013-.001.026-.001.039v114.612c-14.504-3.407-25.333-16.453-25.333-31.981zm32.834-157.089c-10.371 0-19.199-6.736-22.339-16.063h44.739c-3.141 9.327-11.979 16.063-22.4 16.063zm116.749-116.687c0 36.891-23.451 68.407-56.229 80.425 24.825-18.739 40.169-49.352 40.169-80.491v-14.71c0-4.142-3.357-7.5-7.5-7.5s-7.5 3.358-7.5 7.5v14.71c0 46.72-38.969 85.69-85.689 85.69-47.25 0-85.69-38.44-85.69-85.69v-116.424c43.752 3.811 78.19 40.642 78.19 85.365v.004s0 .003 0 .004l.03 31.063c.004 4.14 3.361 7.493 7.5 7.493h.007c4.143-.004 7.497-3.365 7.493-7.507l-.03-31.056c0-44.723 34.438-81.554 78.189-85.364v23.183c0 .02-.003.038-.003.058s.003.038.003.058v45.726c0 4.142 3.357 7.5 7.5 7.5s7.5-3.358 7.5-7.5v-38.286h16.06z"/></svg>