<svg id="Capa_1" enable-background="new 0 0 511.989 511.989" height="512" viewBox="0 0 511.989 511.989" width="512" xmlns="http://www.w3.org/2000/svg"><path d="m479.376 328.589c15.306-131.53-91.12-250.936-223.447-250.936-48.444 0-94.586 15.162-133.436 43.846-3.332 2.46-4.039 7.156-1.578 10.489 2.46 3.332 7.155 4.038 10.488 1.579 36.251-26.766 79.311-40.914 124.525-40.914 115.762 0 209.94 94.179 209.94 209.94 0 7.398-.368 14.562-1.108 21.706-.026-.004-.051-.009-.077-.013-3.927-7.19-8.986-13.581-14.88-19.007-.219-106.409-86.198-196.559-193.873-196.559-105.76 0-192.094 92.59-193.829 196.642-5.856 5.409-10.885 11.773-14.794 18.927-.07.01-.139.025-.209.035-.74-7.148-1.108-14.32-1.108-21.731 0-56.052 21.814-108.747 61.425-148.378 2.928-2.93 2.927-7.678-.003-10.606-2.929-2.929-7.678-2.928-10.606.003-48.136 48.159-72.197 117.393-64.319 185.04-19.206 8.744-32.487 28.146-32.487 50.371 0 30.498 24.812 55.31 55.31 55.31h56.03c4.143 0 7.5-3.358 7.5-7.5s-3.357-7.5-7.5-7.5h-56.03c-22.227 0-40.31-18.083-40.31-40.31 0-21.094 16.404-38.702 37.389-40.201 24.264.12 43.236 17.733 43.236 40.203 0 4.142 3.357 7.5 7.5 7.5s7.5-3.358 7.5-7.5c0-26.86-20.509-48.862-46.075-53.976 11.064-15.204 28.978-24.586 48.14-24.586 19.246 0 37.234 9.464 48.285 24.787-9.524 2.309-18.302 7.346-25.083 14.601-2.828 3.026-2.668 7.772.358 10.601 3.583 2.809 7.116 2.689 10.601-.358 15.767-16.87 42.017-13.15 55.463 4.745 1.417 1.885 3.638 2.995 5.996 2.995h9.561c16.737 0 30.5 13.636 30.5 30.75 0 17.807-14.22 29.015-30.633 30.75-16.893-.073-30.614-13.836-30.614-30.746 0-4.142-3.357-7.5-7.5-7.5s-7.5 3.358-7.5 7.5c0 11.826 4.51 22.617 11.9 30.746h-39.994c-4.143 0-7.5 3.358-7.5 7.5s3.357 7.5 7.5 7.5h73.708c.045 0 .09.003.135.003.047 0 .092-.006.138-.007 15.84-.048 29.807-8.189 37.985-20.495 8.178 12.306 22.144 20.446 37.983 20.495.047.001.092.007.139.007.045 0 .09-.003.135-.003h98.268c4.143 0 7.5-3.358 7.5-7.5s-3.357-7.5-7.5-7.5h-64.552c7.39-8.129 11.9-18.921 11.9-30.746 0-4.142-3.357-7.5-7.5-7.5s-7.5 3.358-7.5 7.5c0 16.91-13.721 30.673-30.615 30.746h-.132c-15.961 0-30.027-12.163-30.605-27.8-.585-15.82 11.736-33.7 30.605-33.7h9.56c2.358 0 4.579-1.109 5.996-2.995 7.051-9.384 17.765-15.216 29.415-16.027.028 0 .055.004.083.004 9.947 0 19.168 4.005 25.965 11.277 3.484 3.048 7.018 3.167 10.601.358 3.026-2.828 3.187-7.574.358-10.601-6.78-7.255-15.559-12.292-25.083-14.601 11.05-15.323 29.039-24.787 48.285-24.787 19.164 0 37.078 9.381 48.142 24.583-25.567 5.114-46.077 27.118-46.077 53.979 0 4.142 3.357 7.5 7.5 7.5s7.5-3.358 7.5-7.5c0-22.471 18.972-40.086 43.238-40.206 20.984 1.499 37.387 19.108 37.387 40.204 0 22.227-18.083 40.31-40.31 40.31h-31.47c-4.143 0-7.5 3.358-7.5 7.5s3.357 7.5 7.5 7.5h31.47c30.498 0 55.31-24.812 55.31-55.31-.003-22.275-13.342-41.716-32.616-50.433zm-223.446-204.869c95.896 0 174.399 75.859 178.677 170.718-5.047-2.726-10.41-4.878-15.987-6.39-3.194-86.695-78.379-148.268-162.689-148.268-84.563 0-154.713 64.631-162.149 148.162-5.634 1.493-11.053 3.638-16.152 6.369 7.373-93.854 86.02-170.591 178.3-170.591zm77.994 200.567c-13.119 1.91-25.116 8.483-33.824 18.546-16.774-.561-34.514 6.06-44.104 20.439-9.655-14.476-27.149-21.197-44.105-20.439-8.708-10.063-20.705-16.637-33.824-18.546-8.474-15.513-22.19-27.339-38.279-33.667 6.006-59.19 55.982-104.781 116.134-104.781 60.153 0 110.134 45.619 116.134 104.842-16.026 6.342-29.685 18.141-38.132 33.606zm52.758-37.733c-7.955-65.564-63.765-115.714-130.762-115.714-67.007 0-122.82 50.141-130.765 115.689-5.335-.926-10.687-1.249-16.056-.967 8.465-74.019 71.318-130.782 146.831-130.782 81.255 0 143.233 55.663 147.561 130.813-5.622-.338-11.225-.017-16.809.961z"/></svg>