<svg id="Capa_1" enable-background="new 0 0 512 512" height="512" viewBox="0 0 512 512" width="512" xmlns="http://www.w3.org/2000/svg"><g><path d="m153.284 346.928c0-25.813-28.208-60.322-31.264-64.3-2.441-3.177-8.506-3.678-11.557 0-3.203 3.86-31.264 38.488-31.264 64.3 0 22.51 16.618 40.822 37.043 40.822s37.042-18.312 37.042-40.822zm-37.042 25.815c-12.151 0-22.036-11.58-22.036-25.815 0-13.891 12.934-34.712 22.039-47.226 9.105 12.503 22.032 33.306 22.032 47.226 0 14.235-9.885 25.815-22.035 25.815z"/><path d="m390.28 282.628c-3.067 3.969-31.264 38.488-31.264 64.3 0 22.51 16.618 40.822 37.043 40.822 20.426 0 37.043-18.313 37.043-40.822 0-25.813-28.292-60.26-31.264-64.3-3.058-4.157-7.893-4.741-11.558 0zm5.779 90.115c-12.151 0-22.036-11.58-22.036-25.815 0-13.891 12.934-34.712 22.039-47.226 9.105 12.503 22.032 33.306 22.032 47.226 0 14.235-9.884 25.815-22.035 25.815z"/><path d="m158.737 406.878c-3.131 3.918-31.264 38.488-31.264 64.3 0 22.51 16.618 40.822 37.043 40.822s37.043-18.313 37.043-40.822c0-25.812-28.016-60.477-31.264-64.3-2.754-3.241-7.819-4.679-11.558 0zm5.779 90.115c-12.151 0-22.036-11.58-22.036-25.815 0-13.891 12.934-34.711 22.039-47.226 9.105 12.503 22.032 33.306 22.032 47.226 0 14.234-9.885 25.815-22.035 25.815z"/><path d="m343.664 406.878c-2.972 4.041-31.264 38.488-31.264 64.3 0 22.51 16.617 40.822 37.043 40.822s37.043-18.313 37.043-40.822c0-25.812-27.958-60.528-31.264-64.3-3.298-3.762-8.301-4.429-11.558 0zm5.778 90.115c-12.151 0-22.035-11.58-22.035-25.815 0-13.89 12.93-34.707 22.035-47.221 9.106 12.516 22.036 33.333 22.036 47.221 0 14.234-9.885 25.815-22.036 25.815z"/><path d="m38.805 149.121c4.066.804 8.013-1.837 8.819-5.902 17.177-86.716 150.882-73.543 150.882 14.894 0 4.144 3.36 7.504 7.504 7.504s7.504-3.36 7.504-7.504c0-47.303-38.658-84.971-84.551-90.269 19.714-32.421 55.39-52.836 93.781-52.836 38.419 0 74.125 20.455 93.834 52.931-18.665 2.615-36.128 11.558-49.119 25.459-7.858 8.409 5.462 16.136 10.964 10.247 30.312-32.436 80.01-25.376 105.664 8.775 1.417 1.887 3.639 2.997 6 2.997h16.728c26.531 0 51.191 19.116 57.643 44.903 2.279 4.546 5.312 6.365 9.101 5.458 4.021-1.006 6.464-5.081 5.458-9.101-8.091-32.338-38.937-56.268-72.202-56.268h-13.078c-15.068-18.42-36.631-30.195-60.179-32.879-21.059-40.794-64.852-67.53-110.815-67.53-45.943 0-89.748 26.703-110.814 67.53-39.143 4.456-71.311 33.823-79.026 72.771-.806 4.066 1.837 8.014 5.902 8.82z"/><path d="m473.56 183.916c-4.019-1.005-8.095 1.435-9.103 5.454-6.626 26.44-30.33 44.905-57.644 44.905h-.132c-32.709-.073-59.298-26.703-59.298-59.429 0-4.144-3.36-7.504-7.504-7.504s-7.504 3.36-7.504 7.504c0 24.254 11.664 45.83 29.671 59.429h-239.712c-36.247 0-67.667-25.768-74.71-61.27-.806-4.065-4.753-6.711-8.82-5.9-4.065.806-6.706 4.755-5.9 8.82 8.432 42.506 46.043 73.357 89.43 73.357h91.822l-27.058 67.243c-1.329 5.9.991 9.335 6.961 10.305h52.521l-28.721 113.923c-2.275 9.023 8.871 11.81 13.117 6.545l65.852-81.651c2.602-3.226 2.096-7.95-1.13-10.552-3.227-2.602-7.95-2.095-10.552 1.13l-44.371 55.015 22.71-90.08c.616-5.483-1.809-8.595-7.276-9.338h-51.043l25.037-62.221h61.512l-14.423 35.848c-1.33 5.887.982 9.322 6.937 10.304l49.563.16-28.105 34.839c-2.602 3.225-2.097 7.949 1.129 10.552 3.223 2.6 7.949 2.097 10.552-1.129l37.919-47.003c3.185-6.511 1.246-10.583-5.816-12.215l-54.123-.174 12.674-31.501h98.661c.045 0 .09.003.135.003.04 0 .078-.005.118-.006 34.158-.055 63.788-23.173 72.08-56.262 1.006-4.018-1.436-8.094-5.456-9.101z"/></g></svg>