<svg id="Capa_1" enable-background="new 0 0 511.98 511.98" height="512" viewBox="0 0 511.98 511.98" width="512" xmlns="http://www.w3.org/2000/svg"><g><path d="m511.96 293.876c.03-6.705-5.72-11.83-12.638-5.463-15.149 13.942-37.52 12.532-51.659-1.72-9.164-9.165-21.182-14.438-34.052-15.003-5.796-22.35-16.44-43.505-31.023-61.505-2.608-3.219-7.332-3.713-10.549-1.106-3.219 2.608-3.714 7.331-1.106 10.549 12.756 15.744 22.195 34.143 27.571 53.607-8.841 2.254-16.948 6.84-23.567 13.458-14.06 14.06-37.467 14.056-51.526-.002-19.851-19.829-52.873-19.825-72.724.002-14.059 14.059-37.458 14.055-51.517-.002-19.854-19.832-52.884-19.825-72.736.006-4.853 4.858-10.842 8.167-17.369 9.697 8.063-74.498 70.965-131.637 146.925-131.637 33.753 0 66.76 11.673 92.941 32.869 3.219 2.607 7.942 2.109 10.548-1.11s2.109-7.942-1.11-10.548c-28.843-23.351-65.202-36.211-102.379-36.211-84.341 0-154.073 63.954-162.046 146.984-8.005-1.832-14.659-5.496-19.962-10.99-19.782-19.771-51.233-20.252-71.6-1.098-1.507 1.417-2.362 3.395-2.362 5.463l-.02 142.791c1.278 13.719 8.778 21.221 22.5 22.509h59.7c4.142 0 7.5-3.358 7.5-7.5s-3.358-7.5-7.5-7.5h-59.7c-4.574-.428-7.074-2.927-7.5-7.497l.019-45.582c14.411-11.455 35.092-10.444 48.358 2.822 20.259 19.134 53.089 21.517 73.667.94 14.06-14.06 37.468-14.056 51.526.003 19.853 19.828 52.872 19.824 72.724-.003 14.059-14.059 37.459-14.055 51.517.003 19.855 19.83 52.882 19.824 72.735-.005 14.927-14.935 37.877-12.579 52.454.943 16.03 16.021 39.72 19.376 58.968 9.881l.014 30.994c0 4.136-3.364 7.5-7.5 7.5h-374.592c-4.142 0-7.5 3.358-7.5 7.5s3.358 7.5 7.5 7.5h374.59c12.407 0 22.5-10.093 22.5-22.503zm-63.356 87.556c-20.256-19.144-53.088-21.53-73.664-.943-14.063 14.047-37.463 14.05-51.526.003-19.842-19.842-52.88-19.846-72.724-.003-14.062 14.046-37.454 14.049-51.517.003-19.845-19.845-52.891-19.845-72.736 0-14.926 14.925-37.875 12.569-52.454-.94-16.024-16.025-39.712-19.379-58.962-9.883v-29.222c14.407-11.452 35.085-10.451 48.356 2.812 20.256 19.143 53.089 21.53 73.664.943 14.063-14.046 37.463-14.05 51.526-.003 5.308 5.309 11.546 9.307 18.54 11.884 3.888 1.43 8.198-.558 9.631-4.444 1.432-3.887-.558-8.198-4.444-9.631-4.943-1.821-9.357-4.653-13.123-8.418-19.853-19.83-52.883-19.826-72.735.004-14.927 14.935-37.877 12.578-52.454-.943-16.028-16.019-39.715-19.377-58.962-9.884v-29.231c14.407-11.448 35.088-10.438 48.355 2.822 20.097 20.565 53.106 21.528 73.665.945 14.063-14.047 37.463-14.05 51.526-.003 19.842 19.841 52.88 19.845 72.724.003 14.062-14.046 37.454-14.05 51.517-.003 19.845 19.844 52.891 19.844 72.736 0 14.927-14.927 37.875-12.573 52.454.94 16.023 16.024 39.712 19.381 58.963 9.887v29.229c-14.411 11.453-35.091 10.443-48.357-2.823-20.258-19.133-53.09-21.518-73.667-.94-14.06 14.06-37.468 14.056-51.526-.003-19.851-19.829-52.874-19.825-72.724.003-3.273 3.273-7.067 5.857-11.278 7.681-3.801 1.646-5.547 6.063-3.901 9.863 1.646 3.801 6.063 5.547 9.863 3.901 5.951-2.578 11.308-6.225 15.919-10.836 14.062-14.045 37.454-14.049 51.517-.003 19.844 19.845 52.892 19.845 72.736 0 14.925-14.926 37.876-12.568 52.454.94 10.09 10.09 23.217 15.158 36.363 15.158 7.733 0 15.469-1.763 22.6-5.28v29.228c-14.407 11.451-35.085 10.45-48.355-2.813z"/><path d="m169.899 147.307c5.876 2.354 11.752 2.354 17.628 0 11.732-4.86 17.323-18.359 12.464-30.092-4.86-11.733-18.36-17.322-30.092-12.465-12.464 6.589-16.619 16.619-12.464 30.091 2.354 5.686 6.781 10.112 12.464 12.466zm1.394-24.351c.821-1.982 2.365-3.526 4.347-4.347 4.096-1.568 7.593-.119 10.493 4.347 1.695 4.091-.255 8.798-4.346 10.493-4.09 1.694-8.799-.255-10.494-4.347-.821-1.981-.821-4.164 0-6.146z"/><path d="m60.613 256.594c11.149 4.619 25.183-.739 30.092-12.464 4.536-10.834 1.267-24.349-12.465-30.092-11.714-4.899-25.231.731-30.091 12.464-4.86 11.734.731 25.233 12.464 30.092zm1.394-24.351c2.9-4.466 6.397-5.915 10.493-4.347 4.091 1.695 6.041 6.402 4.346 10.493-2.297 4.347-5.795 5.796-10.493 4.346-4.091-1.694-6.041-6.401-4.346-10.492z"/><path d="m433.741 214.038c-11.5 4.258-16.625 17.023-12.465 30.091 3.856 12.113 18.942 17.084 30.092 12.465 11.732-4.859 17.324-18.358 12.464-30.092-4.86-11.732-18.36-17.324-30.091-12.464zm16.233 18.204c1.695 4.092-.255 8.799-4.346 10.494-4.698 1.449-8.196.001-10.493-4.346-1.695-4.091.255-8.798 4.346-10.493 4.089-1.697 8.798.254 10.493 4.345z"/><path d="m324.454 147.308c11.15 4.616 25.226-.718 30.092-12.464 4.155-13.473 0-23.504-12.465-30.092-11.731-4.86-25.231.733-30.091 12.465-4.86 11.731.731 25.231 12.464 30.091zm1.394-24.352c1.694-4.091 6.402-6.042 10.493-4.347 4.347 2.297 5.795 5.795 4.346 10.493-1.695 4.092-6.402 6.042-10.493 4.347-4.091-1.694-6.041-6.401-4.346-10.493z"/><path d="m255.99 133.689c12.7 0 23.031-10.332 23.031-23.031v-31.062c0-12.7-10.332-23.031-23.031-23.031s-23.031 10.332-23.031 23.031v31.062c0 12.7 10.332 23.031 23.031 23.031zm-8.031-54.093c0-4.428 3.603-8.031 8.031-8.031s8.031 3.603 8.031 8.031v31.062c0 4.428-3.603 8.031-8.031 8.031s-8.031-3.603-8.031-8.031z"/><path d="m96.937 186.08c10.857 8.98 21.714 8.98 32.571 0 8.98-8.98 8.98-23.591 0-32.571l-21.964-21.965c-8.98-8.978-23.59-8.979-32.571 0-8.98 8.98-8.98 23.591 0 32.571zm-11.358-43.929c3.131-3.131 8.226-3.132 11.358 0l21.964 21.964c3.131 3.131 3.131 8.227 0 11.358-3.131 3.13-8.226 3.131-11.358 0l-21.964-21.964c-3.131-3.131-3.131-8.227 0-11.358z"/><path d="m398.758 192.815c5.898 0 11.796-2.245 16.286-6.735l21.964-21.964c8.98-8.98 8.98-23.591 0-32.571-8.98-8.979-23.591-8.979-32.571 0l-21.964 21.964c-8.98 8.98-8.98 23.591 0 32.571 4.489 4.49 10.387 6.735 16.285 6.735zm-5.679-28.7 21.964-21.964c3.786-3.131 7.572-3.132 11.358 0 3.131 3.131 3.131 8.227 0 11.358l-21.964 21.964c-3.132 3.131-8.226 3.13-11.358 0-3.131-3.131-3.131-8.226 0-11.358z"/></g></svg>