<svg id="Capa_1" enable-background="new 0 0 511.998 511.998" height="512" viewBox="0 0 511.998 511.998" width="512" xmlns="http://www.w3.org/2000/svg"><g><path d="m302.548 108.187h113.154c18.816 0 34.125-15.309 34.125-34.125 0-20.536-17.56-34.883-37.262-34.125-6.1-6.696-14.229-11.16-23.122-12.708-9.568-16.668-27.564-27.229-46.959-27.229-19.394 0-37.389 10.561-46.958 27.229-19.246 3.351-33.76 20.226-33.76 40.177 0 22.487 18.294 40.781 40.782 40.781zm-1.717-66.506c.082-.005.161-.024.243-.032 14.67.652 27.738 12.847 27.738 26.208 0 4.142 3.357 7.5 7.5 7.5s7.5-3.358 7.5-7.5c0-17.761-13.431-33.753-30.952-39.23 7.335-8.487 18.134-13.627 29.624-13.627 15.046 0 28.928 8.794 35.363 22.403 1.165 2.462 3.572 4.1 6.29 4.277 7.491.49 14.385 4.23 18.914 10.261 2.356 3.136 8.977 3.55 12.65 2.996 10.546 0 19.125 8.58 19.125 19.125s-8.579 19.125-19.125 19.125h-113.153c-14.216 0-25.781-11.565-25.781-25.781-.001-13.542 10.57-24.842 24.064-25.725z"/><path d="m511.73 502.679-31.06-124.25c-.835-3.338-3.833-5.68-7.273-5.681l-26.441-.011-32.858-65.726c-1.851-3.705-6.357-5.205-10.062-3.355-3.705 1.852-5.207 6.357-3.354 10.062l13.981 27.966h-31.368l-28.869-28.674c-2.647-2.63-6.825-2.914-9.804-.665l-22.495 16.978-17.848-41.67 28.697-47.222 9.461 18.921c1.271 2.541 3.867 4.146 6.708 4.146h26.424l10.497 21.003c1.853 3.705 6.354 5.207 10.063 3.355 3.705-1.852 5.207-6.356 3.355-10.062l-12.57-25.15c-1.271-2.542-3.868-4.147-6.709-4.147h-26.425l-13.457-26.914c-2.868-6.087-9.618-6.087-13.117-.541l-30.183 49.668-34.174-79.786c-1.182-2.758-3.894-4.547-6.895-4.547h-13.226l-12.226-26.693c-1.222-2.667-3.886-4.377-6.819-4.377h-6.765c-5.585-14.902-19.761-22.509-35.102-22.185-6.1-6.695-14.229-11.16-23.122-12.708-9.568-16.668-27.563-27.229-46.958-27.229s-37.39 10.561-46.958 27.229c-19.246 3.351-33.759 20.226-33.759 40.177 0 22.487 18.294 40.781 40.781 40.781h99.542l-45.579 126.665-28.473 14.442c-1.276.638-2.343 1.626-3.077 2.85l-33.06 55.1c-2.131 3.552-.979 8.159 2.572 10.29 3.784 2.029 7.214 1.172 10.29-2.572l31.937-53.228 29.275-14.878c1.684-.864 2.979-2.332 3.625-4.11l25.64-70.5 25.794 13.823c2.212 1.187 4.873 1.187 7.085 0l25.058-13.429 27.284 40.925c1.389 2.083 3.726 3.336 6.229 3.34l41.655.062 44.592 104.108c1.182 2.758 3.894 4.547 6.895 4.547h25.711l9.7 29.162-48.487-9.815c-19.922-4.02-40.486 6.1-57.47 15.786-16.952 8.358-28.032 24.55-29.823 43.057h-28.487v-44.736c13.887-3.379 24.23-15.914 24.23-30.826v-32.541c0-17.496-14.234-31.73-31.73-31.73s-31.73 14.234-31.73 31.73v32.541c0 14.912 10.343 27.447 24.23 30.826v44.736h-63.346v-30.546c12.164-3.305 21.139-14.439 21.139-27.636v-28.389c0-15.792-12.848-28.639-28.639-28.639s-28.639 12.847-28.639 28.639v28.389c0 13.196 8.974 24.331 21.139 27.636v30.546h-106.181l36.495-60.821c2.131-3.552.979-8.159-2.572-10.29-3.552-2.131-8.159-.979-10.29 2.572l-43.31 72.18c-2.271 6.286-.876 11.36 6.431 11.359h319.05c4.143 0 7.5-3.358 7.5-7.5s-3.357-7.5-7.5-7.5h-62.694c1.719-12.74 9.576-23.792 21.359-29.602 13.506-7.845 31.705-17.798 47.867-14.537l61.21 12.39c2.464.411 4.996-.253 6.79-2.046l19.692-19.683c20.725-20.736 58.237-10.048 65.27 18.077l8.85 35.401h-135.665c-4.143 0-7.5 3.358-7.5 7.5s3.357 7.5 7.5 7.5h145.24c4.947.002 8.53-4.581 7.306-9.318zm-315.732-81.243v-32.541c0-9.225 7.505-16.73 16.73-16.73s16.73 7.505 16.73 16.73v32.541c0 9.225-7.505 16.729-16.73 16.729s-16.73-7.504-16.73-16.729zm-75.254 17.38v-28.389c0-7.521 6.118-13.639 13.639-13.639s13.639 6.118 13.639 13.639v28.389c0 7.521-6.119 13.639-13.639 13.639s-13.639-6.118-13.639-13.639zm-74.726-278.223c0-13.458 10.442-24.698 23.816-25.703 15.065.132 28.726 12.573 28.726 26.233 0 4.142 3.358 7.5 7.5 7.5s7.5-3.358 7.5-7.5c0-17.912-13.66-34.026-31.4-39.368 7.334-8.452 18.111-13.568 29.576-13.568 15.046 0 28.927 8.794 35.364 22.403 1.164 2.462 3.572 4.1 6.29 4.277 7.49.49 14.384 4.23 18.914 10.26 2.356 3.136 8.977 3.55 12.651 2.996 10.545 0 19.125 8.58 19.125 19.125s-8.58 19.125-19.125 19.125h-113.156c-14.215.001-25.781-11.565-25.781-25.78zm213.954 134.504-28.839-43.259c-2.143-3.215-6.379-4.276-9.783-2.45l-27.52 14.748-24.206-12.972 17.662-49.878c16.677-1.132 30.101-14.291 31.641-30.855l12.169 26.571c1.222 2.667 3.886 4.377 6.819 4.377h13.093l40.162 93.765zm150.15 137.817-11.128 11.123-11.673-35.095c-1.019-3.065-3.886-5.133-7.116-5.133h-26.175l-25.82-60.283 20.259-15.29 26.449 26.271c1.405 1.396 3.305 2.179 5.285 2.179h41.958l13.45 26.904c1.27 2.54 3.865 4.145 6.705 4.146l25.222.011 9.417 37.671c-21.184-13.328-49.07-10.279-66.833 7.496z"/></g></svg>