<svg id="Capa_1" enable-background="new 0 0 512.061 512.061" height="512" viewBox="0 0 512.061 512.061" width="512" xmlns="http://www.w3.org/2000/svg"><g><g><path d="m133.862 170.702c-12.699 0-23.031-10.332-23.031-23.031s10.332-23.031 23.031-23.031 23.031 10.332 23.031 23.031-10.331 23.031-23.031 23.031zm0-31.063c-4.429 0-8.031 3.603-8.031 8.031s3.603 8.031 8.031 8.031 8.031-3.603 8.031-8.031-3.602-8.031-8.031-8.031z"/></g><path d="m170.228 121.912c-2.929 2.929-7.678 2.929-10.607 0-2.929-2.929-2.929-7.678 0-10.607 2.929-2.929 7.678-2.929 10.607 0 2.929 2.929 2.929 7.678 0 10.607z"/><path d="m201.29 152.974c-2.929 2.929-7.678 2.929-10.607 0-2.929-2.929-2.929-7.678 0-10.607 2.929-2.929 7.678-2.929 10.607 0 2.929 2.929 2.929 7.678 0 10.607z"/><path d="m482.04 418.774h-24.926c2.485-11.433-4.508-23.912-14.891-28.989-24.969-12.2-50.302-21.855-75.871-28.956 6.368-12.712 6.781-25.52 1.238-38.423-10.524-23.202-15.926-46.852-16.085-70.312h57.745c37.962 0 47.612-51.585 26.987-75.845-7.143-8.413-14.446-16.119-21.706-22.905-3.028-2.829-7.773-2.667-10.601.358-2.828 3.026-2.668 7.772.358 10.601 6.84 6.394 13.742 13.679 20.518 21.658 12.342 14.516 9.158 51.132-15.557 51.132h-162.778c-15.803 0-25.338-19.425-23.288-33.071 4.598-30.609 68.022-74.392 102.466-75.473 17.831-.56 35.987 4.961 54.016 16.432 3.495 2.223 8.13 1.194 10.354-2.302 2.224-3.495 1.192-8.13-2.302-10.354-19.456-12.379-39.282-18.691-59.009-18.807-6.732-7.389-13.52-14.219-20.212-20.326-3.059-2.792-7.804-2.575-10.596.484-2.792 3.06-2.575 7.804.484 10.596 3.772 3.442 7.581 7.137 11.398 11.041-36.247 7.067-91.752 49.35-100.271 80.359h-100.37c-26.61-.26-35.605-45.527-19.885-64.033 62.2-73.205 122.513-88.573 184.38-46.982 3.437 2.31 8.097 1.398 10.409-2.04 2.311-3.438 1.397-8.098-2.04-10.408-68.39-45.974-135.672-28.023-204.181 49.719-29.294 33.242-12.794 88.745 31.316 88.745h67.989c-.166 34.534-6.716 69.257-21.958 100.438-7.291 14.921-7.621 33.664-.838 48.901-27.771 7.187-55.732 17.151-83.734 29.861-9.632 4.373-19.444 16.415-15.594 28.899h-24.984c-16.554.002-30.021 13.469-30.021 30.022v8.55c0 4.142 3.357 7.5 7.5 7.5h497.061c4.143 0 7.5-3.358 7.5-7.5v-8.55c0-16.553-13.467-30.02-30.021-30.02zm-145.547-166.68c.159 25.609 6.023 51.344 17.44 76.514 4.121 9.681 3.2 19.117-2.761 28.308-16.823-3.991-33.738-6.882-50.709-8.655-1.9-6.918-1.302-13.719 1.795-20.402 11.019-22.541 16.918-48.714 17.088-75.764h17.147zm-32.158 0c-.168 24.777-5.53 48.673-15.547 69.167-3.918 8.36-5.224 16.925-3.918 25.694-7.017-.45-14.042-.71-21.072-.779 1.932-11.401.503-22.587-4.286-33.559-9.117-20.1-15.534-40.606-19.157-61.129 2.013.395 4.055.608 6.117.608h57.863zm-135.687 65.604c21.882-47.284 22.632-67.784 23.481-107.024h15.93c.701 11.747 6.833 24.793 15.859 32.58 3.33 25.381 10.695 50.784 21.933 75.56 3.919 9.023 4.789 18.192 2.611 27.504-26.114.768-79.209 10.107-79.209 10.107-7.723-10.511-5.062-27.011-.605-38.727zm328.413 132.146h-482.061c.772-7.958 5.712-16.07 15.021-16.07l194.319.13c4.143 0 7.5-3.358 7.5-7.5 0-.022-.003-.043-.003-.065s.003-.043.003-.065c0-4.142-3.357-7.5-7.5-7.5h-151.559c-5.126-.11-4.712-11.027 4.019-15.241 122.501-59.126 268.23-49.878 358.837-.271 7.894 3.43 10.227 15.486 3.703 15.512h-182.31c-4.143 0-7.5 3.358-7.5 7.5 0 .022.003.043.003.065s-.003.043-.003.065c0 4.142 3.357 7.5 7.5 7.5l225.01-.13c9.309 0 15.021 8.036 15.021 16.07z"/><g><path d="m281.161 220.897c-12.699 0-23.031-10.332-23.031-23.031s10.332-23.031 23.031-23.031 23.03 10.332 23.03 23.031-10.331 23.031-23.03 23.031zm0-31.062c-4.429 0-8.031 3.603-8.031 8.031s3.603 8.031 8.031 8.031 8.03-3.603 8.03-8.031-3.602-8.031-8.03-8.031z"/></g><path d="m321.737 164.076c-2.929 2.929-7.678 2.929-10.607 0-2.929-2.929-2.929-7.678 0-10.607 2.929-2.929 7.678-2.929 10.607 0 2.929 2.929 2.929 7.678 0 10.607z"/><path d="m351.133 195.608c-2.929 2.929-7.678 2.929-10.607 0-2.929-2.929-2.929-7.678 0-10.607 2.929-2.929 7.678-2.929 10.607 0 2.928 2.93 2.929 7.678 0 10.607z"/></g></svg>