<svg id="Capa_1" enable-background="new 0 0 511.996 511.996" height="512" viewBox="0 0 511.996 511.996" width="512" xmlns="http://www.w3.org/2000/svg"><path d="m442.371 263.498c4.143 0 7.5-3.358 7.5-7.5s-3.357-7.5-7.5-7.5h-8.033v-16.063h8.033c4.143 0 7.5-3.358 7.5-7.5s-3.357-7.5-7.5-7.5h-8.771c-3.021-15.255-15.066-27.3-30.321-30.32v-8.774c0-4.142-3.357-7.5-7.5-7.5s-7.5 3.358-7.5 7.5v8.763c-16.239 3.982-26.35 14.092-30.333 30.331h-8.761c-4.143 0-7.5 3.358-7.5 7.5s3.357 7.5 7.5 7.5h8.033v47.125h-8.033c-4.143 0-7.5 3.358-7.5 7.5s3.357 7.5 7.5 7.5h8.033v23.768c0 12.881-10.479 23.36-23.359 23.36h-23.771v-16.065h8.034c4.143 0 7.5-3.358 7.5-7.5s-3.357-7.5-7.5-7.5h-8.034v-47.125h8.034c4.143 0 7.5-3.358 7.5-7.5s-3.357-7.5-7.5-7.5h-8.034v-47.125h8.034c4.143 0 7.5-3.358 7.5-7.5s-3.357-7.5-7.5-7.5h-8.034v-23.675c0-4.142-3.357-7.5-7.5-7.5s-7.5 3.358-7.5 7.5v303.235h-16.06s-.022-427.737-.027-427.92c9.532 6.974 16.086 19.886 16.086 31.614v60.39c0 4.142 3.357 7.5 7.5 7.5s7.5-3.358 7.5-7.5v-21.831h8.034c4.143 0 7.5-3.358 7.5-7.5s-3.357-7.5-7.5-7.5h-8.034v-23.558c0-14.244-7.259-30.653-18.043-40.326l7.035-9.605c2.447-3.342 1.723-8.035-1.619-10.482-3.341-2.446-8.035-1.723-10.482 1.619l-7.39 10.09c-5.048-2.451-10.464-4.098-16.091-4.873v-8.551c0-4.142-3.357-7.5-7.5-7.5s-7.5 3.358-7.5 7.5v8.579c-21.004 2.928-38.189 17.944-44.245 37.787l-5.075-5.075c-2.929-2.929-7.678-2.929-10.606 0-2.93 2.929-2.93 7.678-.001 10.607l13.338 13.339v51.514h-8.034c-4.143 0-7.5 3.358-7.5 7.5s3.357 7.5 7.5 7.5h8.034v47.125h-8.034c-4.143 0-7.5 3.358-7.5 7.5s3.357 7.5 7.5 7.5h8.034v16.062h-23.368c-13.102 0-23.76-10.659-23.76-23.76v-23.364h8.031c4.143 0 7.5-3.358 7.5-7.5s-3.357-7.5-7.5-7.5h-8.031v-47.125h8.031c4.143 0 7.5-3.358 7.5-7.5s-3.357-7.5-7.5-7.5h-8.769c-3.02-15.258-15.067-27.304-30.324-30.324v-8.769c0-4.142-3.357-7.5-7.5-7.5s-7.5 3.358-7.5 7.5v8.769c-4.203.832-8.159 2.353-11.754 4.434l-12.05-10.981c-3.06-2.79-7.805-2.57-10.595.492s-2.57 7.805.491 10.595l10.81 9.852c-3.536 4.607-6.059 10.027-7.228 15.932h-8.768c-4.143 0-7.5 3.358-7.5 7.5s3.357 7.5 7.5 7.5h8.03v16.063h-8.03c-4.143 0-7.5 3.358-7.5 7.5s3.357 7.5 7.5 7.5h8.03v47.125h-8.03c-4.143 0-7.5 3.358-7.5 7.5s3.357 7.5 7.5 7.5h8.03c-.923 14.604-.714 33.653 4.186 47.125h-12.215c-4.143 0-7.5 3.358-7.5 7.5s3.357 7.5 7.5 7.5h19.838c5.1 7.604 11.651 14.155 19.255 19.255v19.839c0 4.142 3.357 7.5 7.5 7.5s7.5-3.358 7.5-7.5v-12.217c9.422 3.427 21.154 4.538 31.597 4.186l-.132 7.905c-.069 4.142 3.232 7.555 7.374 7.625.043 0 .085.001.128.001 4.083 0 7.428-3.276 7.496-7.375l.136-8.156h31.591v16.062h-8.034c-4.143 0-7.5 3.358-7.5 7.5s3.357 7.5 7.5 7.5h8.034v47.125h-8.034c-4.143 0-7.5 3.358-7.5 7.5s3.357 7.5 7.5 7.5h8.034v47.125h-8.034c-4.143 0-7.5 3.358-7.5 7.5s3.357 7.5 7.5 7.5h8.034v16.062h-8.035c-18.697 0-34.323 13.378-37.823 31.063h-55.363c-4.143 0-7.5 3.358-7.5 7.5s3.357 7.5 7.5 7.5h310.623c4.143 0 7.5-3.358 7.5-7.5s-3.357-7.5-7.5-7.5h-55.363c-3.501-17.685-19.127-31.063-37.823-31.063h-8.035v-16.062h8.034c4.143 0 7.5-3.358 7.5-7.5s-3.357-7.5-7.5-7.5h-8.034v-16.063h22.75c4.143 0 7.5-3.358 7.5-7.5s-3.357-7.5-7.5-7.5h-22.75v-16.061h38.441c30.188 0 54.749-24.561 54.749-54.749v-108.068c0-4.142-3.357-7.5-7.5-7.5s-7.5 3.358-7.5 7.5v108.062c0 21.917-17.831 39.749-39.749 39.749h-38.441v-16.059h23.771c21.151 0 38.359-17.208 38.359-38.36v-93.39c1.352-14.355 9.205-22.209 23.561-23.56 12.991 0 23.56 10.569 23.56 23.56v124.06c0 29.753-24.191 54.337-53.927 54.801-4.142.064-7.446 3.475-7.382 7.616.063 4.102 3.409 7.383 7.497 7.383 20.994 0 42.608-11.469 55.073-28.212l17.688 11.483c3.762 2.163 7.22 1.427 10.375-2.207 2.255-3.474 1.267-8.119-2.207-10.375l-18.247-11.846c2.987-6.633 4.921-13.721 5.71-21.058l8.363.1h.092c4.1 0 7.448-3.299 7.497-7.41.05-4.142-3.268-7.54-7.409-7.589l-8.123-.098v-15.965h8.033c4.143 0 7.5-3.358 7.5-7.5s-3.357-7.5-7.5-7.5h-8.033v-47.125h8.031zm-240.467-15h-39.03c-21.591 0-39.156-17.565-39.156-39.156v-108.655c0-4.142-3.357-7.5-7.5-7.5s-7.5 3.358-7.5 7.5v108.655c0 29.862 24.294 54.156 54.156 54.156h39.03v16.063h-54.364c-30.264 0-54.885-24.621-54.885-54.885v-123.989c0-12.992 10.57-23.562 23.563-23.562s23.562 10.57 23.562 23.562v92.989c0 21.372 17.388 38.76 38.76 38.76h23.364zm15.004-178.87c0-12.958 6.339-24.457 16.072-31.576-.004.169-.013 229.626-.013 229.626 0 4.142 3.357 7.5 7.5 7.5s7.5-3.358 7.5-7.5v-229.12c0-4.416 3.584-8.01 7.996-8.029 4.442.024 8.064 3.537 8.064 8.029v427.375h-16.061v-165.565c0-4.142-3.357-7.5-7.5-7.5s-7.5 3.358-7.5 7.5v165.565h-16.06v-396.305zm101.215 411.306c10.371 0 19.198 6.736 22.338 16.063h-168.926c3.14-9.327 11.967-16.063 22.338-16.063z"/></svg>