<svg id="Capa_1" enable-background="new 0 0 512 512" height="512" viewBox="0 0 512 512" width="512" xmlns="http://www.w3.org/2000/svg"><g><path d="m504.5 390.55h-28.704c-9.376-19.92-31.112-32.614-53.009-30.921-9-13.616-22.337-23.573-38.032-28.282-3.971-1.193-8.149 1.061-9.339 5.028s1.061 8.149 5.028 9.339c10.465 3.14 19.587 9.27 26.431 17.605-19.97 7.963-34.126 27.482-34.126 50.258 0 4.142 3.358 7.5 7.5 7.5s7.5-3.358 7.5-7.5c0-21.924 18.267-38.593 39.28-39.103 16.46.08 31.185 10.537 36.68 26.076 1.06 2.997 3.893 5 7.071 5h26.22v39.62c0 4.136-3.364 7.5-7.5 7.5h-263.75c-4.142 0-7.5 3.358-7.5 7.5s3.358 7.5 7.5 7.5h263.75c12.407 0 22.5-10.093 22.5-22.5v-47.12c0-4.142-3.358-7.5-7.5-7.5z"/><path d="m195.201 347.505c12.431-21.529 35.711-35.165 60.799-35.165s48.368 13.636 60.799 35.165c-13.337 12.283-19.922 27.016-21.679 48.106-.344 4.128 2.723 7.753 6.851 8.097.212.018.422.026.631.026 3.86 0 7.139-2.962 7.466-6.877 2.043-24.512 16.853-45.787 41.634-51.884 4.022-.989 6.481-5.052 5.491-9.074-.99-4.023-5.051-6.479-9.075-5.491-6.852 1.686-13.311 4.355-19.288 7.965-14.015-23.054-38.43-38.279-65.33-40.688 0 0 .047-7.989.047-8.268 0-16.034 13.044-29.078 29.077-29.078h28.611c36.804 0 66.746-29.942 66.746-66.746v-30.225c0-4.142-3.358-7.5-7.5-7.5h-30.225c-36.804 0-66.746 29.942-66.746 66.746v23.678c-7.564 1.597-14.415 5.142-20.011 10.081v-73.976c14.368-13.056 30.589-28.619 36.241-47.707 1.176-3.972-1.09-8.145-5.062-9.321-3.973-1.177-8.145 1.09-9.321 5.062-3.564 12.037-12.263 22.799-21.858 30.752v-64.338c0-4.142-3.358-7.5-7.5-7.5s-7.5 3.358-7.5 7.5v64.338c-13.759-11.025-24.012-27.548-24.012-45.624 0-21.81 15.938-39.538 31.512-53.123 11.808 10.616 25.413 23.647 29.681 39.404 1.083 3.998 5.203 6.361 9.2 5.279 3.999-1.083 6.362-5.202 5.279-9.2-5.611-20.718-23.494-37.267-38.856-51.393-2.929-2.929-7.678-2.929-10.606 0-20.415 18.267-41.209 39.705-41.209 69.033 0 28.235 19.265 49.114 39.012 66.837v73.894c-5.579-4.895-12.394-8.411-19.917-9.999v-23.678c0-36.804-29.942-66.746-66.746-66.746h-30.226c-4.142 0-7.5 3.358-7.5 7.5v30.225c0 36.804 29.942 66.746 66.746 66.746h28.611c15.49 0 28.188 12.176 29.03 27.46v9.886c-26.898 2.409-51.312 17.633-65.328 40.684-31.249-18.915-73.812-9.126-93.957 21.261-21.685-1.683-43.749 11.239-53.012 30.921h-28.701c-4.142 0-7.5 3.358-7.5 7.5v47.12c0 12.407 10.093 22.5 22.5 22.5h170.56c4.142 0 7.5-3.358 7.5-7.5s-3.358-7.5-7.5-7.5h-170.56c-4.135 0-7.5-3.364-7.5-7.5v-39.62h26.22c3.178 0 6.012-2.003 7.071-5 5.248-14.842 18.917-25.043 34.475-25.999-4.999 19.145-3.794 40.913 6.272 58.313 3.039 3.794 6.455 4.706 10.248 2.737 3.585-2.074 4.811-6.662 2.737-10.248-20.488-35.414 2.705-81.943 45.257-81.943 30.562 0 52.225 24.321 54.653 53.447.327 3.916 3.605 6.877 7.466 6.877.208 0 .419-.009.631-.026 4.128-.344 7.195-3.969 6.851-8.097-1.758-21.09-8.343-35.823-21.68-48.106zm155.056-176.637h22.725v22.725c0 34.741-31.993 55.089-63.865 51.746l45.069-45.069c2.929-2.929 2.929-7.678 0-10.606-2.929-2.929-7.678-2.929-10.606 0l-45.069 45.069c-3.343-31.873 17.005-63.865 51.746-63.865zm-211.145 22.725v-22.725h22.726c34.741 0 55.088 31.993 51.746 63.864l-45.069-45.069c-2.929-2.929-7.678-2.929-10.606 0-2.929 2.929-2.929 7.678 0 10.606l45.069 45.069c-31.873 3.343-63.866-17.004-63.866-51.745z"/></g></svg>