<svg id="Capa_1" enable-background="new 0 0 512 512" height="512" viewBox="0 0 512 512" width="512" xmlns="http://www.w3.org/2000/svg"><g><path d="m7.604 247.555c4.14 0 7.495-3.356 7.495-7.495v-42.324c0-20.886 18.259-39.114 39.077-39.146 20.771 0 39.064 18.033 39.064 39.006v55.675c4.141 103.886 80.427 140.863 182.933 131.699 11.757 14.535 39.864 32.899 66.691 30.671 3.859-.32 7.155-2.981 7.464-6.907.325-4.127-2.757-7.735-6.884-8.061-40.788-3.213-77.892-37.364-88.224-81.201-10.878-46.211 13.532-93.643 54.412-105.734 33.62-9.936 64.986 16.413 72.409 47.948 6.647 28.205-8.138 57.126-32.956 64.467-20.137 5.953-38.473-9.688-42.947-28.73-3.933-16.684 4.691-33.75 19.223-38.043 3.97-1.173 6.237-5.342 5.065-9.312-1.173-3.97-5.341-6.232-9.312-5.065-22.03 6.509-35.294 31.567-29.568 55.854 6.308 26.85 33.666 47.983 61.79 39.672 32.313-9.559 51.735-46.47 43.296-82.28-9.47-40.227-49.083-71.352-91.251-58.887-48.373 14.307-77.421 69.729-64.752 123.546 4 16.972 11.69 33.137 22.205 47.071-50.392 0-98.365-2.4-131.648-47.206-.643-19.038.726-37.612 3.93-55.41 12.901 22.03 31.754 37.472 56.278 46.026 3.818 1.249 7-.287 9.546-4.608 1.363-3.909-.7-8.182-4.608-9.546-26.729-9.324-45.02-27.393-55.851-55.189 4.704-16.722 11.086-32.563 18.957-47.241 9.42 19.322 24.075 34.647 43.755 45.661 3.797 1.914 7.197.954 10.201-2.881 2.022-3.612.732-8.18-2.881-10.201-20.292-11.356-33.926-27.285-41.598-48.596 13.31-20.428 29.757-38.039 48.744-51.89 6.282 17.81 17.667 32.571 33.994 43.958 3.734 2.285 7.212 1.665 10.435-1.86 2.368-3.395 1.536-8.068-1.86-10.435-14.975-10.445-24.694-23.668-29.622-40.279 24.054-14.545 51.668-23.664 79.932-23.679v54.494c0 4.14 3.356 7.495 7.495 7.495s7.495-3.356 7.495-7.495v-53.687c26.104 2.823 51.363 13.004 73.236 29.779-3.526 11.731-11.147 21.992-23.205 31.244-3.284 2.52-3.904 7.225-1.384 10.509 3.313 3.377 6.816 3.838 10.509 1.384 12.438-9.543 21.228-20.531 26.272-32.769 3.879 3.65 7.623 7.525 11.207 11.631 2.723 3.119 7.458 3.44 10.576.718 3.119-2.722 3.44-7.457.718-10.576-41.003-46.975-106.119-69.253-166.484-51.399-91.04 26.92-144.625 117.736-150.381 208.779-5.5-13.707-8.365-28.4-8.365-43.439v-55.675c0-19.443-12.382-39.508-29.741-48.256l12.811-52.337c9.731-2.681 16.901-11.604 16.901-22.176 0-12.685-10.319-23.004-23.004-23.004s-22.999 10.319-22.999 23.004c0 9.463 5.744 17.606 13.928 21.134l-11.888 48.568c-6.699-1.247-13.429-1.238-20.125.022l-11.892-48.583c8.183-3.532 13.926-11.678 13.926-21.142 0-12.691-10.325-23.017-23.017-23.017s-23.017 10.326-23.017 23.018c0 10.585 7.185 19.519 16.932 22.195l12.817 52.365c-17.374 8.782-29.751 28.878-29.751 48.349v42.324c0 4.139 3.356 7.495 7.496 7.495zm77.595-180.742c4.419 0 8.013 3.594 8.013 8.013s-3.594 8.013-8.013 8.013-8.013-3.594-8.013-8.013 3.594-8.013 8.013-8.013zm-62.072-.012c4.425 0 8.026 3.6 8.026 8.026s-3.601 8.026-8.026 8.026-8.026-3.601-8.026-8.026 3.601-8.026 8.026-8.026z"/><path d="m510.332 426.307c-20.54-27.899-43.324-45.077-70.998-53.363 51.785-56.799 52.065-142.034 14.072-206.009-2.113-3.558-6.713-4.73-10.272-2.618-3.559 2.114-4.731 6.713-2.618 10.272 3.672 6.183 6.977 12.612 9.912 19.256-12.584 9.41-25.195 13.303-38.468 11.885-4.113-.433-7.809 2.541-8.248 6.658s2.541 7.809 6.658 8.248c15.639 1.671 32.946-3.752 45.701-12.425 5.349 15.444 8.845 31.892 9.529 48.258-10.415 8.538-23.007 12.188-38.396 11.126-4.125-.294-7.709 2.83-7.994 6.961-.286 4.129 2.831 7.709 6.961 7.994 13.054.904 27.638-1.541 39.123-7.845-1.117 14.746-4.318 29.052-9.351 42.426-14.036 10.254-28.442 14.444-43.971 12.759-4.11-.443-7.813 2.53-8.259 6.645-.446 4.116 2.53 7.813 6.645 8.259 11.438 1.238 23.803-.406 34.505-4.54-16.161 27.264-40.871 48.24-71.193 57.205-3.534 1.068-6.477 4.919-5.252 9.65 1.232 4.757 5.997 5.808 9.564 4.708 17.965-5.322 34.448-14.407 48.753-26.653 23.922 5.276 43.922 17.512 61.958 38.092h-37.405c-7.86 0-15.247 3.058-20.8 8.611l-9.128 9.127c-6.818 5.648-13.631 5.633-20.438-.043-11.377-11.378-30.28-11.333-41.64.04-5.571 5.571-14.604 5.627-20.245.164-.064-.069-.129-.138-.196-.204-11.471-11.47-30.138-11.471-41.654.043-6.816 5.647-13.628 5.633-20.435-.04-11.373-11.385-30.285-11.335-41.644.037-6.82 5.65-13.634 5.637-20.441-.04-11.345-11.346-30.269-11.368-41.611 0-5.644 5.643-14.797 5.638-20.427-.026l-9.255-9.305c-5.059-5.086-11.856-8.147-19.14-8.619-70.107-4.549-111.925-87.512-109.138-150.273 0-4.14-3.356-7.495-7.495-7.495s-7.495 3.356-7.495 7.495c-2.672 71.318 44.186 160.108 123.159 165.232 3.634.236 7.002 1.739 9.482 4.232l9.253 9.303c11.248 11.314 30.385 11.327 41.662.05 6.821-5.647 13.635-5.633 20.442.043 11.378 11.392 30.281 11.325 41.647-.04 6.818-5.647 13.631-5.633 20.437.043 11.377 11.377 30.281 11.334 41.641-.04 5.572-5.571 14.603-5.624 20.244-.165.064.07.13.138.197.205 11.473 11.473 30.139 11.471 41.654-.043 6.817-5.647 13.63-5.633 20.437.043 11.347 11.347 30.256 11.358 41.601 0l9.125-9.124c2.682-2.682 6.4-4.221 10.2-4.221h53.007c8.747.11 8.921-5.484 6.038-11.939z"/><path d="m38.648 205.688c-4.14 0-7.495 3.356-7.495 7.495s3.356 7.495 7.495 7.495h31.044c4.14 0 7.495-3.356 7.495-7.495s-3.356-7.495-7.495-7.495z"/></g></svg>