<svg id="Capa_1" enable-background="new 0 0 511.998 511.998" height="512" viewBox="0 0 511.998 511.998" width="512" xmlns="http://www.w3.org/2000/svg"><g><path d="m324.351 478.736c-2.929 2.929-7.678 2.929-10.607 0-2.929-2.929-2.929-7.678 0-10.607 2.929-2.929 7.678-2.929 10.607 0 2.929 2.929 2.929 7.678 0 10.607z"/><path d="m261.303 447.662c-2.929 2.929-7.678 2.929-10.607 0-2.929-2.929-2.929-7.678 0-10.607 2.929-2.929 7.678-2.929 10.607 0 2.929 2.929 2.929 7.678 0 10.607z"/><path d="m276.303 416.613c-2.929 2.929-7.678 2.929-10.607 0-2.929-2.929-2.929-7.678 0-10.607 2.929-2.929 7.678-2.929 10.607 0 2.929 2.929 2.929 7.678 0 10.607z"/><g><path d="m505.283 248.539c-32.491-3.421-55.111 6.771-67.338 30.308-19.172-2.252-34.67 1.275-46.377 10.514l-15.244-35.595c-1.631-3.807-6.037-5.573-9.848-3.942-3.808 1.631-5.572 6.04-3.941 9.847l17.916 41.832c-1.541 2.29-2.975 4.738-4.29 7.363-24.613-6.913-38.567 3.769-46.387 16.318-17.845-2.977-32.811 1.94-44.623 14.638l-54.316-27.432-44.186-72.682 24.156-66.421 26.387 12.962c2.169 1.066 4.719 1.021 6.85-.121l25.058-13.429 27.284 40.926c1.389 2.083 3.726 3.336 6.229 3.34l41.658.061 5.395 12.595c2.739 4.141 6.022 5.455 9.848 3.941 3.808-1.631 5.572-6.04 3.941-9.847l-22.781-53.183h100.591c22.486 0 40.78-18.294 40.78-40.781 0-19.951-14.514-36.826-33.76-40.177-9.569-16.668-27.564-27.229-46.958-27.229-19.395 0-37.391 10.561-46.959 27.229-8.892 1.548-17.021 6.013-23.122 12.708-6.26-.239-12.356.947-18.286 3.559l-3.446-8.045c-1.182-2.759-3.894-4.547-6.895-4.547h-13.225l-12.214-26.683c-1.222-2.667-3.886-4.378-6.819-4.378h-29.861c-3.154 0-5.971 1.973-7.048 4.937l-59.623 163.946-39.072-13.236c-1.886-.64-3.949-.501-5.735.382l-18.94 9.38c-3.712 1.838-5.23 6.337-3.393 10.049 1.838 3.711 6.336 5.23 10.05 3.393l16.152-8 40.488 13.716 45.752 75.258c.728 1.197 1.777 2.167 3.028 2.799l45.039 22.746-35.031 10.992c-16.193 5.077-23.478 27.036-11.962 40.645l-54.211-25.409c-.996-.467-2.083-.709-3.183-.709h-59.036l-28.858-28.561c-1.388-1.374-3.258-2.152-5.211-2.169l-31.08-.27c-2.013-.058-3.915.761-5.334 2.163l-18.292 18.062v-125.233l51.276 25.637c2.102 1.051 4.574 1.056 6.68.014l14.49-7.17c3.712-1.837 5.233-6.336 3.396-10.048s-6.335-5.233-10.048-3.396l-11.146 5.516-58.795-29.393c-6.111-1.797-9.728.44-10.852 6.709l.002 279.558c0 4.142 3.358 7.5 7.5 7.5l235.288.002c4.142 0 7.5-3.358 7.5-7.5s-3.358-7.5-7.5-7.5h-88.398l83.493-62.131c14.65-10.891 12.557-34.367-3.079-42.827-7.864-7.208-7.248-13.6 1.85-19.176l39.544-12.409c-1.493 16.774 8.955 34.354 24.307 41.142l62.989 27.86c16.49 7.296 20.636 29.445 7.887 42.202l-25.302 25.339h-70.612c-4.143 0-7.5 3.358-7.5 7.5s3.357 7.5 7.5 7.5l229.028-.002c4.143 0 7.5-3.358 7.5-7.5v-248.498c0-3.838-2.897-7.057-6.715-7.459zm-170.52-131.257c2.358 0 4.58-1.109 5.996-2.995 4.531-6.031 11.425-9.771 18.915-10.261 2.718-.178 5.125-1.815 6.29-4.277 6.436-13.609 20.317-22.403 35.363-22.403 11.464 0 22.242 5.116 29.575 13.568-17.74 5.342-31.4 21.456-31.4 39.368 0 4.142 3.357 7.5 7.5 7.5s7.5-3.358 7.5-7.5c0-13.66 13.66-26.1 28.726-26.233 13.375 1.005 23.816 12.244 23.816 25.703 0 14.216-11.565 25.781-25.78 25.781h-113.155c-10.546 0-19.125-8.58-19.125-19.125s8.579-19.125 19.125-19.125h6.654zm-89.01-40.094h19.792l12.216 26.682c1.222 2.667 3.886 4.378 6.819 4.378h13.094l3.242 7.572c-4.346 5.727-6.932 12.86-6.932 20.587 0 17.514 13.265 31.982 30.275 33.902l13.582 31.708-31.2-.046-28.84-43.26c-2.143-3.215-6.377-4.277-9.783-2.45l-27.668 14.828-24.388-11.981zm-116.485 419.808h-114.266v-113.615l26.61-26.276 24.917.216 28.885 28.587c1.404 1.39 3.3 2.169 5.276 2.169h60.45l69.836 32.733c-.58.75-101.708 76.186-101.708 76.186zm164.203-143.814c5.862-12.184 21.96-16.367 38.359-12.253 3.439.862 7.01-.799 8.564-3.983 7.407-15.167 18.873-18.812 37.177-11.817 3.847 1.469 8.154-.434 9.659-4.265 8.93-22.742 26.054-31.133 53.888-26.409 3.422.585 6.815-1.273 8.167-4.482 8.147-19.343 23.399-28.028 47.713-27.016v78.822l-23.657.298c-1.434.018-2.832.447-4.029 1.235l-44.716 29.435h-44.347c-1.354 0-2.682.366-3.844 1.06l-43.261 25.824-26.571-11.752c-8.24-4.548-20.891-18.508-13.102-34.697zm73.81 143.814 14.715-14.736c20.054-20.066 13.508-55.045-12.431-66.521l-19.61-8.674 32.363-19.319h44.525c1.466 0 2.899-.43 4.124-1.235l44.759-29.463 21.272-.268v140.216z"/><path d="m218.04 473.432c0 4.142 3.358 7.5 7.5 7.5h61.455c4.143 0 7.5-3.358 7.5-7.5s-3.357-7.5-7.5-7.5h-61.455c-4.142 0-7.5 3.358-7.5 7.5z"/><path d="m333.655 449.872c4.143 0 7.5-3.358 7.5-7.5s-3.357-7.5-7.5-7.5h-46.66c-4.143 0-7.5 3.358-7.5 7.5s3.357 7.5 7.5 7.5z"/><path d="m85.158 123.718c21.263 0 38.562-17.299 38.562-38.562 0-21.264-17.299-38.563-38.562-38.563-21.264 0-38.563 17.299-38.563 38.563 0 21.263 17.299 38.562 38.563 38.562zm0-62.125c12.992 0 23.562 10.57 23.562 23.563s-10.57 23.562-23.562 23.562-23.563-10.57-23.563-23.562 10.571-23.563 23.563-23.563z"/><path d="m85.158 30.531c4.142 0 7.5-3.358 7.5-7.5v-15.531c0-4.142-3.358-7.5-7.5-7.5s-7.5 3.358-7.5 7.5v15.531c0 4.142 3.358 7.5 7.5 7.5z"/><path d="m77.658 147.28v15.512c0 4.142 3.358 7.5 7.5 7.5s7.5-3.358 7.5-7.5v-15.512c0-4.142-3.358-7.5-7.5-7.5s-7.5 3.358-7.5 7.5z"/><path d="m35.933 46.527c3.535 2.929 7.071 2.929 10.606 0 2.929-2.929 2.929-7.678 0-10.606l-10.982-10.982c-2.929-2.93-7.678-2.929-10.606 0-2.929 2.929-2.929 7.678 0 10.606z"/><path d="m134.396 123.778c-2.929-2.929-7.678-2.929-10.606 0-2.929 2.929-2.929 7.678 0 10.606l10.969 10.969c3.535 2.929 7.071 2.929 10.606 0 2.929-2.929 2.929-7.678 0-10.606z"/><path d="m7.512 92.646h15.531c4.142 0 7.5-3.358 7.5-7.5s-3.358-7.5-7.5-7.5h-15.531c-4.142 0-7.5 3.358-7.5 7.5s3.358 7.5 7.5 7.5z"/><path d="m139.792 85.146c0 4.142 3.358 7.5 7.5 7.5h15.512c4.142 0 7.5-3.358 7.5-7.5s-3.358-7.5-7.5-7.5h-15.512c-4.143 0-7.5 3.358-7.5 7.5z"/><path d="m35.933 123.765-10.983 10.982c-2.929 2.929-2.929 7.678 0 10.606 3.535 2.929 7.071 2.929 10.606 0l10.982-10.982c2.929-2.929 2.929-7.678 0-10.606-2.928-2.929-7.677-2.929-10.605 0z"/><path d="m134.396 46.514 10.969-10.968c2.929-2.929 2.929-7.677 0-10.606-2.928-2.929-7.677-2.929-10.606 0l-10.969 10.967c-2.929 2.929-3.009 7.76 0 10.606 3.022 2.86 8.335 2.61 10.606.001z"/></g></g></svg>