<svg id="Capa_1" enable-background="new 0 0 512 512" height="512" viewBox="0 0 512 512" width="512" xmlns="http://www.w3.org/2000/svg"><path d="m491.483 171.421-40.135-15.421c-5.03-1.927-11.862-2.584-16.767-1.683l-39.813 6.675c-4.082.685-6.837 4.549-6.152 8.631.684 4.081 4.54 6.835 8.631 6.153l37.675-6.318-32.933 46.624-92.101-22.112c-.13-1.168-.303-2.323-.506-3.467l55.646-9.331c4.082-.685 6.837-4.549 6.152-8.631-.684-4.082-4.541-6.84-8.631-6.153l-57.891 9.708c-1.834-3.711-4.075-7.184-6.676-10.355 2.157-4.542 3.557-9.399 4.148-14.4l18.55-6.354c3.03-1.038 5.066-3.887 5.066-7.09v-10.766l26.88-13.343c3.708-1.84 5.221-6.338 3.381-10.046s-6.339-5.221-10.046-3.381l-31.041 15.409c-2.549 1.266-4.162 3.867-4.162 6.713v10.058l-9.421 3.227c-2.865-12.816-11.055-23.637-22.122-30.019.589-21.031 17.868-37.962 39.039-37.962 4.14 0 7.495-3.356 7.495-7.495s-3.355-7.495-7.495-7.495c-27.609 0-50.435 20.81-53.653 47.566-5.618-1.044-11.236-1.044-16.854-.001-3.219-26.755-26.045-47.565-53.654-47.565-4.14 0-7.495 3.356-7.495 7.495s3.355 7.495 7.495 7.495c21.171 0 38.449 16.929 39.04 37.959-11.07 6.381-19.262 17.204-22.127 30.022l-9.421-3.227v-10.058c0-2.847-1.613-5.448-4.162-6.713l-31.042-15.409c-3.71-1.842-8.206-.326-10.046 3.381-1.841 3.707-.327 8.205 3.381 10.046l26.88 13.343v10.766c0 3.203 2.036 6.053 5.066 7.09l18.55 6.354c.591 5.001 1.992 9.858 4.148 14.4-2.613 3.186-4.864 6.678-6.703 10.408l-54.307-9.101c-4.083-.683-7.946 2.071-8.63 6.153-.684 4.083 2.07 7.947 6.153 8.631l52.077 8.727c-.194 1.099-.359 2.207-.485 3.327l-92.45 22.196-32.933-46.624 41.573 6.967c4.083.687 7.946-2.071 8.63-6.153.684-4.083-2.07-7.947-6.153-8.631l-43.7-7.323c-5.011-.902-11.755-.244-16.778 1.683l-40.135 15.42c-12.274 4.718-20.519 16.718-20.519 29.862.384 12.155 5.757 21.413 16.117 27.774l84.358 48.21c10.429 5.504 20.878 5.577 31.344.221l81.278-44.907c4.258 5.608 9.585 10.358 15.673 13.954-5.632 3.326-10.609 7.641-14.694 12.708l-37.64 11.156c-2.749.815-4.793 3.126-5.264 5.954l-15.521 93.125c-.68 4.083 2.079 7.944 6.161 8.625 3.728.604 6.603-1.45 8.626-6.161l14.75-88.503 19.155-5.677c-1.444 4.867-2.231 10.014-2.231 15.344v73.968c0 31.799 14.247 57.852 33.366 82.111 9.847 13.27 30.574 13.377 40.556.204 19.482-24.254 34.194-50.78 34.194-82.901v-73.383c0-5.33-.788-10.476-2.231-15.344l19.155 5.677 14.75 88.503c2.023 4.711 4.898 6.765 8.626 6.161 4.082-.681 6.841-4.542 6.161-8.625l-15.521-93.125c-.471-2.828-2.515-5.139-5.264-5.954l-37.64-11.156c-4.085-5.068-9.063-9.382-14.694-12.708 6.041-3.567 11.33-8.272 15.57-13.823l81.047 44.774c10.466 5.36 20.913 5.286 31.342-.22l84.35-48.206c10.364-6.362 15.738-15.621 16.121-27.776 0-13.144-8.245-25.144-20.517-29.862zm-205.371-16.44c-6.606-4.412-14.235-7.402-22.448-8.546v-30.951c17.231 4.251 27.554 22.653 22.448 39.497zm-37.437-39.497v30.951c-8.213 1.145-15.841 4.134-22.448 8.546-5.105-16.844 5.218-35.246 22.448-39.497zm-222.783 69.93 34.69-13.328 33.738 47.764-45.138 10.837-25.622-14.643c-10.979-6.85-10.229-25.464 2.332-30.63zm98.678 78.953c-5.156 2.85-11.54 2.805-16.66-.118l-39.731-22.706 134.738-32.349c.617 3.566 1.582 7.011 2.863 10.303zm92.532 98.319h22.918c4.14 0 7.495-3.356 7.495-7.495s-3.355-7.495-7.495-7.495h-22.918v-15.16h78.136v15.16h-22.549c-4.14 0-7.495 3.356-7.495 7.495s3.355 7.495 7.495 7.495h22.549c.148 10.567-1.065 21.442-4.082 31.569h-70.143c-3.458-7.917-3.911-20.797-3.911-31.569zm78.136-45.14h-78.136v-16.946h78.136zm-31.152 122.788c-5.552 5.496-11.076 5.468-16.572-.084 0 0-15.162-16.825-20.769-31.006h58.568c-6.492 15.514-21.227 31.09-21.227 31.09zm30.422-154.724h-76.677c3.506-17.967 19.36-31.572 38.339-31.572 18.978 0 34.832 13.604 38.338 31.572zm-38.338-46.582c-21.542 0-39.068-17.525-39.068-39.067s17.525-39.068 39.068-39.068c21.542 0 39.068 17.526 39.068 39.068s-17.526 39.067-39.068 39.067zm147.925 25.219c-5.124 2.924-11.504 2.971-16.655.119l-80.941-44.715c1.301-3.314 2.283-6.785 2.91-10.378l134.413 32.271zm84.349-48.206-25.627 14.646-45.137-10.837 33.738-47.764 34.687 13.328c12.154 4.041 15.652 22.529 2.339 30.627z"/></svg>