<svg id="Capa_1" enable-background="new 0 0 512.021 512.021" height="512" viewBox="0 0 512.021 512.021" width="512" xmlns="http://www.w3.org/2000/svg"><g><path d="m366.391 75.671c.476 0 .959-.045 1.443-.14l91.872-17.915c4.065-.793 6.719-4.731 5.926-8.797-.793-4.065-4.727-6.718-8.797-5.926l-91.872 17.915c-4.065.793-6.719 4.731-5.926 8.797.698 3.581 3.837 6.066 7.354 6.066z"/><path d="m459.741 109.932-91.802-18.36c-4.062-.811-8.013 1.822-8.825 5.884s1.822 8.013 5.884 8.825l91.802 18.36c.496.099.991.147 1.479.147 3.502 0 6.634-2.465 7.347-6.031.812-4.062-1.823-8.013-5.885-8.825z"/><path d="m55.7 57.616 91.872 17.915c.485.095.968.14 1.443.14 3.517 0 6.655-2.485 7.354-6.066.793-4.066-1.86-8.004-5.926-8.797l-91.872-17.914c-4.074-.792-8.004 1.861-8.797 5.926s1.861 8.003 5.926 8.796z"/><path d="m57.128 124.788c.487 0 .982-.048 1.479-.147l91.802-18.36c4.062-.813 6.696-4.764 5.884-8.825s-4.763-6.694-8.825-5.884l-91.802 18.36c-4.062.813-6.696 4.764-5.884 8.825.712 3.565 3.844 6.031 7.346 6.031z"/><path d="m504.511 432.521c-15.069 0-23.101 6.463-29.555 11.657-5.792 4.661-10.367 8.343-20.15 8.343-9.784 0-14.359-3.682-20.151-8.343-6.454-5.193-14.485-11.657-29.555-11.657-8.182 0-14.279 1.912-19.186 4.486v-31.661c0-4.142-3.357-7.5-7.5-7.5h-39.187l-2.675-23.988c-.459-4.116-4.16-7.084-8.285-6.623-4.117.459-7.082 4.168-6.623 8.285l2.49 22.326h-37.673v-30.752c0-16.791-13.66-30.45-30.45-30.45s-30.45 13.66-30.45 30.45v30.752h-37.674l8.555-76.844h119.139l2.506 22.51c.458 4.117 4.173 7.081 8.284 6.624 4.116-.458 7.082-4.167 6.624-8.284l-13.455-120.848c-.005-.053-.012-.106-.018-.159l-3.393-30.473c-.002-.026-.006-.051-.009-.076l-3.4-30.531c-.002-.026-.006-.052-.009-.078l-2.481-22.283h6.981c4.143 0 7.5-3.358 7.5-7.5v-30.602c0-4.142-3.357-7.5-7.5-7.5h-23.101v-15.601h23.101c4.143 0 7.5-3.358 7.5-7.5s-3.357-7.5-7.5-7.5h-8.337c-3.313-23.453-21.911-42.051-45.364-45.364v-8.337c0-4.142-3.357-7.5-7.5-7.5s-7.5 3.358-7.5 7.5v8.338c-23.453 3.312-42.052 21.91-45.364 45.364h-8.337c-4.143 0-7.5 3.358-7.5 7.5s3.357 7.5 7.5 7.5h23.101v15.601h-23.1c-4.143 0-7.5 3.358-7.5 7.5v30.601c0 4.142 3.357 7.5 7.5 7.5h6.981l-2.48 22.275c-.003.031-.007.061-.01.092l-3.397 30.509c-.004.035-.008.069-.011.104l-3.389 30.437c-.008.067-.016.133-.022.2l-10.21 91.704c-.001.006-.001.011-.002.017l-9.475 85.104h-39.186c-4.143 0-7.5 3.358-7.5 7.5v31.668c-4.909-2.577-11.009-4.492-19.199-4.492-15.068 0-23.099 6.464-29.552 11.657-5.792 4.661-10.366 8.343-20.147 8.343s-14.355-3.682-20.146-8.342c-6.452-5.194-14.483-11.658-29.552-11.658-4.143 0-7.5 3.358-7.5 7.5v64.5c0 4.142 3.357 7.5 7.5 7.5h497c4.143 0 7.5-3.358 7.5-7.5v-64.5c-.002-4.143-3.36-7.501-7.502-7.501zm-263.95-65.427c0-8.519 6.931-15.45 15.45-15.45s15.45 6.931 15.45 15.45v30.751h-30.9zm38.55-275.292h-15.601v-15.601h15.601zm-23.1-61.502c18.609 0 34.169 13.304 37.666 30.901h-75.332c3.497-17.597 19.056-30.901 37.666-30.901zm-7.5 45.901v15.601h-15.601v-15.601zm-46.201 30.601h107.402v15.601h-107.402zm37.771 107.405h-31.749l1.737-15.599h91.884l1.737 15.599h-31.405c-4.143 0-7.5 3.358-7.5 7.5s3.357 7.5 7.5 7.5h33.075l1.737 15.598h-102.171l1.737-15.598h33.419c4.143 0 7.5-3.358 7.5-7.5s-3.358-7.5-7.501-7.5zm60.202-30.599h-88.544l1.738-15.608h85.068zm8.484 76.197 1.737 15.599h-108.985l1.737-15.599zm-93.62-106.805 1.677-15.066h78.373l1.678 15.066zm-17.035 153.001 1.737-15.598h112.325l1.737 15.598zm172.802 106.845v34.893c-4.067 2.842-8.42 4.782-15.513 4.782-9.781 0-14.355-3.682-20.147-8.343-6.453-5.193-14.484-11.657-29.553-11.657-15.067 0-23.099 6.463-29.551 11.657-5.792 4.661-10.366 8.343-20.147 8.343-9.78 0-14.354-3.682-20.146-8.342-6.452-5.194-14.483-11.658-29.551-11.658s-23.1 6.464-29.553 11.657c-5.792 4.661-10.366 8.343-20.147 8.343-7.085 0-11.437-1.937-15.499-4.773v-34.903h229.807zm126.097 84.175h-482v-48.598c5.104 1.37 8.574 4.163 12.647 7.441 6.452 5.194 14.483 11.657 29.551 11.657s23.099-6.464 29.552-11.657c5.792-4.661 10.366-8.343 20.147-8.343s14.355 3.682 20.147 8.343c8.882 7.153 17.623 11.657 29.551 11.657 15.068 0 23.099-6.463 29.552-11.657 5.792-4.661 10.366-8.343 20.148-8.343 9.781 0 14.355 3.682 20.146 8.343 6.452 5.193 14.482 11.657 29.55 11.657s23.1-6.464 29.552-11.658c5.791-4.661 10.365-8.342 20.146-8.342 9.782 0 14.356 3.682 20.148 8.343 6.453 5.194 14.483 11.657 29.552 11.657 11.621 0 20.888-4.688 29.552-11.658 5.791-4.661 10.365-8.342 20.146-8.342 9.783 0 14.358 3.682 20.15 8.343 6.454 5.194 14.485 11.657 29.556 11.657 15.069 0 23.101-6.463 29.555-11.657 4.073-3.278 7.546-6.072 12.65-7.441v48.598z"/></g></svg>