<svg id="Capa_1" enable-background="new 0 0 512 512" height="512" viewBox="0 0 512 512" width="512" xmlns="http://www.w3.org/2000/svg"><path d="m512 85.2c0-29.8-24.3-54.1-54.1-54.1s-54.1 24.3-54.1 54.1v95.5c-14.3-10.2-40.5-12.6-55.4-2-13.3-21-40.1-30.5-63.6-22.3-26.2-43.9-91.4-44.8-118.7-1.6-15.1 3.5-27.9 13.3-35.3 26.9-8.1-1.8-15.6-1-22.6 2.4v-42.4c0-4.1-3.4-7.5-7.5-7.5s-7.5 3.4-7.5 7.5v67.8c0 19-13.6 34.8-31.6 38.3v-35.3l13.3-13.3c2.9-2.9 2.9-7.7 0-10.6s-7.7-2.9-10.6 0l-2.7 2.7v-72l13.3-13.3c2.9-2.9 2.9-7.7 0-10.6s-7.7-2.9-10.6 0l-2.7 2.7v-28.5c0-4.1-3.4-7.5-7.5-7.5s-7.5 3.4-7.5 7.5v75.1l-2.7-2.7c-2.9-2.9-7.7-2.9-10.6 0s-2.9 7.7 0 10.6l13.3 13.3v81.9c-18-3.5-31.6-19.3-31.6-38.3v-.1-124.2c0-21.6 17.5-39.1 39.1-39.1 21.3 0 39.1 17.8 39.1 39.1v23.7c0 4.1 3.4 7.5 7.5 7.5s7.5-3.4 7.5-7.5v-23.7c0-29.5-24.6-54.1-54.1-54.1-29.8 0-54.1 24.2-54.1 54.1v373.3c0 12.4 10.1 22.5 22.5 22.5h124.1c4.1 0 7.5-3.4 7.5-7.5s-3.4-7.5-7.5-7.5h-124.1c-4.1 0-7.5-3.4-7.5-7.5v-39.6h482v39.6c0 4.1-3.4 7.5-7.5 7.5h-310.2c-4.1 0-7.5 3.4-7.5 7.5s3.4 7.5 7.5 7.5h310.2c12.4 0 22.5-10.1 22.5-22.5zm-465.4 318.6h-31.6v-157.1c8.2 8.6 19.2 14.5 31.6 16.2zm108.7 0h-16.1v-31.6h16.1zm186.4 0h-171.4v-31.6h171.4zm31.1 0h-16.1v-31.6h16.1zm-264.6-46.6v-16.1h295.6v16.1zm31-31.1v-16.1h16.1v16.1zm31.1 0v-16.1h171.4v16.1zm186.4 0v-16.1h16.1v16.1zm93.7 77.7h-62.7v-31.6h23.6c4.1 0 7.5-3.4 7.5-7.5v-31.1c0-4.1-3.4-7.5-7.5-7.5h-23.6v-16.1h23.6c4.1 0 7.5-3.4 7.5-7.5v-46.5c0-4.1-3.4-7.5-7.5-7.5h-23.6v-23.6c0-4.1-3.4-7.5-7.5-7.5h-31.1c-4.1 0-7.5 3.4-7.5 7.5v23.6h-22.9c-4.1 0-7.5 3.4-7.5 7.5s3.4 7.5 7.5 7.5h85.1v31.6h-295.6v-31.6h177.9c4.1 0 7.5-3.4 7.5-7.5s-3.4-7.5-7.5-7.5h-115.8v-23.6c0-4.1-3.4-7.5-7.5-7.5h-31.1c-4.1 0-7.5 3.4-7.5 7.5v23.6h-23.6c-4.1 0-7.5 3.4-7.5 7.5v46.6c0 4.1 3.4 7.5 7.5 7.5h23.6v16.1h-23.6c-4.1 0-7.5 3.4-7.5 7.5v31.1c0 4.1 3.4 7.5 7.5 7.5h23.6v31.6h-62.6v-140.9c26.3-3.7 46.6-26.3 46.6-53.6 1.9-8.4 10.7-18.7 20.3-12.7 5.1 4.4 9.4 3.6 12.9-2.2 4.7-13.5 16.4-23.3 30.6-25.6 2.2-.4 4.2-1.7 5.3-3.7 21.6-38.4 79-35.6 97.3 3.9 2.4 4.1 5.8 5.3 10.2 3.5 20.9-10.7 47-.1 54.7 21.9 4.4 6.5 9 6.7 13.9.6 3-6.8 16.3-10.2 29-7.5 5 1.1 21.4 5.8 21.4 21.8 0 27.3 20.3 49.9 46.6 53.6zm-77.6-171.4v16.1h-16.1v-16.1zm-233.6 16.1v-16.1h16.1v16.1zm318.7-186.4c-4.1 0-7.5 3.4-7.5 7.5v75.1l-2.7-2.7c-2.9-2.9-7.7-2.9-10.6 0s-2.9 7.7 0 10.6l13.3 13.3v43.5 38.4c-18-3.5-31.6-19.4-31.6-38.4v-124.2c0-21.6 17.5-39.1 39.1-39.1s39.1 17.5 39.1 39.1v124.2c0 19-13.6 34.9-31.6 38.4v-35.3l13.3-13.3c2.9-2.9 2.9-7.7 0-10.6s-7.7-2.9-10.6 0l-2.7 2.7v-72l13.3-13.3c2.9-2.9 2.9-7.7 0-10.6s-7.7-2.9-10.6 0l-2.7 2.7v-28.5c0-4.1-3.4-7.5-7.5-7.5zm7.5 200.9c12.3-1.7 23.4-7.6 31.6-16.2v157.1h-31.6z"/></svg>