<svg id="Capa_1" enable-background="new 0 0 512 512" height="512" viewBox="0 0 512 512" width="512" xmlns="http://www.w3.org/2000/svg"><g><path d="m412.311 172.098c-3.992-1.153-8.154 1.155-9.302 5.141-8.68 30.135-46.128 45.52-73.373 30.473 6.738-10.964 11.054-23.559 12.236-37.043h31.74c4.151 0 7.516-3.364 7.516-7.516s-3.365-7.516-7.516-7.516h-31.741c-1.184-13.49-5.506-26.09-12.251-37.056 27.084-14.979 64.441.216 73.273 30.109 2.411 4.454 5.523 6.147 9.337 5.078 3.981-1.176 6.254-5.356 5.078-9.337-4.416-14.946-14.191-27.956-27.206-36.476 9.556-45.293-32.529-87.696-78.088-78.045-11.772-17.99-32.09-29.91-55.151-29.91-23.065 0-43.386 11.924-55.158 29.922-15.126-3.166-31.145-.939-44.771 6.387-3.656 1.965-5.026 6.522-3.061 10.178 2.972 3.895 6.365 4.915 10.179 3.06 9.359-5.032 20.186-6.937 30.691-5.571-6.28 17.762-4.205 39.277 5.428 55.47-2.468 2.199-4.807 4.537-7.006 7.005-16.191-9.643-37.708-11.715-55.471-5.432-1.406-10.799.648-21.908 5.991-31.467 2.026-3.623.73-8.202-2.893-10.227-3.623-2.026-8.203-.73-10.227 2.894-7.754 13.871-10.171 30.251-6.923 45.762-39.184 25.629-39.189 84.689-.005 110.32-9.754 46.066 32.586 87.676 78.044 78.077 10.944 16.808 28.871 27.673 48.809 29.594v46.461c-12.275-15.058-30.957-24.697-51.853-24.697h-30.288c-4.151 0-7.516 3.364-7.516 7.516v30.288c0 36.88 30.004 66.884 66.885 66.884h22.772v52.059c0 4.151 3.365 7.516 7.516 7.516s7.516-3.364 7.516-7.516v-52.059h22.776c11.357 0 22.569-2.9 32.424-8.384 3.627-2.019 4.931-6.595 2.913-10.222s-6.596-4.93-10.222-2.912c-7.626 4.244-16.31 6.487-25.115 6.487h-12.148l45.162-45.163c2.935-2.936 2.935-7.694 0-10.629-2.935-2.934-7.694-2.934-10.628 0l-45.163 45.163v-12.144-.043c.021-28.571 23.275-51.809 51.856-51.809h22.767v22.767c0 8.804-2.243 17.489-6.487 25.116-2.018 3.627-.714 8.203 2.913 10.221 3.629 2.018 8.203.713 10.222-2.913 5.484-9.855 8.384-21.068 8.384-32.425v-30.282c0-4.151-3.365-7.516-7.516-7.516h-30.282c-20.898 0-39.581 9.637-51.856 24.694v-46.72c19.021-2.503 36.003-13.173 46.525-29.334 45.449 9.601 87.781-32 78.048-78.053 13.163-8.61 22.996-21.781 27.358-36.925 1.148-3.986-1.154-8.151-5.142-9.3zm-155.437 61.378c-38.743 0-70.266-31.497-70.313-70.229 0-.031.005-.061.005-.092 0-.03-.004-.059-.004-.088.051-38.728 31.573-70.221 70.313-70.221 38.772 0 70.316 31.544 70.316 70.315s-31.545 70.315-70.317 70.315zm104.723-175.063c11.313 11.314 16.515 27.06 14.461 42.599-17.788-6.256-39.267-4.215-55.482 5.431-2.202-2.471-4.545-4.811-7.017-7.013 9.634-16.199 11.705-37.714 5.415-55.48 15.542-2.063 31.298 3.139 42.623 14.463zm-104.734-43.382c37.947.085 62.84 42.294 44.552 75.361-10.959-6.733-23.549-11.046-37.026-12.228v-31.747c0-4.151-3.365-7.516-7.516-7.516s-7.516 3.364-7.516 7.516v31.747c-13.485 1.183-37.046 12.242-37.046 12.242-18.58-28.141 5.638-75.462 44.552-75.375zm-148.116 148.116c0-37.944 42.308-62.87 75.377-44.555-6.742 10.964-11.062 23.561-12.246 37.047h-31.741c-4.151 0-7.516 3.364-7.516 7.516s3.365 7.516 7.516 7.516h31.74c1.181 13.479 5.495 26.07 12.229 37.031-33.064 18.287-75.359-6.615-75.359-44.555zm43.385 104.736c-11.319-11.326-16.519-27.082-14.455-42.624 17.764 6.287 39.27 4.219 55.467-5.414 2.202 2.473 4.544 4.817 7.016 7.02-9.633 16.214-11.682 37.69-5.418 55.471-15.539 2.059-31.29-3.141-42.61-14.453zm23.732 117.658v-22.773h22.772c28.585 0 51.841 23.249 51.853 51.832v.017 12.147l-45.162-45.162c-2.935-2.934-7.694-2.934-10.628 0-2.935 2.936-2.935 7.694 0 10.629l45.162 45.163h-12.143c-28.592 0-51.854-23.261-51.854-51.853zm82.141-75.341c-40.059-.005-64.274-42.843-45.704-74.291 0 0 23.567 11.065 37.057 12.249v31.734c0 4.151 3.365 7.516 7.516 7.516s7.516-3.364 7.516-7.516v-31.734c13.484-1.183 37.043-12.24 37.043-12.24 20.307 35.407-8.496 74.286-43.428 74.282zm103.594-42.32c-11.324 11.316-27.075 16.517-42.615 14.458 6.262-17.774 4.22-39.251-5.407-55.461 2.473-2.203 4.816-4.547 7.02-7.02 16.211 9.632 37.677 11.67 55.456 5.416 2.058 15.536-3.142 31.286-14.454 42.607z"/><path d="m256.868 116.733c-25.604 0-46.434 20.83-46.434 46.435 0 25.604 20.83 46.434 46.434 46.434s46.434-20.83 46.434-46.434c0-25.605-20.83-46.435-46.434-46.435zm0 77.838c-17.316 0-31.403-14.088-31.403-31.403 0-17.316 14.087-31.404 31.403-31.404s31.403 14.088 31.403 31.404c0 17.315-14.088 31.403-31.403 31.403z"/></g></svg>