<svg id="Capa_1" enable-background="new 0 0 512.002 512.002" height="512" viewBox="0 0 512.002 512.002" width="512" xmlns="http://www.w3.org/2000/svg"><g><path d="m385.552 404.896c-2.929 2.929-7.678 2.929-10.607 0-2.929-2.929-2.929-7.678 0-10.607 2.929-2.929 7.678-2.929 10.607 0 2.929 2.929 2.929 7.678 0 10.607z"/><path d="m416.614 373.832c-2.929 2.929-7.678 2.929-10.607 0-2.929-2.929-2.929-7.678 0-10.607 2.929-2.929 7.678-2.929 10.607 0 2.929 2.93 2.929 7.678 0 10.607z"/><path d="m463.208 401.371c-2.929 2.929-7.678 2.929-10.607 0-2.929-2.929-2.929-7.678 0-10.607 2.929-2.929 7.678-2.929 10.607 0 2.929 2.93 2.929 7.679 0 10.607z"/><path d="m463.208 359.285c-2.929 2.929-7.678 2.929-10.607 0-2.929-2.929-2.929-7.678 0-10.607 2.929-2.929 7.678-2.929 10.607 0 2.929 2.929 2.929 7.678 0 10.607z"/><path d="m123.425 404.896c2.929 2.929 7.678 2.929 10.607 0 2.929-2.929 2.929-7.678 0-10.607-2.929-2.929-7.678-2.929-10.607 0-2.929 2.929-2.929 7.678 0 10.607z"/><path d="m92.363 373.832c2.929 2.929 7.678 2.929 10.607 0 2.929-2.929 2.929-7.678 0-10.607-2.929-2.929-7.678-2.929-10.607 0-2.929 2.93-2.929 7.678 0 10.607z"/><path d="m45.77 401.371c2.929 2.929 7.678 2.929 10.607 0 2.929-2.929 2.929-7.678 0-10.607-2.929-2.929-7.678-2.929-10.607 0-2.929 2.93-2.929 7.679 0 10.607z"/><path d="m45.77 359.285c2.929 2.929 7.678 2.929 10.607 0 2.929-2.929 2.929-7.678 0-10.607-2.929-2.929-7.678-2.929-10.607 0-2.929 2.929-2.929 7.678 0 10.607z"/><path d="m512.002 337.465c-.004-27.318-28.488-50.802-54.875-32.469-16.227-9.207-37.316-7.269-51.802 3.97v-19.106c15.391-3.02 27.89-14.492 32.138-29.661 17.883-1.851 32.942-17.018 31.941-35.525 12.77-5.64 22.947-15.938 27.86-28.477 1.511-3.856-.391-8.208-4.247-9.72-3.86-1.51-8.208.391-9.72 4.247-4.021 10.265-13.153 18.449-24.429 21.894-3.879 1.186-6.113 5.239-5.043 9.152 3.208 11.706-9.038 23.631-20.295 23.631-4.159-.564-8.864-.111-9.691 6.554-1.33 10.708-8.687 19.342-18.515 22.448v-72.595l35.022-26.421c3.307-2.494 3.965-7.197 1.471-10.504-2.494-3.308-7.198-3.966-10.504-1.471l-25.989 19.606v-36.25c0-4.143-3.357-7.5-7.5-7.5s-7.5 3.357-7.5 7.5v71.648l-22.856-14.358c6.051-9.749 9.471-21.193 9.471-33.275 0-17.159-6.901-32.729-18.059-44.109.624-19.32 17.908-34.863 39.081-34.863 21.72 0 42.731 19.414 38.537 41.988-.275 5.483 2.324 8.436 7.797 8.86 15.407-.874 31.171 7.168 37.997 21.361 2.853 4.02 6.189 5.189 10.009 3.509 3.733-1.795 5.305-6.276 3.509-10.009-7.975-16.584-24.771-27.815-43.749-29.661 0-.036 0-.072 0-.108 0-28.089-24.269-50.94-54.1-50.94-25.592 0-47.075 16.817-52.675 39.326-7.854-4.531-16.763-7.431-26.269-8.2 1.214-34.965-27.992-65.155-63.017-65.155s-64.231 30.19-63.017 65.155c-9.506.769-18.414 3.669-26.269 8.2-5.599-22.509-27.083-39.326-52.675-39.326-29.831 0-54.1 22.852-54.1 50.94v.108c-18.978 1.846-35.774 13.077-43.749 29.661-1.796 3.732-.225 8.214 3.509 10.009 3.82 1.681 7.156.511 10.009-3.509 6.261-13.018 20.302-21.43 35.771-21.43 4.843 0 11.252-2.191 10.022-8.792-4.225-22.741 16.839-41.988 38.537-41.988 21.172 0 38.457 15.543 39.081 34.863-11.969 12.207-18.531 28.935-18.024 46.026l-13.684 10.324v-36.256c0-4.143-3.357-7.5-7.5-7.5s-7.5 3.357-7.5 7.5v71.648l-29.427-18.486c-3.507-2.206-8.138-1.146-10.34 2.361-2.204 3.507-1.146 8.137 2.361 10.34l37.405 23.497v38.612c-9.635-2.584-17.317-10.443-19.349-20.558-1.446-7.189-5.002-5.992-8.594-5.992-12.022 0-24.505-13.276-19.707-25.377 1.312-4.776-.324-8.1-4.909-9.974-11.626-3.328-21.032-11.598-25.162-22.12-1.514-3.856-5.863-5.756-9.722-4.241-3.855 1.513-5.755 5.865-4.241 9.722 4.971 12.665 15.223 22.976 28.119 28.591-2.61 19.135 12.444 35.911 31.115 38.133 5.079 14.213 17.588 24.642 32.449 27.144v18.504c-14.453-10.923-35.272-12.674-51.3-3.577-25.758-17.891-55.108 4.964-55.112 32.47l.003 124.257c0 4.143 3.357 7.5 7.5 7.5h497c4.143 0 7.5-3.357 7.5-7.5zm-58.812-17.165c3.009 2.137 7.092 1.908 9.724-.682 14.907-14.67 33.935.897 34.088 17.848l-.004 85.686h-150.831c-31.378-1.384-22.706-55.797 5.917-46.167 4.629 1.058 7.829-.617 9.599-5.023 4.635-16.024 17.799-26.869 32.757-26.984 3.24-.025 6.182-2.102 7.086-5.214 5.642-19.43 28.642-35.816 51.664-19.464zm-270.234 45.392c-6.538-3.703-13.317-5.202-20.337-4.495-7.275-17.063-22.173-28.768-39.426-30.879-.549-1.294-1.146-2.555-1.78-3.786 0 0 0 0 0-.001v-36.671c15.392-3.021 27.892-14.493 32.14-29.66 8.325-.862 15.802-4.43 21.431-9.748 6.312 16.35 22.682 27.173 40.208 26.496 2.875 17.107 16.284 30.686 33.304 33.818v19.929c-10.636 2.073-19.954 8.488-25.683 17.743-14.312-1.374-31.226 6.024-39.857 17.254zm80.539-54.933c18.189-3.342 32.258-18.608 33.756-37.37 15.684.438 30.503-8.302 37.797-22.169 5.673 6.297 13.721 10.622 22.825 11.706 5.079 14.213 17.589 24.64 32.452 27.144v37.467c-.447.912-.878 1.837-1.279 2.783-17.253 2.111-32.15 13.815-39.426 30.879-7.125-.718-13.996.838-20.613 4.667-8.589-11.138-25.553-18.771-39.833-17.439-5.728-9.251-15.046-15.661-25.679-17.732zm126.83-36.019c-9.638-2.585-17.32-10.443-19.351-20.556-1.444-7.19-5.002-5.993-8.594-5.993-9.977 0-21.915-9.859-20.822-20.746 6.163-3 11.701-6.938 16.469-11.605l32.297 20.289v38.611zm-192.21-152.011c4.907 0 11.745-1.741 10.548-8.679-4.927-28.569 18.106-56.27 47.338-56.27 29.103 0 52.277 27.631 47.338 56.27-.214 5.432 2.39 8.353 7.811 8.763 26.864-1.51 50.79 20.92 50.79 47.97 0 20.033-14.058 39.416-33.057 45.653-3.754 1.232-5.908 5.167-4.924 8.994 4.845 18.829-13.934 37.121-32.526 32.036-6.185-.603-9.312 2.202-9.383 8.415 1.901 11.959-7.017 26.049-18.555 29.475v-90.266l43.729-32.988c3.307-2.494 3.966-7.197 1.471-10.504s-7.196-3.967-10.504-1.471l-34.695 26.174v-58.94c0-4.143-3.357-7.5-7.5-7.5s-7.5 3.357-7.5 7.5v82.47l-28.838-18.116c-3.507-2.206-8.139-1.146-10.34 2.361-2.204 3.507-1.146 8.137 2.361 10.34l36.816 23.128v67.809c-10.421-3.099-18.177-15.494-18.843-26.603-.485-8.082-7.481-7.768-16.056-6.772-18.013 2.091-30.953-18.69-24.768-35.493 1.188-4.641-.425-7.895-4.837-9.761-19.306-5.926-33.93-25.742-33.93-45.94.002-26.498 21.558-48.055 48.054-48.055zm-60.279 66.695c5.067 16.572 16.782 30.389 32.645 38.062-.654 10.528-12.749 18.517-22.587 17.843-3.989-.274-7.508 2.645-7.965 6.627-1.23 10.719-8.687 19.339-18.517 22.446v-72.588zm-88.509 130.194c2.397 2.807 6.757 2.88 9.723.682 19.942-14.765 44.833-1.893 51.664 19.462.987 3.086 3.846 5.189 7.086 5.215 14.958.115 28.122 10.96 32.757 26.984 1.769 4.406 4.969 6.081 9.598 5.024 28.6-9.632 37.299 44.715 5.961 46.166h-150.875l-.004-85.685c0-23.51 23.698-30.018 34.09-17.848zm-34.327 134.603v-16.066l224.819-.003c4.143 0 7.5-3.357 7.5-7.5s-3.357-7.5-7.5-7.5h-44.767c9.462-13.655 8.624-33.939-.986-47.252 6.547-9.311 20.118-14.435 31.221-11.898 3.538.815 7.154-1.033 8.576-4.379 3.78-8.9 12.47-14.652 22.137-14.652 9.655 0 18.338 5.741 22.118 14.627 1.418 3.331 5.012 5.177 8.547 4.381 11.18-2.518 24.831 2.75 31.316 12.186-9.431 13.299-10.191 33.425-.794 46.987h-44.677c-4.143 0-7.5 3.357-7.5 7.5s3.357 7.5 7.5 7.5l224.49.002v16.066h-482z"/></g></svg>