<svg id="Capa_1" enable-background="new 0 0 512 512" height="512" viewBox="0 0 512 512" width="512" xmlns="http://www.w3.org/2000/svg"><g><path d="m256 449.617c-4.142 0-7.5-3.358-7.5-7.5 0-4.142 3.358-7.5 7.5-7.5 4.142 0 7.5 3.358 7.5 7.5 0 4.142-3.358 7.5-7.5 7.5z"/><path d="m224.938 480.679c-4.142 0-7.5-3.358-7.5-7.5 0-4.142 3.358-7.5 7.5-7.5 4.142 0 7.5 3.358 7.5 7.5 0 4.142-3.358 7.5-7.5 7.5z"/><path d="m162.813 480.679c-4.142 0-7.5-3.358-7.5-7.5 0-4.142 3.358-7.5 7.5-7.5 4.142 0 7.5 3.358 7.5 7.5 0 4.142-3.358 7.5-7.5 7.5z"/><path d="m100.689 480.679c-4.142 0-7.5-3.358-7.5-7.5 0-4.142 3.358-7.5 7.5-7.5 4.142 0 7.5 3.358 7.5 7.5 0 4.142-3.358 7.5-7.5 7.5z"/><path d="m287.062 480.679c-4.142 0-7.5-3.358-7.5-7.5 0-4.142 3.358-7.5 7.5-7.5 4.142 0 7.5 3.358 7.5 7.5 0 4.142-3.358 7.5-7.5 7.5z"/><path d="m349.187 480.679c-4.142 0-7.5-3.358-7.5-7.5 0-4.142 3.358-7.5 7.5-7.5 4.142 0 7.5 3.358 7.5 7.5 0 4.142-3.358 7.5-7.5 7.5z"/><path d="m411.311 480.679c-4.142 0-7.5-3.358-7.5-7.5 0-4.142 3.358-7.5 7.5-7.5 4.142 0 7.5 3.358 7.5 7.5 0 4.142-3.358 7.5-7.5 7.5z"/><path d="m318.125 449.617c-4.142 0-7.5-3.358-7.5-7.5 0-4.142 3.358-7.5 7.5-7.5 4.142 0 7.5 3.358 7.5 7.5 0 4.142-3.358 7.5-7.5 7.5z"/><path d="m193.875 449.617c-4.142 0-7.5-3.358-7.5-7.5 0-4.142 3.358-7.5 7.5-7.5 4.142 0 7.5 3.358 7.5 7.5 0 4.142-3.357 7.5-7.5 7.5z"/><path d="m508.661 466.944c-26.356-17.574-54.879-31.786-84.775-42.24-3.91-1.365-8.188.695-9.556 4.604-1.367 3.91.694 8.188 4.604 9.556 27.449 9.598 53.693 22.495 78.065 38.36v12.02c0 4.136-3.364 7.5-7.5 7.5h-467c-4.136 0-7.5-3.364-7.5-7.5v-12.02c28.694-18.684 59.85-33.184 92.662-43.122 34.108-10.317 69.445-15.549 105.028-15.549h86.619c29.967 0 59.894 3.731 88.948 11.091 4.012 1.014 8.095-1.414 9.112-5.429 1.017-4.016-1.414-8.095-5.429-9.112-27.16-6.88-55.053-10.704-83.05-11.417l-10.706-203.432 18.536 10.696c1.718.991 3.762 1.263 5.678.751l24.901-6.631-6.446 11.164c-1.914 4.173-.999 7.588 2.745 10.245l26.92 15.54c1.724.995 3.771 1.263 5.691.749l24.94-6.683-6.477 11.218c-1.914 4.173-.999 7.588 2.745 10.245l53.8 31.061c4.271 2.465 10.398-.035 11.174-5.429 7.474-41.789-6.434-85.286-38.091-113.937-3.07-2.778-7.813-2.543-10.594.527-2.779 3.071-2.543 7.814.527 10.594 24.702 22.357 37.95 56.495 34.773 89.648l-37.595-21.704 11.78-20.404c2.085-7.423-.727-11.087-8.437-10.994l-39.43 10.565-17.733-10.236 11.729-20.315c2.087-7.415-.722-11.081-8.425-10.997l-39.366 10.482-40.669-23.476c21.728-20.713 81.705-22.355 108.022-9.637 3.728 1.8 8.214.24 10.017-3.489 1.802-3.729.24-8.214-3.489-10.017-27.475-13.278-58.483-15.566-86.967-7.367l8.416-8.416c1.403-1.404 2.193-3.307 2.196-5.292l.041-25.769 9.104 9.108c2.928 2.93 7.678 2.931 10.607.002l21.98-21.979c1.407-1.407 2.197-3.314 2.197-5.304v-25.83l9.168 9.164c2.928 2.928 7.676 2.927 10.605-.001l43.92-43.92c3.53-4.893 2.749-8.958-2.343-12.194-64.598-30.43-143.613.462-168.34 67.876-25.048-68.29-103.255-97.097-168.342-67.876-5.092 3.236-5.872 7.301-2.343 12.194l43.92 43.92c2.929 2.927 7.677 2.928 10.605.001l9.168-9.164v25.83c0 1.989.79 3.896 2.197 5.304l21.98 21.979c3.536 2.929 7.072 2.928 10.607-.002l9.104-9.108.041 25.769c.003 1.985.793 3.888 2.196 5.291l8.818 8.819c-87.671-26.281-171.033 51.902-155.248 140.355.776 5.394 6.902 7.894 11.173 5.429l53.81-31.061c3.745-2.657 4.66-6.073 2.745-10.247l-6.479-11.216 24.945 6.683c1.918.516 3.968.246 5.691-.749l26.91-15.54c3.586-2.071 4.814-6.657 2.745-10.243l-6.443-11.167 24.907 6.632c1.918.514 3.961.241 5.681-.752l19.463-11.236-3.713 70.566c-.218 4.137 2.959 7.667 7.095 7.884 3.609.191 7.274-.752 7.884-7.095l.412-7.824h60.959l2.479 47.12h-65.921l.35-6.655c.218-4.137-2.959-7.666-7.095-7.884-4.143-.229-7.667 2.959-7.884 7.095l-5.303 100.77c-33.812.858-67.336 6.238-99.792 16.056-35.503 10.753-69.141 26.633-99.978 47.199-2.084 1.39-3.337 3.732-3.337 6.239v16.06c0 12.406 10.094 22.5 22.5 22.5h467c12.406 0 22.5-10.094 22.5-22.5v-16.06c0-2.508-1.253-4.849-3.339-6.24zm-288.051-110.41h70.78l2.474 47.02h-75.729zm64.905-210.52c-2.96-9.933-10.803-17.777-20.737-20.737 2.42-5.629 8.016-9.583 14.521-9.583 8.707 0 15.79 7.088 15.79 15.8.001 6.504-3.949 12.1-9.574 14.52zm-59.058.097c-5.609-2.426-9.547-8.013-9.547-14.507 0-8.713 7.083-15.801 15.79-15.801 6.455 0 12.027 3.912 14.473 9.487-9.942 2.98-17.783 10.857-20.716 20.821zm13.746 8.68c0-8.71 7.087-15.797 15.797-15.797s15.797 7.087 15.797 15.797-7.087 15.797-15.797 15.797-15.797-7.087-15.797-15.797zm54.699-108.644c29.18-29.179 74.57-39.103 113.253-24.646l-30.696 30.696-16.667-16.659c-5.792-5.628-12.792-2.128-12.802 5.305v40.824l-14.479 14.479-16.576-16.584c-5.935-5.485-12.768-2.485-12.805 5.29l-.046 28.393c-8.592-11.645-26.245-15.783-39.092-9.014 3.665-21.817 14.017-42.197 29.91-58.084zm-99.837 33.415-16.576 16.584-14.479-14.479v-40.824c.157-7.933-6.343-10.766-12.802-5.305l-16.667 16.659-30.696-30.696c61.841-23.105 132.325 17.725 143.179 82.856-12.848-6.792-30.511-2.655-39.108 8.997l-.046-28.503c-.37-8.607-7.467-11.054-12.805-5.289zm-5.501 116.847-39.365-10.482c-8.199-1.683-11.949 4.192-8.426 10.995l11.724 20.317-17.728 10.236-39.439-10.565c-7.83-1.666-11.205 4.584-8.435 10.996l11.787 20.402-37.602 21.705c-3.941-41.167 17.276-82.321 53.119-103.015 26.398-15.24 82.466-21.864 115.67 5.562zm53.61-13.63c8.364 3.666 16.744 3.743 25.141.231l14.38 8.294 1.362 25.879h-56.112l1.39-26.415zm-16.864 65.465.845-16.06h57.69l.845 16.06zm63.44 77.12.851 16.17h-69.201l.851-16.17z"/></g></svg>