<svg id="Capa_1" enable-background="new 0 0 512.183 512.183" height="512" viewBox="0 0 512.183 512.183" width="512" xmlns="http://www.w3.org/2000/svg"><g><path d="m147.357 170.312c4.142 0 7.5-3.357 7.5-7.5v-31.018c0-4.143-3.358-7.5-7.5-7.5s-7.5 3.357-7.5 7.5v31.018c0 4.142 3.358 7.5 7.5 7.5z"/><path d="m94.574 178.965c3.037 3.796 6.452 4.711 10.245 2.745 3.587-2.071 4.816-6.658 2.745-10.245l-15.509-26.862c-2.071-3.588-6.657-4.815-10.245-2.745-3.587 2.071-4.816 6.658-2.745 10.245z"/><path d="m36.571 200.086 26.862 15.509c3.793 1.966 7.208 1.05 10.245-2.745 2.071-3.587.842-8.174-2.745-10.245l-26.862-15.509c-3.588-2.071-8.174-.843-10.245 2.745-2.071 3.587-.842 8.174 2.745 10.245z"/><path d="m23.762 262.888h31.018c4.142 0 7.5-3.357 7.5-7.5s-3.358-7.5-7.5-7.5h-31.018c-4.142 0-7.5 3.357-7.5 7.5s3.358 7.5 7.5 7.5z"/><path d="m63.433 295.181-26.862 15.51c-3.587 2.071-4.816 6.658-2.745 10.245 3.037 3.796 6.452 4.711 10.245 2.745l26.862-15.51c3.587-2.071 4.816-6.658 2.745-10.245s-6.659-4.816-10.245-2.745z"/><path d="m333.731 108.188h113.155c18.816 0 34.125-15.309 34.125-34.125 0-20.537-17.56-34.883-37.262-34.125-6.1-6.695-14.229-11.16-23.122-12.708-9.57-16.669-27.565-27.23-46.959-27.23s-37.39 10.561-46.958 27.229c-19.247 3.351-33.76 20.226-33.76 40.177-.001 22.488 18.294 40.782 40.781 40.782zm-1.717-66.506c.083-.005.163-.025.246-.033 14.668.653 27.736 12.848 27.736 26.208 0 4.143 3.358 7.5 7.5 7.5s7.5-3.357 7.5-7.5c0-17.761-13.431-33.753-30.952-39.23 7.334-8.487 18.133-13.627 29.624-13.627 15.046 0 28.927 8.794 35.364 22.404 1.165 2.462 3.572 4.099 6.29 4.277 7.49.49 14.384 4.229 18.913 10.26 1.417 1.887 3.638 2.996 5.997 2.996 12.045-1.201 25.779 4.607 25.779 19.125 0 10.546-8.58 19.125-19.125 19.125h-113.155c-14.216 0-25.781-11.565-25.781-25.781-.001-13.542 10.57-24.842 24.064-25.724z"/><path d="m509.876 437.377-31.063-31.063c-1.406-1.406-3.314-2.196-5.303-2.196h-20.377l-25.944-77.832c-1.311-3.929-5.558-6.05-9.487-4.743-3.93 1.31-6.053 5.558-4.744 9.487l13.236 39.708-25.988-7.671-29.596-36.387c-2.133-2.623-5.754-3.495-8.846-2.129l-29.253 12.907-16.426-49.303 32.247-48.328 9.753 19.506c1.271 2.541 3.867 4.146 6.708 4.146h25.654l12.181 36.532c2.507 4.359 5.669 5.94 9.487 4.743 3.93-1.311 6.053-5.558 4.743-9.487l-13.89-41.66c-1.021-3.063-3.887-5.128-7.115-5.128h-26.423l-13.458-26.914c-4.005-5.238-8.321-5.508-12.947-.809l-32.945 49.374-20.5-61.532c-1.31-3.929-5.557-6.059-9.486-4.744-3.93 1.309-6.054 5.556-4.745 9.486l27.249 81.787-42.506-.051-28.839-43.258c-2.143-3.216-6.379-4.276-9.783-2.45l-27.52 14.748-31.341-16.796 37.108-139.131h19.275l12.225 26.684c1.222 2.666 3.885 4.376 6.818 4.376h12.634l14.351 43.071c1.309 3.929 5.556 6.057 9.486 4.744 3.93-1.31 6.054-5.557 4.745-9.486l-16.06-48.2c-1.021-3.063-3.887-5.129-7.115-5.129h-13.227l-12.225-26.684c-1.222-2.666-3.885-4.376-6.818-4.376h-29.85c-3.398 0-6.371 2.284-7.247 5.567l-23.85 89.425c-42.809-9.741-85.123 23.898-85.123 67.878 0 30.964 20.29 57.781 49.261 66.582l-1.547 5.801-28.038 14.02c-1.276.638-2.344 1.627-3.078 2.851l-34.332 58.812h-21.332c-1.989 0-3.897.79-5.303 2.196l-31.06 31.06c-1.407 1.407-2.197 3.314-2.197 5.304v62.1c.407 4.596 2.907 7.05 7.5 7.36.127 0 86.839.04 86.839.04 4.142-.005 7.496-3.366 7.491-7.509-.005-4.14-3.361-7.491-7.5-7.491-.002 0-.006 0-.009 0l-79.321.091v-51.484l26.667-26.666h55.846l28.861 29.669c1.412 1.451 3.351 2.271 5.376 2.271h28.017l28.877 28.059c1.4 1.36 3.275 2.121 5.227 2.121h27.976l15.927 15.763-110.772.138c-4.142.005-7.496 3.367-7.491 7.51.005 4.139 3.362 7.49 7.5 7.49h.009 377.444c4.558 0 7.5-3.042 7.5-7.357v-62.104c-.001-1.995-.791-3.902-2.198-5.309zm-147.291-96.792 27.452 33.75c.955 1.175 2.243 2.032 3.695 2.461l38.246 11.289 5.344 16.033h-25.936c-2.026 0-3.965.819-5.377 2.271l-14.463 14.876-4.104-12.344c-1.019-3.065-3.886-5.134-7.117-5.134h-25.713l-17.337-52.036zm-269.85-84.526c0-33.988 33.041-60.583 66.257-53.382l-28.129 105.466c-22.452-7.058-38.128-27.969-38.128-52.084zm110.41 159.7c-7.521 0-13.639-6.118-13.639-13.639v-28.39c0-7.521 6.119-13.639 13.639-13.639s13.639 6.118 13.639 13.639v28.39c-.001 7.521-6.119 13.639-13.639 13.639zm27.171 52.652c-1.404-1.39-3.3-2.169-5.276-2.169h-14.395v-36.487c12.164-3.305 21.139-14.439 21.139-27.635v-28.39c0-15.791-12.847-28.639-28.639-28.639s-28.639 12.848-28.639 28.639v28.39c0 13.196 8.975 24.33 21.139 27.635v35.147l-27.499-26.719c-1.4-1.36-3.275-2.121-5.227-2.121h-27.893l-28.861-29.669c-1.412-1.451-3.351-2.271-5.376-2.271h-23.873l29.157-49.223 29.106-14.554c1.922-.961 3.339-2.699 3.893-4.775l19.566-73.362 31.77 17.026c2.212 1.185 4.873 1.187 7.085 0l25.058-13.429 27.284 40.925c1.389 2.084 3.727 3.337 6.231 3.34l51.532.062 34.492 103.526c1.02 3.063 3.887 5.129 7.115 5.129h25.71l4.852 14.592-2.611 2.686h-27.894c-1.952 0-3.826.761-5.226 2.121l-28.879 28.056h-28.019c-.833 0-1.649.146-2.423.411v-36.898c12.165-3.305 21.139-14.439 21.139-27.636v-28.39c0-15.791-12.847-28.639-28.639-28.639-15.792 0-28.639 12.848-28.639 28.639v28.39c0 13.196 8.974 24.33 21.139 27.635v50.679l-13.625 13.485zm46.898-52.652c-7.521 0-13.639-6.118-13.639-13.639v-28.39c0-7.521 6.119-13.639 13.639-13.639s13.639 6.118 13.639 13.639v28.39c0 7.521-6.119 13.639-13.639 13.639zm219.859 81.517-222.781-.269 15.929-15.765h27.979c1.952 0 3.826-.761 5.226-2.12l28.879-28.057h28.019c2.026 0 3.965-.819 5.377-2.271l28.853-29.677h55.85l26.669 26.669z"/></g></svg>