<svg id="Capa_1" enable-background="new 0 0 511.615 511.615" height="512" viewBox="0 0 511.615 511.615" width="512" xmlns="http://www.w3.org/2000/svg"><g><g><path d="m380.056 137.807c-4.142 0-7.5-3.358-7.5-7.5 0-4.142 3.358-7.5 7.5-7.5 4.142 0 7.5 3.358 7.5 7.5 0 4.142-3.357 7.5-7.5 7.5z"/><path d="m411.119 107.001c-4.142 0-7.5-3.358-7.5-7.5 0-4.142 3.358-7.5 7.5-7.5 4.142 0 7.5 3.358 7.5 7.5 0 4.142-3.358 7.5-7.5 7.5z"/><path d="m442.181 231.25c-4.142 0-7.5-3.358-7.5-7.5 0-4.142 3.358-7.5 7.5-7.5 4.142 0 7.5 3.358 7.5 7.5 0 4.142-3.358 7.5-7.5 7.5z"/><path d="m411.119 169.125c-4.142 0-7.5-3.358-7.5-7.5 0-4.142 3.358-7.5 7.5-7.5 4.142 0 7.5 3.358 7.5 7.5 0 4.142-3.358 7.5-7.5 7.5z"/><path d="m100.496 107.001c-4.142 0-7.5-3.358-7.5-7.5 0-4.142 3.358-7.5 7.5-7.5 4.142 0 7.5 3.358 7.5 7.5 0 4.142-3.358 7.5-7.5 7.5z"/><path d="m100.496 169.125c-4.142 0-7.5-3.358-7.5-7.5 0-4.142 3.358-7.5 7.5-7.5 4.142 0 7.5 3.358 7.5 7.5 0 4.142-3.358 7.5-7.5 7.5z"/><path d="m380.056 44.876c-4.142 0-7.5-3.358-7.5-7.5 0-4.142 3.358-7.5 7.5-7.5 4.142 0 7.5 3.358 7.5 7.5 0 4.142-3.357 7.5-7.5 7.5z"/><path d="m442.181 75.938c-4.142 0-7.5-3.358-7.5-7.5 0-4.142 3.358-7.5 7.5-7.5 4.142 0 7.5 3.358 7.5 7.5 0 4.143-3.358 7.5-7.5 7.5z"/><path d="m69.434 231.25c-4.142 0-7.5-3.358-7.5-7.5 0-4.142 3.358-7.5 7.5-7.5 4.142 0 7.5 3.358 7.5 7.5 0 4.142-3.358 7.5-7.5 7.5z"/><path d="m69.434 75.938c-4.142 0-7.5-3.358-7.5-7.5 0-4.142 3.358-7.5 7.5-7.5 4.142 0 7.5 3.358 7.5 7.5 0 4.143-3.358 7.5-7.5 7.5z"/><path d="m380.056 200.187c-4.142 0-7.5-3.358-7.5-7.5 0-4.142 3.358-7.5 7.5-7.5 4.142 0 7.5 3.358 7.5 7.5 0 4.143-3.357 7.5-7.5 7.5z"/><path d="m131.558 137.807c-4.142 0-7.5-3.358-7.5-7.5 0-4.142 3.358-7.5 7.5-7.5 4.142 0 7.5 3.358 7.5 7.5 0 4.142-3.358 7.5-7.5 7.5z"/><path d="m131.558 44.876c-4.142 0-7.5-3.358-7.5-7.5 0-4.142 3.358-7.5 7.5-7.5 4.142 0 7.5 3.358 7.5 7.5 0 4.142-3.358 7.5-7.5 7.5z"/><path d="m131.558 200.187c-4.142 0-7.5-3.358-7.5-7.5 0-4.142 3.358-7.5 7.5-7.5 4.142 0 7.5 3.358 7.5 7.5 0 4.143-3.358 7.5-7.5 7.5z"/></g><path d="m510.754 499.598-46.26-77.78c-.923-1.552-2.375-2.719-4.09-3.286l-43.455-14.381-27.239-76.252c-1.394-3.9-5.687-5.932-9.586-4.539-3.901 1.393-5.934 5.685-4.54 9.586l26.874 75.231-25.508 25.508h-55.912l-28.866-28.865c-1.407-1.406-3.314-2.196-5.303-2.196h-59.018l-28.866-28.866c-1.406-1.406-3.314-2.196-5.303-2.196h-27.958l-25.696-25.668 25.065-83.521h13.057c4.428 0 8.031 3.603 8.031 8.031v31.062c0 12.699 10.332 23.031 23.031 23.031s23.031-10.332 23.031-23.031v-31.062c0-4.429 3.603-8.031 8.031-8.031s8.031 3.603 8.031 8.031v93.187c0 12.699 10.332 23.031 23.031 23.031s23.031-10.332 23.031-23.031v-93.187c0-4.429 3.603-8.031 8.031-8.031s8.031 3.603 8.031 8.031c0 12.699 10.332 23.031 23.031 23.031 10.444 0 19.281-6.991 22.092-16.536l9.019 25.246c1.394 3.899 5.684 5.934 9.586 4.539 3.901-1.394 5.934-5.685 4.54-9.586l-30.829-86.295c-6.334-17.765-24.93-26.631-42.863-25.551v-18.598c0-15.689 12.765-28.454 28.455-28.454 4.142 0 7.5-3.357 7.5-7.5s-3.358-7.5-7.5-7.5c-23.961 0-43.455 19.493-43.455 43.454v18.598h-26.701v-60.14c13.731-1.658 26.561-7.813 36.464-17.577 19.367 4.843 40.373-3.85 50.653-21.045 2.126-3.555.967-8.16-2.588-10.286-3.555-2.124-8.16-.967-10.286 2.589-14.36 24.017-54.651 17.324-58.789-11.423-.59-4.101-4.392-6.942-8.492-6.355-4.1.591-6.945 4.393-6.355 8.492 1.964 13.643 9.013 24.341 20.545 31.468-19.617 14.794-48.324 12.006-64.682-6.892-2.052-2.369-5.359-3.214-8.294-2.118-19.739 7.371-41.776-7.7-41.776-29.023 0-29.389 37.137-40.5 53.468-17.311 3.235 3.513 6.718 4.117 10.451 1.813 3.386-2.386 4.198-7.064 1.813-10.451-3.163-4.49-6.34-8.155-9.583-11.057 19.648-15.914 49.283-13.423 65.981 5.865 2.05 2.37 5.359 3.213 8.294 2.118 14.944-5.581 34.543 3.428 39.965 18.572 1.396 3.899 5.688 5.929 9.589 4.533 3.9-1.396 5.93-5.689 4.533-9.59-7.874-21.994-31.94-34.714-54.448-29.086-23.865-23.528-64.009-23.58-87.927 0-28.034-7.009-57.137 15.603-57.137 44.594 0 28.977 29.212 51.577 57.136 44.594 9.903 9.764 22.733 15.918 36.464 17.577v60.14h-26.701v-18.598c0-23.961-19.494-43.454-43.455-43.454-4.142 0-7.5 3.357-7.5 7.5s3.358 7.5 7.5 7.5c15.69 0 28.455 12.765 28.455 28.454v18.598c-18.29-.61-36.679 8.796-42.262 27.434l-11.968 39.881c-.02.063-.038.126-.057.19l-26.825 89.386-42.891 14.252c-1.785.593-3.281 1.834-4.193 3.479l-12 21.63c-2.01 3.622-.703 8.188 2.919 10.197 3.801 1.9 7.2.927 10.197-2.92l10.582-19.073 39.425-13.1 27.789 27.759c1.406 1.405 3.313 2.194 5.3 2.194h27.956l28.866 28.866c1.406 1.406 3.314 2.196 5.303 2.196h59.018l28.866 28.865c1.407 1.406 3.314 2.196 5.303 2.196h62.125c1.989 0 3.897-.79 5.303-2.196l27.794-27.793 39.879 13.197 38.087 64.04h-263.125l-29.008-28.989c-1.407-1.406-3.313-2.195-5.302-2.195h-59.018l-28.865-28.866c-1.406-1.406-3.314-2.196-5.303-2.196h-45.902l9.06-16.323c2.01-3.622.704-8.188-2.918-10.197-3.622-2.01-8.187-.704-10.197 2.918l-49.79 89.71c-2.06 6.213.126 9.926 6.558 11.14h497c6.543-1.281 8.692-5.059 6.446-11.337zm-332.042-282.603c3-10.015 12.043-16.742 22.505-16.742h110.4c9.91 0 18.801 6.265 22.127 15.593l7.75 21.693v32.866c0 4.429-3.603 8.031-8.031 8.031s-8.031-3.603-8.031-8.031c0-12.699-10.332-23.031-23.031-23.031s-23.031 10.332-23.031 23.031v93.187c0 4.429-3.603 8.031-8.031 8.031s-8.031-3.603-8.031-8.031v-93.187c0-12.699-10.332-23.031-23.031-23.031s-23.031 10.332-23.031 23.031v31.062c0 4.429-3.603 8.031-8.031 8.031s-8.031-3.603-8.031-8.031v-31.062c0-12.699-10.332-23.031-23.031-23.031h-8.556zm-132.442 231.69h51.12l28.865 28.866c1.406 1.406 3.314 2.196 5.303 2.196h59.02l16.195 16.185h-186.725z"/></g></svg>