<svg id="Capa_1" enable-background="new 0 0 511.996 511.996" height="512" viewBox="0 0 511.996 511.996" width="512" xmlns="http://www.w3.org/2000/svg"><g><g><path d="m436.27 68.875c-5.966 0-11.408 2.284-15.5 6.023-4.092-3.739-9.534-6.023-15.5-6.023-12.683 0-23 10.317-23 23 0 4.143 3.357 7.5 7.5 7.5s7.5-3.357 7.5-7.5c0-4.411 3.589-8 8-8s8 3.589 8 8v10c-4.348-.093-9.375 2.298-9.375 7.5 0 4.143 3.357 7.5 7.5 7.5h18.75c4.143 0 7.5-3.357 7.5-7.5 0-5.202-5.027-7.593-9.375-7.5v-10c0-4.411 3.589-8 8-8s8 3.589 8 8c0 4.143 3.357 7.5 7.5 7.5s7.5-3.357 7.5-7.5c0-12.682-10.318-23-23-23z"/><path d="m271.498.545c-5.966 0-11.409 2.284-15.5 6.023-4.092-3.739-9.534-6.023-15.5-6.023-12.682 0-23 10.317-23 23 0 4.143 3.358 7.5 7.5 7.5s7.5-3.357 7.5-7.5c0-4.411 3.589-8 8-8s8 3.589 8 8v10c-4.348-.093-9.375 2.298-9.375 7.5 0 4.143 3.358 7.5 7.5 7.5h18.75c4.143 0 7.5-3.357 7.5-7.5 0-5.202-5.027-7.593-9.375-7.5v-10c0-4.411 3.589-8 8-8s8 3.589 8 8c0 4.143 3.357 7.5 7.5 7.5s7.5-3.357 7.5-7.5c0-12.683-10.317-23-23-23z"/><path d="m106.727 68.875c-5.966 0-11.408 2.284-15.5 6.023-4.092-3.739-9.534-6.023-15.5-6.023-12.682 0-23 10.317-23 23 0 4.143 3.358 7.5 7.5 7.5s7.5-3.357 7.5-7.5c0-4.411 3.589-8 8-8s8 3.589 8 8v10c-4.348-.093-9.375 2.298-9.375 7.5 0 4.143 3.358 7.5 7.5 7.5h18.75c4.142 0 7.5-3.357 7.5-7.5 0-5.202-5.027-7.593-9.375-7.5v-10c0-4.411 3.589-8 8-8s8 3.589 8 8c0 4.143 3.358 7.5 7.5 7.5s7.5-3.357 7.5-7.5c0-12.682-10.318-23-23-23z"/></g><path d="m499.329 296.619c-13.74 14.269-36.707 13.228-50.716-.781-20.265-19.141-53.087-21.519-73.67-.938-14.203 14.205-37.314 14.205-51.518.001-19.841-19.841-52.889-19.841-72.731-.001-14.204 14.204-37.314 14.205-51.518 0-20.052-20.051-52.679-20.05-72.731 0-14.852 14.854-38.03 13.442-52.458-.94-19.622-19.621-50.733-20.239-71.117-1.53-1.745 1.372-2.87 3.499-2.87 5.892v190.629c0 12.406 10.093 22.5 22.5 22.5h466.97c12.403 0 22.497-10.092 22.5-22.497l.026-186.87c0-12.131-9.498-8.756-12.667-5.465zm-435.948 7.947c20.306 19.558 52.941 21.672 73.671.94 14.204-14.205 37.313-14.206 51.518 0 19.841 19.84 52.89 19.84 72.731 0 14.203-14.204 37.314-14.204 51.518-.001 19.841 19.841 52.889 19.841 72.731.001 14.055-14.057 37.465-14.052 51.52.002 15.611 15.977 39.554 20.863 59.924 10.801l-.004 29.224c-14.409 11.471-35.104 10.476-48.379-2.794-20.25-19.14-53.095-21.535-73.663-.942-14.063 14.045-37.463 14.05-51.526.003-19.842-19.841-52.88-19.846-72.724-.003-14.062 14.045-37.454 14.049-51.517.003-19.844-19.844-52.892-19.845-72.736 0-2.84 2.841-6.095 5.173-9.675 6.933-3.717 1.827-5.25 6.321-3.422 10.039s6.32 5.251 10.04 3.422c5.061-2.487 9.658-5.78 13.665-9.786 14.061-14.061 37.467-14.056 51.527.003 19.852 19.828 52.872 19.823 72.724-.003 14.06-14.06 37.457-14.055 51.517.003 19.855 19.831 52.883 19.822 72.736-.006 14.921-14.94 37.878-12.575 52.451.943 14.96 14.951 39.907 19.281 58.982 9.865l-.004 27.465c-15.099 12.016-36.062 9.729-49.309-3.737-19.841-19.841-52.889-19.841-72.731-.001-14.203 14.205-37.314 14.205-51.518.001-19.841-19.841-52.889-19.841-72.731-.001-14.204 14.204-37.314 14.205-51.518 0-20.052-20.051-52.679-20.05-72.731 0-14.852 14.854-38.03 13.442-52.458-.94-16.033-16.03-39.736-19.379-58.99-9.868v-27.454c14.412-11.48 35.109-10.487 48.383 2.787 5.093 5.446 15.936 13.94 23.997 13.94 3.186 0 6.142-2.047 7.151-5.246 1.246-3.95-.947-8.163-4.897-9.408-6.126-2.138-11.34-5.435-15.643-9.892-16.032-16.032-39.735-19.381-58.991-9.869v-29.212c14.412-11.48 35.107-10.486 48.381 2.788zm426.089 191.885h-466.97c-4.136 0-7.5-3.364-7.5-7.5v-49.993c14.409-11.477 35.106-10.481 48.386 2.79 20.256 19.141 53.087 21.528 73.662.941 14.063-14.046 37.462-14.05 51.527-.004 19.677 19.68 53.008 19.718 72.727.001 3.69-3.69 8.013-6.484 12.848-8.304 3.877-1.459 5.837-5.784 4.378-9.661s-5.784-5.835-9.661-4.378c-6.847 2.576-12.961 6.525-18.172 11.736-14.029 14.029-37.471 14.041-51.517-.004-19.854-19.83-52.882-19.823-72.734.005-14.927 14.935-37.876 12.579-52.454-.942-16.036-16.025-39.738-19.376-58.99-9.868v-27.452c14.412-11.48 35.107-10.486 48.381 2.789 20.306 19.558 52.94 21.671 73.671.94 14.204-14.205 37.313-14.206 51.518 0 19.841 19.84 52.89 19.84 72.731 0 14.203-14.204 37.314-14.204 51.518-.001 19.841 19.841 52.889 19.841 72.731.001 14.929-14.931 37.878-12.577 52.458.94 14.955 14.954 39.9 19.283 58.972 9.869l-.004 27.466c-14.413 11.467-35.095 10.467-48.364-2.801-20.259-19.137-53.089-21.519-73.669-.943-14.024 14.026-37.424 14.105-51.522 0-4.715-4.714-10.199-8.413-16.303-10.994-3.811-1.611-8.214.172-9.829 3.987-1.613 3.814.172 8.215 3.987 9.829 4.314 1.824 8.196 4.443 11.537 7.784 19.707 19.711 53.086 19.653 72.736.001 14.927-14.925 37.876-12.57 52.453.94 14.955 14.953 39.898 19.286 58.971 9.873l-.005 35.451c.001 4.138-3.364 7.502-7.498 7.502z"/><path d="m184.588 231.363h151.75.002c16.36-.001 31.125-9.064 38.535-23.654 1.875-3.692.401-8.207-3.292-10.083-3.691-1.876-8.207-.402-10.083 3.292-12.894 25.39-53.369 15.76-53.369-12.762 0-4.143-3.357-7.5-7.5-7.5s-7.5 3.357-7.5 7.5c0 10.774 3.973 20.632 10.519 28.207h-119.062c-20.479 0-37.14-16.656-37.14-37.13 0-19.433 15.109-35.652 34.439-37.035 22.357.127 39.832 16.344 39.832 37.031 0 4.143 3.358 7.5 7.5 7.5s7.5-3.357 7.5-7.5c0-25.014-18.887-45.629-42.641-50.715 10.27-13.696 26.609-22.121 44.069-22.121 17.547 0 33.962 8.509 44.222 22.326-8.702 2.255-16.705 6.942-22.927 13.6-2.828 3.026-2.667 7.772.358 10.601 3.583 2.809 7.116 2.689 10.601-.358 14.507-15.523 38.656-12.074 51.018 4.395 1.417 1.887 3.639 2.997 5.998 2.997 12.761-1.363 27.711 3.202 33.917 15.132 1.913 3.675 6.444 5.101 10.115 3.191 3.675-1.912 5.104-6.441 3.191-10.115-8.324-15.998-26.179-23.924-43.652-23.208-8.137-9.325-19.288-15.439-31.489-17.275-12.221-22.174-35.852-36.284-61.352-36.284s-49.13 14.108-61.351 36.282c-25.196 3.781-44.349 25.638-44.349 51.558.001 28.742 23.391 52.128 52.141 52.128z"/></g></svg>