<svg id="Capa_1" enable-background="new 0 0 512 512" height="512" viewBox="0 0 512 512" width="512" xmlns="http://www.w3.org/2000/svg"><g><g><path d="m333.305 331.718c-2.929 2.929-7.678 2.929-10.607 0-2.929-2.929-2.929-7.678 0-10.607 2.929-2.929 7.678-2.929 10.607 0 2.929 2.929 2.929 7.678 0 10.607z"/><path d="m294.088 337.996c-2.929 2.929-7.678 2.929-10.607 0-2.929-2.929-2.929-7.678 0-10.607 2.929-2.929 7.678-2.929 10.607 0 2.929 2.929 2.929 7.678 0 10.607z"/><path d="m309.088 310.708c-2.929 2.929-7.678 2.929-10.607 0-2.929-2.929-2.929-7.678 0-10.607 2.929-2.929 7.678-2.929 10.607 0 2.929 2.929 2.929 7.678 0 10.607z"/></g><g><path d="m289.671 120.291c-2.929 2.929-7.678 2.929-10.607 0-2.929-2.929-2.929-7.678 0-10.607 2.929-2.929 7.678-2.929 10.607 0 2.929 2.929 2.929 7.678 0 10.607z"/><path d="m254.003 124.491c-2.929 2.929-7.678 2.929-10.607 0-2.929-2.929-2.929-7.678 0-10.607 2.929-2.929 7.678-2.929 10.607 0 2.929 2.93 2.929 7.678 0 10.607z"/><path d="m267.337 97.203c-2.929 2.929-7.678 2.929-10.607 0-2.929-2.929-2.929-7.678 0-10.607 2.929-2.929 7.678-2.929 10.607 0 2.929 2.929 2.929 7.678 0 10.607z"/></g><g><path d="m316.421 222.793c-2.929 2.929-7.678 2.929-10.607 0-2.929-2.929-2.929-7.678 0-10.607 2.929-2.929 7.678-2.929 10.607 0 2.929 2.929 2.93 7.678 0 10.607z"/><path d="m280.754 226.994c-2.929 2.929-7.678 2.929-10.607 0-2.929-2.929-2.929-7.678 0-10.607 2.929-2.929 7.678-2.929 10.607 0 2.929 2.929 2.929 7.678 0 10.607z"/><path d="m294.088 199.705c-2.929 2.929-7.678 2.929-10.607 0-2.929-2.929-2.929-7.678 0-10.607 2.929-2.929 7.678-2.929 10.607 0 2.929 2.929 2.929 7.678 0 10.607z"/></g><path d="m504.5 496.453h-68.996c-1.154-16.722-11.85-31.066-30.02-31.066h-27.623c-4.569-47.543-53.259-79.854-98.83-66.265v-21.877h113.242c6.495-1.25 8.66-5 6.495-11.25l-61.075-105.783h27.99c6.495-1.25 8.66-5 6.495-11.25l-54.846-95.002h18.581c6.495-1.25 8.66-5 6.495-11.25l-22.871-39.611c-2.072-3.587-6.659-4.816-10.245-2.745-3.587 2.071-4.817 6.658-2.745 10.245l16.375 28.361h-133.843l41.561-71.986h50.721l8.836 15.305c2.071 3.588 6.66 4.816 10.245 2.745 3.587-2.071 4.817-6.658 2.745-10.245l-40.692-70.483c-4.33-5-8.66-5-12.991 0l-79.911 138.414c-2.165 6.25 0 10 6.495 11.25h18.581l-54.846 95.002c-2.165 6.25 0 10 6.495 11.25h27.99l-61.075 105.783c-2.165 6.25 0 10 6.495 11.25h113.242v43.744c-10.223-7.113-22.629-11.299-36-11.299-32.307 0-59.012 24.374-62.734 55.697h-27.719c-18.171 0-28.867 14.344-30.02 31.066h-68.997c-4.143 0-7.5 3.358-7.5 7.5s3.357 7.5 7.5 7.5h497c4.143 0 7.5-3.358 7.5-7.5s-3.358-7.5-7.5-7.5zm-248.5-473.406 16.7 28.926h-33.4zm-64.372 237.165h23.481c4.143 0 7.5-3.357 7.5-7.5s-3.357-7.5-7.5-7.5h-55.801l52.681-91.252h88.021l52.681 91.252h-104.891c-4.143 0-7.5 3.357-7.5 7.5s3.357 7.5 7.5 7.5h72.572l58.91 102.033h-246.564zm72.402 117.033v28.133c-5.815 3.18-11.219 7.101-16.061 11.681v-39.814zm-67.061 47.446c23.49 0 43.979 17.53 47.612 40.695h-95.224c3.612-23.027 23.587-40.695 47.612-40.695zm-90.453 55.696h182.824c4.143 0 7.5-3.357 7.5-7.5s-3.358-7.5-7.5-7.5h-29.636c-1.19-10.009-4.719-19.307-10.038-27.328 11.485-16.85 30.71-27.143 51.254-27.143 30.731.165 58.128 23.398 61.855 54.471h-40.755c-4.143 0-7.5 3.358-7.5 7.5s3.357 7.5 7.5 7.5h83.463c10.78.071 15.383 8.033 15.02 16.066h-329.007c-.135-8.033 4.834-16.112 15.02-16.066z"/></g></svg>