<svg id="Capa_1" enable-background="new 0 0 512 512" height="512" viewBox="0 0 512 512" width="512" xmlns="http://www.w3.org/2000/svg"><path d="m502.68.187-123.354 30.856h-106.816c-4.143 0-7.5 3.357-7.5 7.5s3.357 7.5 7.5 7.5c0 0 108.965-.075 109.561-.225l114.929-28.748v15.598l-117.674 29.444h-107.796c-4.143 0-7.5 3.357-7.5 7.5v23.559h-16.06v-23.559c0-4.143-3.357-7.5-7.5-7.5h-107.796l-117.674-29.444v-15.598l114.93 28.748c.596.149 109.891.225 109.891.225 4.143 0 7.5-3.357 7.5-7.5s-3.357-7.5-7.5-7.5h-107.147l-123.354-30.856c-5.474-.607-8.58 1.818-9.32 7.276v31.06c0 3.44 2.342 6.44 5.68 7.275l124.25 31.09c.595.149 103.04.225 103.04.225v16.059h-39.095c-31.052 0-49.522 37.551-30.496 62.122-32.318.864-50.106 36.194-31.409 62.17-44.97-2.157-49.303 62.08-22.82 69.606-32.816 23.537-16.483 71.237 22.82 69.583-22.32 26.654-4.303 61.987 30.61 62.141-16.913 11.513-15.216 63.934 31.3 62.13h54.62c-1.364 14.625 5.819 31.058 23.364 31.058s24.728-16.433 23.364-31.058h22.892c31.059 0 49.558-37.53 30.502-62.13 31.42.06 50.551-36.988 31.046-62.141 35.9-1.11 53.285-47.412 23.184-69.617 29.448-21.717 13.782-69.573-22.821-69.573 17.979-25.533 1.105-61.107-31.409-62.17 18.892-24.399.914-62.122-30.496-62.122h-39.096v-16.059s102.445-.075 103.04-.225l124.25-31.09c3.338-.835 5.68-3.835 5.68-7.275v-31.059c0-7.367-7.078-7.834-9.32-7.276zm-230.641 325.419c4.516 0 8.189 3.674 8.189 8.19v61.837c0 5.117-4.431 7.873-8.781 8.159-4.197-.305-7.556-3.81-7.598-8.077l-.313-31.111c-.128-12.658-10.531-22.957-23.189-22.957h-7.847v-16.041zm-39.539-15v-23.479c.112-12.754 10.35-23.624 23.013-23.624 12.154 0 24.583 9.254 24.718 23.559v25.043c-2.549-.966-5.308-1.499-8.191-1.499zm-15 0h-107.84c3.138-9.315 11.949-16.044 22.309-16.044h85.53v16.044zm.808-31.063h-86.338c-15.72 0-21.178-12.632-22.319-16.039h116.093c-3.613 4.627-6.204 10.088-7.436 16.039zm-86.338 62.109c-16.72 0-21.179-12.635-22.32-16.046h107.85v16.046zm30.61 15.021h78.269c7.648.471 8.16 8.042 7.768 16.06h-108.385c1.143-3.411 4.942-16.06 22.348-16.06zm85.92 109.25h-54.62c-10.677-.409-18.12-5.765-22.328-16.067h78.503c-2.43 5.367-1.555 16.067-1.555 16.067zm31.729 22.693c0 4.612-3.752 8.364-8.364 8.364s-8.364-3.752-8.364-8.364v-30.396c0-4.612 3.752-8.365 8.364-8.365s8.364 3.753 8.364 8.365zm-108.698-53.761c3.64-9.84 11.09-15.195 22.349-16.063h17.92c4.143 0 7.5-3.357 7.5-7.5s-3.357-7.5-7.5-7.5h-49.22c-10.374 0-19.197-6.736-22.339-16.061h108.526c-.252 4.913-.118 11.6 1.575 16.061h-5.863c-4.143 0-7.5 3.357-7.5 7.5s3.357 7.5 7.5 7.5h73.64c10.375 0 19.199 6.737 22.34 16.063zm122.916-155.312c-1.188-5.849-3.712-11.316-7.4-16.039h115.291c-3.14 9.312-11.95 16.039-22.308 16.039zm.782 77.13h53.962c10.369 0 19.188 6.736 22.329 16.06h-76.291zm22.891 109.25h-22.892c.306-4.947.162-11.607-1.554-16.067h46.795c-1.142 3.413-8.844 16.067-22.349 16.067zm31.07-62.13h-55.458c1.684-4.484 1.803-11.121 1.496-16.061h76.3c-4.028 12.907-16.049 16.061-22.338 16.061zm30.84-62.141h-84.8v-16.046h107.107c-3.139 9.316-11.949 16.046-22.307 16.046zm-84.8-31.046v-16.044h84.8c15.636 0 21.18 12.635 22.321 16.044zm21.431-85.663c0 .007-.001.013-.001.02 0 4.143 3.357 7.5 7.5 7.5h55.87c15.22 0 21.179 12.633 22.32 16.041h-292.689c3.139-9.313 11.95-16.041 22.308-16.041h159.5c4.143 0 7.5-3.357 7.5-7.5 0-.007-.001-.013-.001-.02s.001-.013.001-.02c0-4.143-3.357-7.5-7.5-7.5h-128.889c-10.376 0-19.2-6.739-22.34-16.065h231.29c-1.142 3.412-6.03 16.065-22.34 16.065h-25.03c-4.143 0-7.5 3.357-7.5 7.5 0 .007.001.013.001.02zm32.529-54.65c10.368 0 19.187 6.738 22.328 16.064h-231.287c1.143-3.413 5.269-16.064 22.349-16.064zm-177.646-31.06h168.911c-3.128 9.29-11.895 16.01-22.215 16.06h-124.48c-10.321-.05-19.087-6.769-22.216-16.06zm146.581-31.062c10.37 0 19.19 6.737 22.331 16.063h-168.912c3.14-9.325 11.96-16.063 22.331-16.063z"/></svg>