<svg id="Capa_1" enable-background="new 0 0 511.996 511.996" height="512" viewBox="0 0 511.996 511.996" width="512" xmlns="http://www.w3.org/2000/svg"><path d="m437.016 74.98c-48.352-48.351-112.639-74.98-181.018-74.98-125.079 0-241.336 97.704-254.061 224.249-1.285 10.453-1.937 21.051-1.937 31.749 0 68.38 26.628 132.666 74.98 181.018s112.639 74.98 181.018 74.98 132.666-26.629 181.018-74.98c48.352-48.352 74.98-112.638 74.98-181.018s-26.628-132.666-74.98-181.018zm-422.016 181.018c0-7.527.365-14.969 1.043-22.322 7.536 2.377 15.019 8.007 15.019 13.295v30.99c0 7.87 3.065 15.27 8.63 20.835l49.258 49.259c5.564 5.564 12.964 8.629 20.834 8.629 7.976 0 14.464 6.489 14.464 14.465v18.195c0 16.247 13.218 29.465 29.464 29.465h18.196c7.976 0 14.464 6.488 14.464 14.464v53.455c-99.045-29.945-171.372-122.043-171.372-230.73zm372.505 201.854-.609-33.483c-.201-10.913-6.372-20.773-16.106-25.734l-37.251-18.961c-4.886-2.486-7.921-7.432-7.921-12.906v-39.439c0-7.857-3.048-15.248-8.588-20.815l-18.247-18.306c-2.759-2.852-4.167-6.261-4.226-10.229 0-7.984 6.496-14.48 14.48-14.48h31.04c3.864 0 7.506 1.51 10.247 4.244l13.42 13.42c9.676 9.675 24.017 9.774 35.649 4.713 3.704-1.853 5.205-6.358 3.352-10.063-1.854-3.706-6.36-5.206-10.063-3.352-5.531 3.162-11.641 2.527-18.331-1.905l-13.427-13.427c-5.579-5.565-12.982-8.631-20.847-8.631h-31.04c-16.255 0-29.48 13.225-29.48 29.48.116 8.074 2.982 15.012 8.598 20.814l18.246 18.305c2.719 2.732 4.216 6.366 4.216 10.23v39.439c0 11.148 6.176 21.217 16.118 26.274l37.247 18.959c4.784 2.438 7.817 7.283 7.916 12.644l.767 42.165c-42.236 23.467-91.687 33.668-139.767 29.075l-.333-15.968c-.041-2.189.817-4.327 2.355-5.864l21.831-21.831c4.287-4.288 6.746-10.223 6.746-16.282v-71.101c0-12.699-10.331-23.03-23.03-23.03h-41.88c-1.598 0-3.138-.466-4.464-1.355l-29.21-19.511c-3.446-2.303-8.102-1.373-10.403 2.07-2.301 3.444-1.374 8.102 2.071 10.402l29.199 19.503c3.795 2.546 8.224 3.891 12.807 3.891h41.88c4.428 0 8.03 3.603 8.03 8.03v71.101c0 2.111-.858 4.181-2.353 5.676l-21.83 21.83c-4.404 4.405-6.863 10.512-6.746 16.77l.286 13.753c-5.558-.887-11.057-1.955-16.482-3.217v-57.476c0-16.246-13.218-29.464-29.464-29.464h-18.196c-7.976 0-14.464-6.489-14.464-14.465v-18.195c0-16.247-13.218-29.465-29.464-29.465-3.864 0-7.497-1.504-10.228-4.236l-49.258-49.259c-2.732-2.731-4.236-6.364-4.236-10.228v-30.99c0-14.379-14.804-24.901-28.17-28.292 8.8-56.364 37.208-106.31 78-142.641l86.49 1.168c4.238.061 8.07 2.439 10 6.207l21.212 41.465c4.543 8.863 13.549 14.369 23.504 14.369 6.948.651 10.748 4.451 11.4 11.4v24.33c0 6.286-5.114 11.399-11.4 11.399h-35.36c-3.059 0-5.932-1.196-8.091-3.367l-19.792-19.912c-4.997-5.024-11.648-7.791-18.728-7.791h-4.48c-14.557 0-26.4 11.843-26.4 26.4v58.749c-.004.07-.006.141-.008.211-.1 4.391-3.623 7.83-8.022 7.83-12.133 0-23.03 10.25-23.03 23.03v7.229c0 7.707 3.826 14.865 10.235 19.147l25.98 17.35c1.28.854 2.727 1.264 4.158 1.264 2.421 0 4.798-1.171 6.244-3.336 2.3-3.444 1.373-8.102-2.072-10.402l-25.978-17.349c-2.233-1.492-3.567-3.987-3.567-6.674v-7.229c0-4.458 3.802-8.03 8.03-8.03 12.364 0 22.659-10.014 23.015-22.351.011-.228.015-59.439.015-59.439 0-6.286 5.114-11.4 11.4-11.4h4.48c3.058 0 5.932 1.196 8.091 3.367l19.791 19.911c4.996 5.024 11.647 7.792 18.729 7.792h35.36c14.557 0 26.4-11.843 26.4-26.399v-24.33c-1.51-16.092-10.31-24.892-26.4-26.4-4.3 0-8.192-2.38-10.153-6.206l-21.211-41.462c-4.467-8.726-13.333-14.232-23.144-14.371l-68.425-.924c39.823-29.087 88.854-46.285 141.833-46.285 15.206 0 30.081 1.431 44.513 4.137l-8.425 6.305c-7.845 5.866-12.528 15.214-12.528 25.006v9.53c0 15.834 15.026 29.446 26.271 39.077 3.464 4.171 5.06 8.716 4.789 13.633 0 4.143 3.358 7.5 7.5 7.5s7.5-3.357 7.5-7.5c.012-8.735-2.905-18.019-9.227-24.283-7.214-5.247-21.833-18.411-21.833-28.427v-9.53c0-5.087 2.434-9.944 6.514-12.995l18.58-13.905c57.347 15.722 106.214 52.142 138.041 100.7h-53.714c-17.04 0-31.23 14.191-31.23 31.23-2.433 13.569-10.262 18.406-23.487 14.511l-14.668-7.329c-6.469-4.772-9.46-10.533-8.975-17.282 0-4.143-3.358-7.5-7.5-7.5s-7.5 3.357-7.5 7.5c.152 12.259 5.695 24.913 17.268 30.699l14.668 7.329c20.384 10.194 45.194-5.08 45.194-27.928.928-9.892 6.338-15.302 16.23-16.23h62.785c27.332 49.146 36.522 107.594 25.804 162.782l-33.362-38.168c-9.647-11.039-24.995-11.35-37.292-6.022-3.705 1.853-5.206 6.358-3.353 10.063s6.357 5.204 10.063 3.354c6.166-3.073 14.294-3.235 19.288 2.478l40.442 46.268c-15.801 57.29-52.268 106.091-100.849 137.849z"/></svg>