<svg id="Capa_1" enable-background="new 0 0 512.018 512.018" height="512" viewBox="0 0 512.018 512.018" width="512" xmlns="http://www.w3.org/2000/svg"><g><path d="m315.906 481.751c-23.927 10.13-49.367 15.267-75.616 15.267-107.198 0-194.41-87.212-194.41-194.41 0-58.343 25.88-113.092 71.005-150.208 4.105-3.376 8.16-1.305 9.304-.589 1.167.729 4.875 3.516 3.617 8.78-2.17 9.058-3.708 18.296-4.649 27.622-2.799-1.208-5.881-1.88-9.118-1.88-12.732 0-23.091 10.358-23.091 23.091s10.359 23.092 23.091 23.092c3.23 0 6.306-.669 9.1-1.872.722 7.168 1.808 14.288 3.255 21.308.836 4.056 4.804 6.663 8.86 5.831 4.057-.837 6.667-4.804 5.831-8.86-5.727-27.771-5.293-57.285 1.309-84.843 2.346-9.823-1.681-19.633-10.258-24.991-8.523-5.325-19.035-4.647-26.781 1.727-48.601 39.976-76.475 98.946-76.475 161.792 0 115.469 93.941 209.41 209.41 209.41 28.269 0 55.677-5.536 81.463-16.454 3.814-1.615 5.598-6.016 3.982-9.83-1.614-3.816-6.016-5.596-9.829-3.983zm-199.866-264.235c-4.461 0-8.091-3.63-8.091-8.092 0-4.461 3.63-8.091 8.091-8.091 4.405 0 8.041 3.185 8.041 8.973 0 4.072-3.877 7.21-8.041 7.21z"/><path d="m378.817 398.513c-93.133 22.254-192.389-29.766-226.867-119.397-1.487-3.865-5.825-5.794-9.692-4.308-3.866 1.487-5.795 5.826-4.308 9.692 27.999 72.791 96.701 125.477 174.364 133.264-1.202 2.793-1.87 5.868-1.87 9.096 0 12.732 10.359 23.091 23.092 23.091s23.092-10.358 23.092-23.091c0-3.24-.674-6.324-1.884-9.125 9.3-.939 18.518-2.472 27.562-4.633 7.409-1.777 13.093 6.955 8.19 12.912-13.293 16.168-29.003 30.016-46.693 41.158-3.505 2.207-4.557 6.838-2.349 10.343 3.125 3.677 6.572 4.46 10.343 2.349 19.052-12 35.971-26.912 50.283-44.32 13.804-16.774-2.217-42.072-23.263-37.031zm-37.189 28.348c0 4.461-3.63 8.091-8.092 8.091s-8.092-3.63-8.092-8.091c0-4.163 3.16-7.599 7.208-8.041.276.001.552.008.829.008.302 0 .603-.012.905-.013 4.063.425 7.242 3.871 7.242 8.046z"/><path d="m321.842 250.177c-.035-.005-.065-.027-.081-.059l-7.867-15.941c-9.031-11.228-18.061-11.228-27.092 0l-7.866 15.94c-.017.032-.047.055-.08.06l-17.594 2.556c-13.468 5.12-16.259 13.708-8.372 25.766l12.762 12.503-3.006 17.521c.707 14.391 8.013 19.699 21.918 15.924l15.833-8.272 15.735 8.272c13.905 3.775 21.211-1.533 21.917-15.924l-2.974-17.615 12.73-12.409c7.887-12.058 5.096-20.646-8.373-25.766zm15.493 17.579-12.729 12.408c-3.561 3.471-5.186 8.469-4.345 13.372l3.021 17.566c-.02.035-.089.092-.17.066l-15.735-8.272c-4.402-2.314-9.658-2.314-14.059 0l-15.772 8.303c-.04-.008-.113-.062-.116-.142l3.006-17.522c.84-4.902-.785-9.9-4.345-13.37l-12.771-12.434c-.005-.041.023-.127.099-.155l17.595-2.556c4.92-.716 9.171-3.805 11.372-8.264l7.88-15.988c.037-.017.127-.017.137-.021 0 0 .016.019.04.067l7.868 15.942c2.2 4.458 6.451 7.547 11.373 8.263l17.64 2.554c.027.032.056.118.011.183z"/><path d="m467.814 155.118-17.672-2.614-7.868-15.941c-6.204-12.044-20.704-10.881-27.092 0l-7.866 15.94c-.017.033-.046.055-.08.06l-17.594 2.556c-16.072 3.9-17.572 15.65-8.371 25.765l12.761 12.504-3.006 17.521c.707 14.391 8.013 19.699 21.918 15.924l15.833-8.272 15.735 8.272c13.906 3.776 21.212-1.533 21.918-15.925l-2.975-17.614 12.73-12.409c8.885-8.384 5.648-23.617-8.371-25.767zm-2.098 15.023-12.729 12.408c-3.561 3.471-5.186 8.469-4.345 13.373l3.022 17.564c-.02.036-.091.092-.171.067l-15.735-8.272c-4.402-2.314-9.658-2.314-14.059 0l-15.772 8.303c-.04-.008-.113-.062-.116-.142l3.005-17.52c.842-4.902-.782-9.902-4.344-13.372l-12.77-12.436c-.006-.04.022-.127.098-.154l17.594-2.556c4.92-.716 9.172-3.805 11.373-8.264l7.88-15.988c.037-.017.127-.017.137-.021 0 0 .016.019.04.067l7.867 15.939c2.2 4.46 6.452 7.55 11.375 8.266l17.64 2.554c.026.032.055.119.01.184z"/><path d="m203.526 65.264-3.005 17.521c-2.211 12.895 12.061 21.104 21.918 15.924l15.833-8.272 15.735 8.272c13.905 3.775 21.211-1.533 21.917-15.924l-2.975-17.614 12.73-12.409c9.325-9.244 6.89-22.193-8.372-25.766l-17.672-2.614-7.866-15.942c-3.546-8.422-20.293-13.771-27.092 0l-7.947 16-17.592 2.557c-13.469 5.118-16.26 13.707-8.372 25.766zm-2.232-23.424 17.591-2.557c4.921-.713 9.173-3.802 11.375-8.263l7.88-15.988c.037-.018.128-.018.138-.021 0 0 .016.018.04.066l7.868 15.943c2.202 4.46 6.454 7.549 11.374 8.262l17.64 2.555c.028.029.057.115.011.182l-12.73 12.41c-3.562 3.472-5.185 8.471-4.343 13.369l3.021 17.566c-.02.036-.089.093-.17.066l-15.735-8.271c-4.4-2.315-9.657-2.315-14.059-.001l-15.772 8.303c-.04-.008-.113-.061-.116-.142l3.003-17.519c.841-4.901-.783-9.899-4.344-13.371l-12.771-12.435c-.004-.04.024-.126.099-.154z"/><path d="m162.63 387.768c9.081 0 17.201 5.071 21.192 13.234 1.819 3.722 6.312 5.262 10.032 3.444 3.721-1.819 5.263-6.312 3.444-10.032-6.527-13.353-19.812-21.646-34.668-21.646-21.262 0-38.56 17.298-38.56 38.56 0 21.263 17.298 38.561 38.56 38.561 11.997 0 23.1-5.434 30.462-14.908 2.542-3.271 1.95-7.982-1.32-10.523-3.27-2.542-7.982-1.951-10.524 1.32-4.5 5.79-11.286 9.111-18.618 9.111-12.991 0-23.56-10.569-23.56-23.561s10.569-23.56 23.56-23.56z"/><path d="m92.744 279.581c-16.981 0-30.797 13.815-30.797 30.797 0 16.98 13.815 30.796 30.797 30.796 16.981 0 30.796-13.815 30.796-30.796 0-16.982-13.816-30.797-30.796-30.797zm0 46.592c-8.71 0-15.797-7.086-15.797-15.796s7.086-15.797 15.797-15.797c8.71 0 15.796 7.087 15.796 15.797s-7.087 15.796-15.796 15.796z"/><path d="m263.381 457.922c0-12.732-10.359-23.091-23.092-23.091-12.732 0-23.091 10.358-23.091 23.091s10.359 23.092 23.091 23.092c12.733 0 23.092-10.359 23.092-23.092zm-31.183 0c0-4.461 3.63-8.091 8.091-8.091 4.462 0 8.092 3.63 8.092 8.091 0 4.462-3.63 8.092-8.092 8.092s-8.091-3.63-8.091-8.092z"/><path d="m379.977 61.007h7.938v7.939c0 4.143 3.357 7.5 7.5 7.5s7.5-3.357 7.5-7.5v-7.939h7.939c4.143 0 7.5-3.357 7.5-7.5s-3.357-7.5-7.5-7.5h-7.939v-7.938c0-4.143-3.357-7.5-7.5-7.5s-7.5 3.357-7.5 7.5v7.938h-7.938c-4.143 0-7.5 3.357-7.5 7.5s3.358 7.5 7.5 7.5z"/><path d="m302.506 139.241h7.938v7.939c0 4.143 3.357 7.5 7.5 7.5s7.5-3.357 7.5-7.5v-7.939h7.939c4.143 0 7.5-3.357 7.5-7.5s-3.357-7.5-7.5-7.5h-7.939v-7.938c0-4.143-3.357-7.5-7.5-7.5s-7.5 3.357-7.5 7.5v7.938h-7.938c-4.143 0-7.5 3.357-7.5 7.5 0 4.142 3.357 7.5 7.5 7.5z"/><path d="m209.227 201.301c4.142 0 7.5-3.357 7.5-7.5v-7.938h7.939c4.142 0 7.5-3.357 7.5-7.5s-3.358-7.5-7.5-7.5h-7.939v-7.939c0-4.143-3.358-7.5-7.5-7.5s-7.5 3.357-7.5 7.5v7.939h-7.939c-4.142 0-7.5 3.357-7.5 7.5s3.358 7.5 7.5 7.5h7.939v7.938c0 4.143 3.358 7.5 7.5 7.5z"/><path d="m442.101 309.921h-7.938v-7.939c0-4.143-3.357-7.5-7.5-7.5s-7.5 3.357-7.5 7.5v7.939h-7.939c-4.143 0-7.5 3.357-7.5 7.5s3.357 7.5 7.5 7.5h7.939v7.938c0 4.143 3.357 7.5 7.5 7.5s7.5-3.357 7.5-7.5v-7.938h7.938c4.143 0 7.5-3.357 7.5-7.5s-3.357-7.5-7.5-7.5z"/></g></svg>