<svg id="Capa_1" enable-background="new 0 0 511.886 511.886" height="512" viewBox="0 0 511.886 511.886" width="512" xmlns="http://www.w3.org/2000/svg"><g><path d="m279.644 457.791c0 12.699 10.331 23.031 23.03 23.031s23.031-10.332 23.031-23.031-10.332-23.031-23.031-23.031-23.03 10.331-23.03 23.031zm31.062 0c0 4.429-3.603 8.031-8.031 8.031s-8.03-3.603-8.03-8.031 3.603-8.031 8.03-8.031c4.428-.001 8.031 3.602 8.031 8.031z"/><path d="m367.257 231.11c-1.884 3.689-.42 8.207 3.27 10.09 3.688 1.883 8.207.419 10.09-3.27 4.75-9.304 7.261-19.781 7.261-30.301v-30.22c0-4.143-3.357-7.5-7.5-7.5h-30.22c-36.806 0-66.75 29.939-66.75 66.74v23.68c-7.564 1.597-14.414 5.142-20.01 10.08v-98.49h22.729c36.801 0 66.74-29.939 66.74-66.739v-30.23c0-4.143-3.357-7.5-7.5-7.5h-30.22c-5.676 0-11.212.716-16.577 2.089 1.253-17.575-5.078-35.05-17.869-47.843l-19.5-19.5c-2.93-2.928-7.678-2.928-10.607 0l-19.5 19.5c-12.794 12.794-19.125 30.269-17.871 47.842-5.364-1.373-10.9-2.089-16.575-2.089h-30.221c-4.143 0-7.5 3.357-7.5 7.5v30.23c0 36.8 29.939 66.739 66.74 66.739h22.73v98.409c-5.579-4.895-12.395-8.411-19.917-9.999v-23.678c0-36.804-29.942-66.746-66.746-66.746h-30.224c-4.143 0-7.5 3.357-7.5 7.5v30.226c0 36.804 29.942 66.746 66.746 66.746h28.611c15.492 0 28.191 12.179 29.03 27.466v8.664h-28.386c-4.143 0-7.5 3.357-7.5 7.5s3.357 7.5 7.5 7.5h152.82v16.069h-233.74v-16.069h48.23c4.143 0 7.5-3.357 7.5-7.5s-3.357-7.5-7.5-7.5h-55.73c-4.143 0-7.5 3.357-7.5 7.5v31.069c0 4.143 3.357 7.5 7.5 7.5h8.983l13.713 137.089c1.027 10.388 10.663 18.222 22.414 18.222h158.76c11.749 0 21.385-7.833 22.413-18.214l6.62-66.181c.412-4.121-2.595-7.797-6.717-8.209-4.144-.412-7.797 2.596-8.209 6.717l-6.621 66.188c-.225 2.27-3.286 4.699-7.486 4.699h-158.76c-4.2 0-7.263-2.429-7.487-4.706l-13.564-135.604h200.863l-3.694 36.913c-.412 4.122 2.595 7.797 6.716 8.21 4.116.417 7.799-2.595 8.21-6.716l3.844-38.407h8.743c4.143 0 7.5-3.357 7.5-7.5v-31.069c0-4.143-3.357-7.5-7.5-7.5h-116.935s.047-6.775.047-7.053c0-15.994 12.982-29.011 28.962-29.074h28.731c12.145 0 24.029-3.294 34.371-9.525 3.548-2.138 4.69-6.747 2.553-10.295-2.139-3.548-6.748-4.688-10.295-2.553-11.319 6.82-25.72 8.642-38.753 7.373l45.071-45.071c2.929-2.93 2.929-7.678 0-10.607-2.93-2.928-7.678-2.928-10.607 0l-45.069 45.069c-3.343-31.874 17.009-63.86 51.75-63.86h22.72v22.72c-.001 8.274-1.892 16.174-5.621 23.479zm-228.247-23.48v-22.726h22.725c34.741 0 55.089 31.992 51.746 63.864l-45.068-45.068c-2.93-2.928-7.678-2.928-10.607 0-2.929 2.93-2.929 7.678 0 10.607l45.068 45.068c-31.873 3.344-63.864-17.004-63.864-51.745zm198.857-125.18v22.73c0 28.529-23.211 51.739-51.74 51.739h-12.12l45.066-45.066c2.929-2.93 2.929-7.678 0-10.607-2.93-2.928-7.678-2.928-10.607 0l-45.068 45.068c-.222-6.749-.363-14.461.788-21.075 11.799-10.778 25.068-23.407 30.713-38.681 6.38-2.728 13.178-4.108 20.249-4.108zm-96.166-50.147 14.196-14.197 14.196 14.196c21.438 21.439 14.337 53.935-6.696 72.518l-.001-56.555c0-4.143-3.357-7.5-7.5-7.5s-7.5 3.357-7.5 7.5v56.554c-21.896-18.033-28.017-51.195-6.695-72.516zm-67.774 72.877v-22.73h22.721c7.07 0 13.868 1.38 20.248 4.108 5.679 15.365 18.854 27.754 30.713 38.681 1.151 6.615 1.011 14.326.789 21.075l-45.069-45.069c-2.93-2.928-7.678-2.928-10.607 0-2.929 2.93-2.929 7.678 0 10.607l45.067 45.066h-12.121c-28.531.001-51.741-23.209-51.741-51.738z"/></g></svg>