<svg id="Capa_1" enable-background="new 0 0 511.998 511.998" height="512" viewBox="0 0 511.998 511.998" width="512" xmlns="http://www.w3.org/2000/svg"><g><path d="m504.497 186.376h-88.555l-23.565-47.131c-1.852-3.704-6.355-5.203-10.063-3.354-3.704 1.853-5.206 6.357-3.354 10.063l20.211 40.422h-288.074l8.088-24.254c1.31-3.93-.813-8.177-4.743-9.487-3.933-1.31-8.178.813-9.487 4.743l-9.669 28.998h-87.785c-4.143 0-7.5 3.357-7.5 7.5v295.622c0 12.406 10.094 22.5 22.5 22.5h466.996c12.406 0 22.5-10.094 22.5-22.5v-295.622c0-4.143-3.357-7.5-7.5-7.5zm-7.5 303.122c0 4.136-3.364 7.5-7.5 7.5h-466.996c-4.136 0-7.5-3.364-7.5-7.5v-288.122h80.609l29.175 72.939c2.292 4.326 5.731 5.634 10.318 3.923l21.977-10.988 12.405 74.437h-37.735c-4.143 0-7.5 3.357-7.5 7.5s3.357 7.5 7.5 7.5l73.023.004s29.429 58.764 29.7 59.126l46.71 62.131c3.38 4.495 10.571 3.869 12.892-1.559l20.15-47.141c1.628-3.81-.14-8.217-3.948-9.845-3.811-1.629-8.217.141-9.845 3.948l-15.053 35.216-38.508-51.221-28.34-56.68 27.239-27.239c2.929-2.93 2.929-7.678 0-10.607-2.93-2.928-7.678-2.928-10.607 0l-28.87 28.87h-21.602l-14.084-84.512 14.443-28.886c1.853-3.705.351-8.21-3.354-10.063-3.707-1.854-8.211-.351-10.063 3.354l-14.412 28.824-21.538 10.77-23.918-59.797h288.465l-25.06 62.65-72.578.001c-4.143 0-7.5 3.357-7.5 7.5s3.357 7.5 7.5 7.5h37.743l-13.927 83.567-13.126 30.692c-1.629 3.809.138 8.216 3.946 9.845 3.811 1.632 8.217-.139 9.845-3.946l11.535-26.972h41.639c4.143 0 7.5-3.357 7.5-7.5s-3.357-7.5-7.5-7.5h-37.735l13.03-78.188h24.706c3.066 0 5.824-1.867 6.964-4.715l29.175-72.939h80.609v288.123z"/><path d="m108.188 287.063c0-4.143-3.357-7.5-7.5-7.5h-62.125c-4.143 0-7.5 3.357-7.5 7.5s3.357 7.5 7.5 7.5h62.124c4.143 0 7.501-3.358 7.501-7.5z"/><path d="m411.311 403.812h-46.594c-4.143 0-7.5 3.357-7.5 7.5s3.357 7.5 7.5 7.5h46.594c4.143 0 7.5-3.357 7.5-7.5s-3.358-7.5-7.5-7.5z"/><path d="m147.281 403.812h-46.594c-4.143 0-7.5 3.357-7.5 7.5s3.357 7.5 7.5 7.5h46.594c4.143 0 7.5-3.357 7.5-7.5s-3.357-7.5-7.5-7.5z"/><path d="m426.842 325.624h46.593c4.143 0 7.5-3.357 7.5-7.5s-3.357-7.5-7.5-7.5h-46.593c-4.143 0-7.5 3.357-7.5 7.5s3.357 7.5 7.5 7.5z"/><path d="m120.038 135.835c3.817 1.197 6.979-.384 9.486-4.744l7.631-22.9h30.782l-12.24 36.72c-1.31 3.93.813 8.178 4.743 9.487 3.818 1.197 6.98-.384 9.487-4.743l29.807-103.595h20.61l28.035 56.536v29.155c0 1.193.285 2.37.831 3.432l15.983 31.063c2.921 3.941 6.288 5.02 10.101 3.237 3.683-1.896 5.133-6.417 3.237-10.101l-15.152-29.447v-29.097c0-1.156-.268-2.296-.781-3.332l-28.492-57.455 19.841-19.88 26.405 52.81c2.892 3.975 6.246 5.093 10.063 3.354 3.704-1.853 5.206-6.357 3.354-10.063l-25.636-51.272h14.29l60.055 120.105c2.892 3.975 6.246 5.093 10.063 3.354 3.704-1.853 5.206-6.357 3.354-10.063l-25.635-51.266h14.294l19.786 39.584c1.853 3.705 6.356 5.207 10.063 3.355 3.705-1.853 5.207-6.357 3.355-10.063l-21.859-43.73c-1.271-2.541-3.868-4.146-6.709-4.146h-26.435l-28.988-57.984c-1.27-2.541-3.868-4.146-6.708-4.146h-31.06c-1.96 0-3.927.81-5.309 2.202l-28.801 28.858h-28.01c-3.441 0-6.44 2.342-7.275 5.68l-14.12 56.451h-40.734c-3.229 0-6.095 2.066-7.115 5.129l-9.34 28.029c-1.311 3.929.813 8.176 4.743 9.486z"/><path d="m325.623 224.938c0-4.143-3.357-7.5-7.5-7.5h-93.124c-4.143 0-7.5 3.357-7.5 7.5s3.357 7.5 7.5 7.5h93.124c4.143 0 7.5-3.358 7.5-7.5z"/><path d="m349.186 232.438h15.562c4.143 0 7.5-3.357 7.5-7.5s-3.357-7.5-7.5-7.5h-15.562c-4.143 0-7.5 3.357-7.5 7.5s3.357 7.5 7.5 7.5z"/><path d="m403.279 318.124c0-4.143-3.357-7.5-7.5-7.5h-15.531c-4.143 0-7.5 3.357-7.5 7.5s3.357 7.5 7.5 7.5h15.531c4.143 0 7.5-3.357 7.5-7.5z"/><path d="m108.128 349.187c0-4.143-3.357-7.5-7.5-7.5h-15.472c-4.143 0-7.5 3.357-7.5 7.5s3.357 7.5 7.5 7.5h15.472c4.143 0 7.5-3.358 7.5-7.5z"/><path d="m193.875 403.812h-15.531c-4.143 0-7.5 3.357-7.5 7.5s3.357 7.5 7.5 7.5h15.531c4.143 0 7.5-3.357 7.5-7.5s-3.357-7.5-7.5-7.5z"/><path d="m271.863 264.031h-15.864c-4.143 0-7.5 3.357-7.5 7.5s3.357 7.5 7.5 7.5h15.864c4.143 0 7.5-3.357 7.5-7.5s-3.357-7.5-7.5-7.5z"/><path d="m457.903 403.812h-15.531c-4.143 0-7.5 3.357-7.5 7.5s3.357 7.5 7.5 7.5h15.531c4.143 0 7.5-3.357 7.5-7.5s-3.357-7.5-7.5-7.5z"/></g></svg>