<svg id="Capa_1" enable-background="new 0 0 511.998 511.998" height="512" viewBox="0 0 511.998 511.998" width="512" xmlns="http://www.w3.org/2000/svg"><g><g><path d="m506.83 404.18c-4.502-1.473-8.929-2.854-13.301-4.163l-70.084-95.933c-2.444-3.346-7.136-4.076-10.48-1.632-3.345 2.443-4.075 7.136-1.632 10.479l59.006 80.769c-43.926-10.706-89.275-13.348-133.315-1.592l25.013-35.306c15.234-21.504 7.493-52.426-16.081-64.211-11.419-5.71-17.71-18.453-15.298-30.99l8.814-45.818c1.143.763 52.58 70.759 52.58 70.759 2.443 3.345 7.135 4.076 10.48 1.633s4.076-7.136 1.633-10.48l-49.58-67.879c-10.266-14.057-31.677-14.575-42.596-1.015l-71.358 88.521-57.334-37.025c-12.533-8.093-29.183-6.17-39.552 4.329l-41.12 41.6c-2.912 2.946-2.884 7.694.062 10.606 3.544 2.908 7.079 2.888 10.606-.062l37.17-37.604-5.638 20.012c-3.734 13.257 2.496 27.35 14.814 33.509 5.754 2.878 8.769 9.488 7.167 15.72l-13.498 52.506c-30.492-12.73-62.975-21.021-98.333-25.138l35.347-35.765c2.912-2.946 2.884-7.695-.063-10.606-2.948-2.914-7.695-2.885-10.606.062l-43.986 44.506c-9.159-.662-18.498-1.078-28.054-1.224-4.631.374-7.169 2.874-7.614 7.499v124.249c0 4.077 3.41 7.502 7.498 7.502h294.48c4.142 0 7.5-3.357 7.5-7.5s-3.358-7.5-7.5-7.5h-203.932c56.326-12.87 109.499-34.039 161.775-58.203 72.184-33.368 124.638-57.614 237.178-22.021v72.725c0 4.136-3.364 7.5-7.5 7.5h-154.84c-4.142 0-7.5 3.357-7.5 7.5s3.358 7.5 7.5 7.5h154.84c12.407 0 22.5-10.094 22.5-22.5v-78.19c0-3.245-2.085-6.121-5.168-7.129zm-340.483-84.909c-5.891-2.945-8.87-9.686-7.084-16.024l9.245-32.817c2.32.323 4.593 1.139 6.651 2.468l56.005 36.167-56.904 70.59 7.073-27.513c3.35-13.031-2.953-26.854-14.986-32.871zm-151.347 176.803v-108.154c67.99 2.068 134.33 20.226 190.924 58.511-47.276 19.795-106.479 39.449-190.924 49.643zm207.14-56.621c-16.766-11.969-33.998-22.261-51.892-30.919l153.422-190.322c.024-.029.051-.054.075-.083l-7.817 40.639c-3.676 19.111 5.913 38.537 23.32 47.24 15.463 7.731 20.543 28.016 10.549 42.123l-36.423 51.413c-19.628 7.055-80.209 35.045-91.234 39.909z"/><path d="m178.342 154.78c29.828 0 54.094-24.267 54.094-54.094s-24.266-54.093-54.094-54.093c-29.827 0-54.093 24.266-54.093 54.093s24.266 54.094 54.093 54.094zm0-93.186c21.556 0 39.094 17.537 39.094 39.093 0 21.557-17.538 39.094-39.094 39.094s-39.093-17.537-39.093-39.094c0-21.556 17.537-39.093 39.093-39.093z"/><path d="m178.342 30.531c4.142 0 7.5-3.357 7.5-7.5v-15.531c0-4.143-3.358-7.5-7.5-7.5s-7.5 3.357-7.5 7.5v15.531c0 4.143 3.358 7.5 7.5 7.5z"/><path d="m170.842 178.343v15.531c0 4.143 3.358 7.5 7.5 7.5s7.5-3.357 7.5-7.5v-15.531c0-4.143-3.358-7.5-7.5-7.5s-7.5 3.357-7.5 7.5z"/><path d="m133.02 37.185c3.037 3.796 6.452 4.711 10.245 2.745 3.587-2.071 4.816-6.658 2.745-10.245l-7.766-13.45c-2.071-3.588-6.658-4.815-10.245-2.745-3.587 2.071-4.816 6.658-2.745 10.245z"/><path d="m213.42 161.443c-3.587 2.071-4.816 6.658-2.745 10.245l7.766 13.45c3.037 3.796 6.452 4.711 10.245 2.745 3.587-2.071 4.816-6.658 2.745-10.245l-7.766-13.45c-2.071-3.587-6.657-4.815-10.245-2.745z"/><path d="m93.89 60.589 13.451 7.766c3.793 1.966 7.208 1.05 10.245-2.745 2.071-3.587.842-8.174-2.745-10.245l-13.451-7.766c-3.587-2.071-8.174-.843-10.245 2.745-2.071 3.587-.842 8.174 2.745 10.245z"/><path d="m241.844 146.01 13.45 7.766c3.793 1.966 7.208 1.05 10.245-2.745 2.071-3.587.842-8.174-2.745-10.245l-13.45-7.766c-3.588-2.07-8.174-.843-10.245 2.745-2.071 3.587-.842 8.173 2.745 10.245z"/><path d="m85.156 108.187h15.531c4.142 0 7.5-3.357 7.5-7.5s-3.358-7.5-7.5-7.5h-15.531c-4.142 0-7.5 3.357-7.5 7.5s3.358 7.5 7.5 7.5z"/><path d="m248.498 100.687c0 4.143 3.358 7.5 7.5 7.5h15.531c4.142 0 7.5-3.357 7.5-7.5s-3.358-7.5-7.5-7.5h-15.531c-4.142 0-7.5 3.357-7.5 7.5z"/><path d="m107.341 133.02-13.451 7.766c-3.587 2.071-4.816 6.658-2.745 10.245 3.037 3.796 6.452 4.711 10.245 2.745l13.451-7.766c3.587-2.071 4.816-6.658 2.745-10.245-2.071-3.588-6.658-4.815-10.245-2.745z"/><path d="m249.344 68.354 13.45-7.766c3.587-2.071 4.816-6.658 2.745-10.245s-6.658-4.815-10.245-2.745l-13.45 7.766c-3.587 2.071-4.816 6.658-2.745 10.245 1.389 2.407 6.399 5.056 10.245 2.745z"/><path d="m133.02 164.188-7.766 13.45c-2.071 3.587-.842 8.174 2.745 10.245 3.793 1.966 7.208 1.05 10.245-2.745l7.766-13.45c2.071-3.587.842-8.174-2.745-10.245s-8.175-.842-10.245 2.745z"/><path d="m213.42 39.93c3.793 1.966 7.208 1.05 10.245-2.745l7.766-13.45c2.071-3.587.842-8.174-2.745-10.245-3.588-2.071-8.174-.843-10.245 2.745l-7.766 13.45c-2.071 3.586-.842 8.173 2.745 10.245z"/></g><path d="m318.123 449.872c-4.142 0-7.5-3.358-7.5-7.5 0-4.142 3.358-7.5 7.5-7.5 4.142 0 7.5 3.358 7.5 7.5 0 4.142-3.358 7.5-7.5 7.5z"/><path d="m287.06 480.934c-4.142 0-7.5-3.358-7.5-7.5 0-4.142 3.358-7.5 7.5-7.5 4.142 0 7.5 3.358 7.5 7.5 0 4.142-3.357 7.5-7.5 7.5z"/><path d="m442.372 449.872c-4.142 0-7.5-3.358-7.5-7.5 0-4.142 3.358-7.5 7.5-7.5 4.142 0 7.5 3.358 7.5 7.5 0 4.142-3.358 7.5-7.5 7.5z"/><path d="m380.375 449.872c-4.142 0-7.5-3.358-7.5-7.5 0-4.142 3.358-7.5 7.5-7.5 4.142 0 7.5 3.358 7.5 7.5 0 4.142-3.358 7.5-7.5 7.5z"/><path d="m69.625 449.872c-4.142 0-7.5-3.358-7.5-7.5 0-4.142 3.358-7.5 7.5-7.5 4.142 0 7.5 3.358 7.5 7.5 0 4.142-3.358 7.5-7.5 7.5z"/><path d="m131.749 449.872c-4.142 0-7.5-3.358-7.5-7.5 0-4.142 3.358-7.5 7.5-7.5 4.142 0 7.5 3.358 7.5 7.5 0 4.142-3.358 7.5-7.5 7.5z"/><path d="m287.06 325.522c-4.142 0-7.5-3.358-7.5-7.5 0-4.142 3.358-7.5 7.5-7.5 4.142 0 7.5 3.358 7.5 7.5 0 4.142-3.357 7.5-7.5 7.5z"/><path d="m255.998 387.747c-4.142 0-7.5-3.358-7.5-7.5 0-4.142 3.358-7.5 7.5-7.5 4.142 0 7.5 3.358 7.5 7.5 0 4.142-3.358 7.5-7.5 7.5z"/><path d="m411.309 356.685c-4.142 0-7.5-3.358-7.5-7.5 0-4.142 3.358-7.5 7.5-7.5 4.142 0 7.5 3.358 7.5 7.5 0 4.142-3.357 7.5-7.5 7.5z"/><path d="m318.123 356.584c-4.142 0-7.5-3.358-7.5-7.5 0-4.142 3.358-7.5 7.5-7.5 4.142 0 7.5 3.358 7.5 7.5 0 4.142-3.358 7.5-7.5 7.5z"/><path d="m411.309 480.157c-4.142 0-7.5-3.358-7.5-7.5 0-4.142 3.358-7.5 7.5-7.5 4.142 0 7.5 3.358 7.5 7.5 0 4.142-3.357 7.5-7.5 7.5z"/><path d="m349.185 480.157c-4.142 0-7.5-3.358-7.5-7.5 0-4.142 3.358-7.5 7.5-7.5 4.142 0 7.5 3.358 7.5 7.5 0 4.142-3.358 7.5-7.5 7.5z"/><path d="m131.749 356.584c-4.142 0-7.5-3.358-7.5-7.5 0-4.142 3.358-7.5 7.5-7.5 4.142 0 7.5 3.358 7.5 7.5 0 4.142-3.358 7.5-7.5 7.5z"/><path d="m38.562 418.809c-4.142 0-7.5-3.358-7.5-7.5 0-4.142 3.358-7.5 7.5-7.5 4.142 0 7.5 3.358 7.5 7.5 0 4.142-3.358 7.5-7.5 7.5z"/></g></svg>