<svg id="Capa_1" enable-background="new 0 0 512.028 512.028" height="512" viewBox="0 0 512.028 512.028" width="512" xmlns="http://www.w3.org/2000/svg"><g><path d="m188.546 205.954c-20.539-5.506-41.719 6.729-47.222 27.263-5.502 20.536 6.728 41.721 27.264 47.223 20.17 5.405 41.77-6.918 47.222-27.264 5.444-20.32-6.944-41.779-27.264-47.222zm12.775 43.338c-3.361 12.546-16.306 20.019-28.85 16.658-12.547-3.362-20.02-16.305-16.657-28.852 3.265-12.186 17.13-19.794 28.85-16.657 13.519 5.018 19.071 14.635 16.657 28.851z"/><path d="m194.431 303.983c-13.898-2.361-23.3 3.066-28.204 16.283-3.286 12.266 4.019 24.918 16.284 28.204 12.793 3.432 23.314-4.181 28.204-16.284 3.286-12.265-4.019-24.917-16.284-28.203zm1.795 24.322c-1.146 4.275-5.557 6.822-9.833 5.677-4.276-1.146-6.823-5.558-5.677-9.833 1.112-4.155 5.838-6.744 9.832-5.678 4.277 1.147 6.823 5.558 5.678 9.834z"/><path d="m153.66 365.127c3.286-12.266-4.019-24.918-16.284-28.204-12.264-3.287-24.917 4.018-28.204 16.283-3.286 12.266 4.019 24.918 16.284 28.204 11.457 3.073 25.013-4.376 28.204-16.283zm-14.489-3.882c-1.71 4.607-4.987 6.5-9.833 5.678-4.276-1.146-6.823-5.558-5.677-9.833 2.494-4.82 5.771-6.713 9.833-5.678 4.277 1.146 6.823 5.557 5.677 9.833z"/><path d="m170.317 393.978c-13.898-2.361-23.3 3.066-28.204 16.283-2.36 13.898 3.067 23.299 16.284 28.203 11.264 3.019 25.162-4.932 28.204-16.282 3.286-12.266-4.019-24.918-16.284-28.204zm1.795 24.321c-1.146 4.275-5.557 6.829-9.833 5.676-4.607-1.709-6.499-4.986-5.676-9.831 2.494-4.82 5.771-6.713 9.833-5.678 4.275 1.147 6.822 5.558 5.676 9.833z"/><path d="m343.44 280.439c20.536-5.502 32.766-26.687 27.264-47.223-5.503-20.535-26.687-32.77-47.222-27.263-20.32 5.444-32.708 26.903-27.264 47.222 5.451 20.345 27.052 32.672 47.222 27.264zm-32.733-31.147c-3.701-13.809 8.827-29.663 22.792-29.663 11.161.46 18.733 6.283 22.715 17.47 3.362 12.547-4.11 25.489-16.657 28.852-12.543 3.358-25.488-4.113-28.85-16.659z"/><path d="m329.517 348.47c14.027-3.109 19.569-15.938 16.283-28.204-4.905-13.217-14.306-18.644-28.204-16.283-12.265 3.286-18.897 15.778-16.284 28.203 2.702 12.842 16.359 18.91 28.205 16.284zm-8.038-29.999c4.845-.822 8.122 1.071 9.832 5.678 1.146 4.275-1.4 8.687-5.676 9.833-4.279 1.142-8.688-1.401-9.833-5.678v.001c-1.146-4.276 1.401-8.687 5.677-9.834z"/><path d="m386.571 381.411c12.266-3.286 19.57-15.938 16.284-28.204-3.287-12.265-15.939-19.575-28.205-16.283-12.265 3.286-19.569 15.938-16.283 28.204 3.191 11.904 16.748 19.357 28.204 16.283zm-13.714-20.166c-1.343-4.967 1.4-8.687 5.676-9.833 4.061-1.035 8.481 1.241 9.833 5.678 1.29 4.234-1.434 8.569-5.677 9.833-4.55 1.355-8.687-1.441-9.832-5.678z"/><path d="m353.63 438.465c13.009-3.688 19.939-16.743 16.285-28.204-3.901-12.233-14.302-19.358-28.205-16.283-12.398 2.742-19.569 15.938-16.283 28.204 2.754 10.276 14.315 20.22 28.203 16.283zm-8.038-29.999c4.278-1.145 8.687 1.401 9.833 5.678.823 4.845-1.07 8.122-5.677 9.832-4.278 1.148-8.686-1.401-9.832-5.677-1.146-4.275 1.401-8.686 5.676-9.833z"/><path d="m473.41 310.689h-11.35l-36.243-58.554c-.642-1.037-1.499-1.856-2.473-2.45-3.36-15.633-8.332-35.664-16.306-49.355-2.084-3.581-6.678-4.79-10.255-2.707-3.58 2.085-4.791 6.677-2.707 10.256 15.424 26.484 19.392 62.905 27.231 92.16 20.141 75.161-23.441 155.094-97.3 178.868l-58.298-217.563c-9.82-36.711 12.698-76.011 49.597-85.899 20.229-5.422 41.647-1.577 58.759 10.553 3.379 2.394 8.061 1.598 10.456-1.782 2.395-3.379 1.597-8.061-1.782-10.456-13.808-9.787-29.927-15.123-46.397-15.67 6.355-12.505 6.428-27.494.19-40.044l29.146-23.877 26.322 13.377c2.349 1.196 5.156 1.067 7.387-.335l15.528-9.754c3.508-2.203 4.565-6.832 2.362-10.34s-6.833-4.567-10.34-2.361l-11.93 7.493-26.897-13.67c-2.653-1.351-5.851-1.001-8.151.884l-32.286 26.45c-6.764-6.58-15.605-11.027-25.436-12.259.024-16.718-8.626-32.287-23.065-40.671l30.88-32.877c5.348-5.728 13.972-6.748 20.506-2.423l30.384 20.097c2.972 1.966 6.919 1.568 9.44-.952l15.532-15.528c2.929-2.929 2.93-7.677.001-10.606-2.928-2.929-7.677-2.93-10.606-.001l-11.2 11.197-25.275-16.719c-12.666-8.38-29.381-6.403-39.73 4.681l-35.301 37.584c-5.186-.885-10.372-.884-15.557.003l-35.09-37.57c-10.366-11.101-27.081-13.076-39.746-4.699l-25.275 16.718-11.2-11.197c-2.929-2.928-7.678-2.929-10.606.001-2.929 2.93-2.928 7.678.001 10.606l15.532 15.528c2.521 2.521 6.467 2.919 9.44.952l30.384-20.098c6.534-4.321 15.158-3.303 20.506 2.425l30.712 32.883c-14.774 8.566-22.76 23.842-23.113 40.66-9.568 1.187-18.434 5.424-25.455 12.248l-32.267-26.435c-2.301-1.885-5.5-2.234-8.151-.884l-26.897 13.67-11.93-7.493c-3.509-2.206-8.137-1.145-10.34 2.361-2.203 3.508-1.146 8.137 2.362 10.34l15.528 9.754c2.231 1.401 5.037 1.53 7.387.335l26.322-13.377 29.128 23.863c-6.245 13.378-6.145 26.732.298 40.062-36.487 1.216-69.523 26.018-79.449 63.062l-7.645 28.53c-.974.594-1.831 1.413-2.472 2.45l-36.243 58.554h-11.35c-4.142 0-7.5 3.357-7.5 7.5s3.358 7.5 7.5 7.5h15.528c2.598 0 5.01-1.344 6.377-3.553l15.446-24.954c-11.614 44.474-3.576 92.483 21.686 130.832l-19.259 56.953-14.069 14.302c-2.905 2.953-2.866 7.701.087 10.606 3.547 2.9 7.083 2.871 10.606-.087l15.276-15.528c.794-.808 1.396-1.784 1.758-2.857l16.472-48.711c21.319 25.623 49.954 44.025 82.81 52.828 3.795.97 6.857-.797 9.186-5.303l6.773-25.276c9.083 6.584 19.398 11.314 30.371 13.853 3.776.84 6.775-1.032 8.998-5.616.934-4.035-1.581-8.063-5.617-8.997-10.909-2.524-21.034-7.684-29.528-15.002l44.495-166.056 44.776 167.1c-8.77 7.204-19.134 12.151-30.229 14.382-4.061.816-6.691 4.771-5.874 8.831.716 3.563 3.846 6.022 7.345 6.022 9.9 0 25.827-8.642 32.946-13.605l6.528 24.363c2.329 4.505 5.391 6.273 9.186 5.303 32.854-8.803 61.488-27.205 82.807-52.826l16.472 48.711c.363 1.073.964 2.05 1.758 2.857l15.276 15.528c3.524 2.958 7.059 2.987 10.606.087 2.953-2.905 2.992-7.653.087-10.606l-14.069-14.302-19.259-56.953c25.265-38.346 33.301-86.36 21.686-130.833l15.446 24.955c1.367 2.209 3.78 3.553 6.377 3.553h15.528c4.142 0 7.5-3.357 7.5-7.5s-3.354-7.5-7.496-7.5zm-258.059-202.396c.648-.023 23.996.07 23.996.07 4.142 0 7.5-3.357 7.5-7.5 0-.012-.002-.023-.002-.035s.002-.023.002-.035c0-4.143-3.358-7.5-7.5-7.5h-14.556c1.522-17.098 12.699-31.521 31.223-31.521 17.531 0 30.222 14.729 31.223 31.521h-15.206c-4.142 0-7.5 3.357-7.5 7.5 0 .012.002.023.002.035s-.002.023-.002.035c0 4.143 3.358 7.5 7.5 7.5l24.646-.07c26.361 0 39.181 33.913 19.827 51.471-26.061 5.317-49.427 23.903-60.506 48.11-11.043-24.155-34.182-42.666-60.202-48.058-20.261-17.904-6.717-51.523 19.555-51.523zm-27.327 370.615c-74.341-23.979-117.742-102.593-97.302-178.873l20.095-74.996c9.803-36.584 49.252-59.415 85.905-49.598 35.185 9.428 59.163 50.21 49.598 85.905z"/></g></svg>