<svg id="Capa_1" enable-background="new 0 0 512 512" height="512" viewBox="0 0 512 512" width="512" xmlns="http://www.w3.org/2000/svg"><g><path d="m504.5 155.309h-23.445v-16.792c17.626-3.547 30.943-19.147 30.943-37.802v-62.15c0-21.264-17.299-38.563-38.563-38.563s-38.562 17.298-38.562 38.561v62.15c0 18.738 13.438 34.391 31.182 37.845v16.75h-20.735c-4.143 0-7.5 3.357-7.5 7.5s3.357 7.5 7.5 7.5h51.68v264.561h-141.058c-3.041-15.229-15.08-27.247-30.321-30.262v-209.798c0-13.51 10.99-24.5 24.5-24.5h62.51c4.143 0 7.5-3.357 7.5-7.5s-3.357-7.5-7.5-7.5h-24.94v-16.76c17.747-3.478 31.182-19.144 31.182-37.895v-30.97c0-21.296-17.326-38.621-38.622-38.621s-38.622 17.325-38.622 38.621v30.97c0 18.709 13.374 34.349 31.063 37.874v16.781h-22.572c-18.887 0-34.712 13.328-38.585 31.07h-17.71c-3.499-17.687-19.126-31.066-37.825-31.066-18.698 0-34.326 13.379-37.825 31.066h-17.71c-3.873-17.742-19.698-31.07-38.585-31.07h-22.569v-16.76c17.747-3.478 31.181-19.144 31.181-37.895v-30.97c0-21.296-17.326-38.621-38.622-38.621s-38.622 17.325-38.622 38.621v30.97c0 18.709 13.374 34.349 31.063 37.874v16.781h-22.65c-4.142 0-7.5 3.357-7.5 7.5s3.358 7.5 7.5 7.5h60.22c13.509 0 24.5 10.99 24.5 24.5v209.798c-15.242 3.016-27.28 15.034-30.321 30.262h-141.06v-264.56h53.98c4.142 0 7.5-3.357 7.5-7.5s-3.358-7.5-7.5-7.5h-22.797v-16.792c17.626-3.547 30.943-19.147 30.943-37.802v-62.15c0-21.264-17.299-38.563-38.563-38.563s-38.561 17.298-38.561 38.561v62.15c0 18.738 13.438 34.39 31.181 37.845v16.75h-23.683c-4.142 0-7.5 3.357-7.5 7.5v326.69c0 12.406 10.093 22.5 22.5 22.5h467c12.406 0 22.5-10.094 22.5-22.5v-326.69c0-4.142-3.357-7.499-7.5-7.499zm-54.627-54.595v-62.15c0-12.992 10.57-23.563 23.563-23.563s23.563 10.57 23.563 23.563v62.15c0 10.326-6.68 19.115-15.943 22.29v-53.365c0-4.143-3.357-7.5-7.5-7.5s-7.5 3.357-7.5 7.5v53.446c-9.388-3.105-16.183-11.957-16.183-22.371zm-93.246-.06v-30.97c0-13.024 10.597-23.621 23.622-23.621s23.622 10.597 23.622 23.621v30.97c0 10.425-6.792 19.289-16.182 22.414v-22.38c0-4.143-3.357-7.5-7.5-7.5s-7.5 3.357-7.5 7.5v22.34c-9.327-3.161-16.062-11.993-16.062-22.374zm-100.627 69.659c10.371 0 19.199 6.735 22.339 16.063l-44.677-.001c3.139-9.327 11.966-16.062 22.338-16.062zm-147.752-69.659v-30.97c0-13.024 10.597-23.621 23.622-23.621s23.622 10.597 23.622 23.621v30.97c0 10.425-6.792 19.289-16.181 22.414v-22.38c0-4.143-3.358-7.5-7.5-7.5s-7.5 3.357-7.5 7.5v22.34c-9.328-3.161-16.063-11.993-16.063-22.374zm-93.246.06v-62.15c0-12.992 10.57-23.563 23.563-23.563s23.562 10.57 23.562 23.563v62.15c0 10.326-6.68 19.115-15.943 22.29v-53.365c0-4.143-3.358-7.5-7.5-7.5s-7.5 3.357-7.5 7.5v53.446c-9.388-3.105-16.182-11.957-16.182-22.371zm295.618 303.91c-4.854.96-9.465 2.822-13.586 5.52-8.312-14.409-23.925-23.795-41.034-23.795-17.11 0-32.723 9.385-41.035 23.794-4.12-2.697-8.731-4.559-13.585-5.519v-203.245h109.24zm186.38 84.875c0 4.136-3.364 7.5-7.5 7.5h-467c-4.136 0-7.5-3.364-7.5-7.5v-39.63h141.037c1.172 5.972 3.728 11.451 7.318 16.096 0 0-31.482-.03-31.485-.03-4.139 0-7.496 3.354-7.5 7.493-.004 4.142 3.351 7.503 7.493 7.507l107.947.064c4.142 0 7.5-3.357 7.5-7.5s-3.358-7.5-7.5-7.5l-46.13-.005c-12.904-.108-23.37-10.635-23.37-23.565 0-12.991 10.573-23.56 23.57-23.56 7.013 0 13.616 3.101 18.115 8.507 5.408 4.296 9.731 3.393 12.968-2.708 3.981-13.73 16.744-23.319 31.037-23.319s27.056 9.589 31.037 23.319c3.237 6.101 7.56 7.004 12.968 2.709 4.5-5.407 11.103-8.508 18.115-8.508 12.997 0 23.57 10.568 23.57 23.56 0 12.93-10.465 23.457-23.37 23.565l-45.82.005c-4.143 0-7.5 3.357-7.5 7.5s3.357 7.5 7.5 7.5l107.696-.064c4.143-.004 7.497-3.365 7.493-7.507-.004-4.141-3.361-7.493-7.5-7.493-.002 0-31.544.03-31.544.03 3.589-4.645 6.146-10.124 7.318-16.096h141.037z"/><path d="m256 263.506c4.143 0 7.5-3.357 7.5-7.5v-31.069c0-4.143-3.357-7.5-7.5-7.5-4.142 0-7.5 3.357-7.5 7.5v31.069c0 4.142 3.358 7.5 7.5 7.5z"/><path d="m287.062 341.154c4.143 0 7.5-3.357 7.5-7.5v-31.062c0-4.143-3.357-7.5-7.5-7.5s-7.5 3.357-7.5 7.5v31.062c0 4.143 3.358 7.5 7.5 7.5z"/><path d="m224.938 310.033c4.142 0 7.5-3.357 7.5-7.5v-31.063c0-4.143-3.358-7.5-7.5-7.5s-7.5 3.357-7.5 7.5v31.063c0 4.143 3.358 7.5 7.5 7.5z"/><path d="m256.06 372.217h.015c4.143-.008 7.493-3.372 7.485-7.515l-.06-31.062c-.008-4.138-3.364-7.485-7.5-7.485-.005 0-.01 0-.015 0-4.142.008-7.494 3.372-7.485 7.515l.061 31.063c.008 4.136 3.364 7.484 7.499 7.484z"/><path d="m426.872 480.935h31.003c4.143 0 7.5-3.357 7.5-7.5s-3.357-7.5-7.5-7.5h-31.003c-4.143 0-7.5 3.357-7.5 7.5s3.357 7.5 7.5 7.5z"/><path d="m85.158 465.935h-31.122c-4.142 0-7.5 3.357-7.5 7.5s3.358 7.5 7.5 7.5h31.122c4.142 0 7.5-3.357 7.5-7.5s-3.358-7.5-7.5-7.5z"/></g></svg>