<svg id="Capa_1" enable-background="new 0 0 512.1 512.1" height="512" viewBox="0 0 512.1 512.1" width="512" xmlns="http://www.w3.org/2000/svg"><g><path d="m512.078 286.691c-.057-1.015-.315-2.024-.771-2.937l-18.03-36.06c-1.853-3.704-6.354-5.204-10.063-3.354-3.704 1.853-5.206 6.357-3.354 10.063l12.603 25.205h-123.012l-28.987-57.977c-1.271-2.54-3.867-4.146-6.708-4.146h-19.351l-19.112-54.123 13.895-27.781 18.505 25.403c2 2.742 5.59 3.801 8.756 2.584l28.363-10.916 41.17 15.9 14.238 28.706c1.266 2.553 3.869 4.168 6.719 4.168h26.425l11.867 23.733c2.892 3.976 6.246 5.094 10.062 3.354 3.705-1.853 5.207-6.357 3.354-10.063l-13.939-27.879c-1.271-2.541-3.867-4.146-6.708-4.146h-26.408l-44.153-89.021c-1.266-2.553-3.869-4.168-6.719-4.168h-26.474l-13.811-26.969c-2.798-5.466-10.632-5.441-13.384.063l-38.835 77.646-39.646-107.953c-1.084-2.952-3.895-4.914-7.04-4.914h-26.426l-13.457-26.914c-1.271-2.54-3.867-4.146-6.708-4.146h-31.06c-3.215 0-6.073 2.05-7.104 5.095l-35.73 105.54c-1.329 3.924.775 8.181 4.698 9.509 3.925 1.33 8.181-.775 9.509-4.698l9.734-28.752 11.757 18.083c2.05 3.151 6.115 4.299 9.508 2.686l27.729-13.181 25.026 11.851 14.49 40.938c1.376 3.886 5.946 5.89 9.637 4.544l28.158-10.256 30.735 86.077c1.059 2.998 3.893 5.003 7.072 5.003h20.021l23.561 47.122h-96.847v-16.962c13.368-3.358 23.297-15.474 23.297-29.869v-15.557c0-16.98-13.815-30.796-30.797-30.796s-30.797 13.815-30.797 30.796v15.557c0 14.395 9.929 26.511 23.297 29.869v16.962h-70.302v-16.793c17.626-3.547 30.943-19.147 30.943-37.802v-31.082c0-21.264-17.299-38.563-38.563-38.563s-38.563 17.299-38.563 38.563v31.082c0 18.738 13.438 34.391 31.182 37.845v16.751h-133.915l52.128-78.18h27.047c3.216 0 6.073-2.05 7.104-5.096l16.88-49.88c1.327-3.924-.776-8.181-4.7-9.509-3.922-1.327-8.181.776-9.509 4.7l-15.155 44.784h-25.681c-2.508 0-4.849 1.253-6.24 3.339l-62.103 93.14c-.806 1.26-1.286 2.696-1.286 4.201l-.1 202.44c0 12.406 10.094 22.5 22.5 22.5h467.1c12.406 0 22.5-10.094 22.5-22.5v-202.44c0-.142-.014-.279-.022-.419zm-178.239-200.393 9.146 17.86c1.283 2.506 3.861 4.082 6.676 4.082h26.407l20.051 40.426-28.599-11.045c-1.735-.671-3.66-.671-5.396-.004l-25.693 9.889-19.688-27.027zm-88.726 48.681-13.006-36.744c-.666-1.882-2.056-3.421-3.86-4.275l-31.062-14.708c-2.036-.965-4.396-.962-6.43.005l-25.015 11.89-14.628-22.499 18.146-53.598h21.046l13.457 26.914c1.271 2.54 3.867 4.146 6.708 4.146h25.825l29.827 81.218zm-12.576 97.799v-15.557c0-8.71 7.087-15.796 15.797-15.796s15.797 7.086 15.797 15.796v15.557c0 8.71-7.087 15.797-15.797 15.797s-15.797-7.087-15.797-15.797zm-93.186-7.764v-31.082c0-12.992 10.57-23.563 23.563-23.563s23.563 10.57 23.563 23.563v31.082c0 10.326-6.68 19.115-15.943 22.29v-22.317c0-4.143-3.357-7.5-7.5-7.5s-7.5 3.357-7.5 7.5v22.397c-9.389-3.104-16.183-11.956-16.183-22.37zm357.749 264.536c0 4.136-3.364 7.5-7.5 7.5h-467.1c-4.136 0-7.5-3.364-7.5-7.5v-163.88h216.91c4.143 0 7.5-3.357 7.5-7.5s-3.357-7.5-7.5-7.5h-216.81v-16.061h482v16.061h-232.5c-4.143 0-7.5 3.357-7.5 7.5s3.357 7.5 7.5 7.5h232.5z"/><path d="m170.413 349.236c0-4.143-3.357-7.5-7.5-7.5h-93.186c-4.143 0-7.5 3.357-7.5 7.5s3.357 7.5 7.5 7.5h93.187c4.142 0 7.499-3.357 7.499-7.5z"/><path d="m193.976 356.736h15.531c4.143 0 7.5-3.357 7.5-7.5s-3.357-7.5-7.5-7.5h-15.531c-4.143 0-7.5 3.357-7.5 7.5s3.357 7.5 7.5 7.5z"/><path d="m248.6 380.299c0 4.143 3.357 7.5 7.5 7.5h93.187c4.143 0 7.5-3.357 7.5-7.5s-3.357-7.5-7.5-7.5h-93.187c-4.143 0-7.5 3.357-7.5 7.5z"/><path d="m380.349 387.799h15.531c4.143 0 7.5-3.357 7.5-7.5s-3.357-7.5-7.5-7.5h-15.531c-4.143 0-7.5 3.357-7.5 7.5s3.357 7.5 7.5 7.5z"/><path d="m201.476 411.361c0-4.143-3.357-7.5-7.5-7.5h-93.188c-4.143 0-7.5 3.357-7.5 7.5s3.357 7.5 7.5 7.5h93.188c4.142 0 7.5-3.357 7.5-7.5z"/><path d="m225.037 418.861h15.531c4.143 0 7.5-3.357 7.5-7.5s-3.357-7.5-7.5-7.5h-15.531c-4.143 0-7.5 3.357-7.5 7.5s3.358 7.5 7.5 7.5z"/><path d="m302.693 434.923h-15.531c-4.143 0-7.5 3.357-7.5 7.5s3.357 7.5 7.5 7.5h15.531c4.143 0 7.5-3.357 7.5-7.5s-3.357-7.5-7.5-7.5z"/><path d="m326.256 442.423c0 4.143 3.357 7.5 7.5 7.5h108.718c4.143 0 7.5-3.357 7.5-7.5s-3.357-7.5-7.5-7.5h-108.718c-4.143 0-7.5 3.357-7.5 7.5z"/><path d="m256.057 466.045-62.074-.061c-.002 0-.005 0-.007 0-4.139 0-7.496 3.354-7.5 7.493-.004 4.142 3.351 7.503 7.493 7.507l62.074.061h.007c4.139 0 7.496-3.354 7.5-7.493.004-4.142-3.351-7.503-7.493-7.507z"/><path d="m162.913 466.045h-15.531c-4.143 0-7.5 3.357-7.5 7.5s3.357 7.5 7.5 7.5h15.531c4.143 0 7.5-3.357 7.5-7.5s-3.357-7.5-7.5-7.5z"/></g></svg>