<svg id="Capa_1" enable-background="new 0 0 512 512" height="512" viewBox="0 0 512 512" width="512" xmlns="http://www.w3.org/2000/svg"><g><path d="m411.633 52.231c-.063 0-.127.001-.191.002l-7.133.178c3.913-15.29-1.877-32.079-15.657-41.43-13.932-8.567-30.916-9.3-44.564.758l-2.623-6.902c-1.471-3.872-5.803-5.817-9.675-4.347s-5.818 5.803-4.347 9.675l5.411 14.24-11.058 16.341-6.75-4.568c-3.43-2.322-8.094-1.423-10.414 2.008-2.322 3.43-1.423 8.093 2.008 10.414l6.75 4.568-9.9 14.63-13.914-5.187c-3.887-1.45-8.2.526-9.647 4.407-1.447 3.882.526 8.201 4.407 9.647l10.504 3.916-9.49 14.024c-7.297-1.041-14.615-1.512-21.956-1.415v-8.034c0-4.143-3.357-7.5-7.5-7.5s-7.5 3.357-7.5 7.5v8.034c-7.272-.095-14.523.372-21.752 1.4l-9.481-14.01 10.502-3.915c3.881-1.446 5.854-5.766 4.407-9.647-1.446-3.88-5.764-5.854-9.647-4.407l-13.913 5.186-9.901-14.63 6.75-4.568c3.431-2.321 4.33-6.984 2.008-10.414-2.32-3.43-6.983-4.329-10.414-2.008l-6.75 4.568-11.058-16.341 5.411-14.24c1.472-3.872-.475-8.204-4.347-9.675-3.87-1.47-8.203.475-9.675 4.347l-2.622 6.902c-12.985-9.571-31.231-9.238-44.566-.756-13.779 9.351-19.568 26.139-15.655 41.428l-7.133-.178c-4.158-.079-7.581 3.17-7.686 7.311-.103 4.142 3.17 7.582 7.311 7.686l15.072.376 11.076 16.367-6.652 4.502c-3.43 2.321-4.329 6.984-2.007 10.415 3.196 3.573 6.668 4.242 10.415 2.007l6.651-4.501 9.291 13.729-6.535 5.135c-3.257 2.56-3.822 7.274-1.264 10.531 3.337 3.34 6.847 3.761 10.531 1.264l5.696-4.475 6.019 8.894c-2.366 2.608-4.6 5.321-6.71 8.123l-6.907-5.12c-3.326-2.467-8.024-1.77-10.491 1.558-2.468 3.327-1.77 8.024 1.558 10.491l7.61 5.642c-5.932 10.5-10.338 22.373-12.731 34.209h-14.693c-4.143 0-7.5 3.357-7.5 7.5s3.357 7.5 7.5 7.5h12.652c-.982 14.164 1.024 28.826 4.913 42.477l-10.955 5.428c-3.711 1.839-5.229 6.338-3.39 10.05 2.883 3.986 6.233 5.115 10.05 3.39l8.487-4.205 2.318 8.108c2.379 4.466 5.47 6.182 9.272 5.149 3.982-1.139 6.288-5.29 5.149-9.272-8.448-26.273-15.067-53.436-7.23-80.897 9.224-32.275 34.56-58.486 66.681-68.681-7.454 9.132-13.771 21.145-18.509 35.386l-3.2-3.302c-2.882-2.974-7.631-3.05-10.605-.166-2.975 2.883-3.049 7.631-.166 10.605l9.367 9.667c-1.552 7.027-2.711 14.115-3.475 21.264h-9.235c-4.143 0-7.5 3.357-7.5 7.5s3.357 7.5 7.5 7.5h8.148c-.416 11.203.046 22.489 1.372 33.502l-12.778 6.163c-3.731 1.799-5.297 6.282-3.497 10.013 2.856 4.017 6.193 5.182 10.013 3.497l8.485-4.093 8.915 60.164h-30.538l-4.767-16.689c-1.138-3.982-5.287-6.288-9.271-5.152-3.983 1.138-6.29 5.289-5.152 9.271l3.591 12.573h-21.233c-4.143 0-7.5 3.357-7.5 7.5v31.063c0 4.143 3.357 7.5 7.5 7.5h8.991l13.7 134.748c.99 11.538 10.817 20.565 22.407 20.565h158.771c11.776 0 21.401-8.834 22.417-20.563l6.734-66.209c.419-4.121-2.582-7.801-6.703-8.221-4.113-.405-7.802 2.581-8.221 6.703l-6.74 66.271c-.004.045-.009.09-.012.135-.328 3.925-3.542 6.884-7.476 6.884h-158.768c-3.869 0-7.147-3.02-7.465-6.874-.004-.049-.008-.097-.013-.145l-13.551-133.293h200.838l-3.511 34.501c-.419 4.12 2.582 7.801 6.703 8.221 4.116.395 7.801-2.582 8.221-6.703l3.665-36.022h8.752c4.143 0 7.5-3.357 7.5-7.5v-31.063c0-4.143-3.357-7.5-7.5-7.5h-21.231l14.541-50.704c3.01 3.175 8.298 5.088 12 1.375 2.925-2.933 2.918-7.682-.015-10.606l-7.262-7.242c4.119-13.591 5.773-27.91 4.795-42.073h6.802c4.143 0 7.5-3.357 7.5-7.5s-3.357-7.5-7.5-7.5h-8.834c-.566-2.802-1.227-5.585-1.999-8.34-1.119-3.987-5.257-6.31-9.247-5.196-3.988 1.119-6.577 5.342-5.196 9.247 11.173 31.601-7.285 67.915-21.189 128.535h-30.49l7.578-50.944c2.954 3.273 8.297 5.385 12.093 1.714 2.977-2.88 3.056-7.628.176-10.605l-9.488-9.807.073-.495c1.9-12.77 2.604-25.998 2.118-39.108 4.356.102 9.406-2.285 9.406-7.5 0-5.657-5.879-7.903-10.494-7.5-.747-6.996-1.873-13.933-3.377-20.811l11.252-9.645c3.146-2.696 3.509-7.431.813-10.575-2.694-3.143-7.429-3.509-10.575-.813l-5.791 4.964c-4.783-14.776-11.26-27.201-18.929-36.591 22.192 7.01 41.643 21.907 54.302 41.445 2.251 3.476 6.896 4.468 10.372 2.216s4.469-6.896 2.217-10.372c-3.383-5.222-7.138-10.112-11.216-14.646l6.071-8.969 5.698 4.477c3.684 2.497 7.194 2.076 10.531-1.264 2.559-3.257 1.993-7.972-1.264-10.531l-6.537-5.136 9.292-13.728 6.652 4.502c3.747 2.235 7.219 1.566 10.415-2.007 2.322-3.431 1.423-8.094-2.007-10.415l-6.653-4.502 11.077-16.366 15.072-.376c4.141-.104 7.413-3.544 7.311-7.686-.102-4.08-3.439-7.315-7.493-7.315zm-242.206 68.66-43.914-64.891c-5.79-8.563-5.161-19.603.771-27.404l56.022 82.765c-3.463 2.276-9.431 6.14-12.879 9.53zm26.075-16.794-56.825-83.952c9.735-2.764 19.808.969 25.959 9.58l46.321 68.447c-5.282 1.601-10.444 3.574-15.455 5.925zm52.892 4.169v38.815l-3.308-2.682c-3.219-2.609-7.939-2.115-10.549 1.102s-2.116 7.94 1.102 10.549l12.755 10.343v24.886l-2.748-2.727c-2.94-2.919-7.689-2.901-10.606.04-2.918 2.94-2.899 7.689.04 10.606l13.314 13.213v25.461l-2.748-2.727c-2.94-2.919-7.689-2.901-10.606.04-2.918 2.94-2.899 7.689.04 10.606l13.314 13.213v51.616h-34.334l-10.73-72.415c-4.932-33.929-3.113-126.088 45.064-129.939zm124.369 217.358v16.063h-233.737v-16.063zm-64.228-145.087c6.391 42.972-4.445 87.623-10.761 130.084h-34.379v-35.88l13.354-13.458c2.918-2.94 2.899-7.689-.04-10.606-5.862-2.478-10.3-1.555-13.314 2.769v-25.298l13.354-13.457c2.918-2.94 2.644-7.453-.04-10.606-4.042-4.75-9.136-1.085-13.314 2.769v-25.099l13.393-13.691c2.896-2.961 2.651-7.523-.117-10.605-4.003-4.457-9.473-.758-13.275 2.847v-52.042c20.252 1.538 39.066 31.449 45.139 72.273zm21.156-69.151 20.071-29.663c2.321-3.431 1.422-8.094-2.009-10.415-3.43-2.32-8.093-1.422-10.415 2.009l-20.841 30.801c-4.993-2.336-10.164-4.308-15.469-5.915l46.342-68.484c5.955-8.662 16.342-12.307 25.957-9.573l-17.664 26.1c-2.322 3.431-1.423 8.094 2.007 10.415 3.747 2.235 7.219 1.566 10.415-2.007l17.634-26.055c5.93 7.801 6.559 18.839.771 27.398l-43.938 64.917c-4.074-3.479-8.371-6.661-12.861-9.528z"/><path d="m279.575 457.903c0 12.699 10.332 23.031 23.031 23.031s23.031-10.332 23.031-23.031-10.332-23.03-23.031-23.03-23.031 10.331-23.031 23.03zm31.063 0c0 4.429-3.603 8.031-8.031 8.031s-8.031-3.603-8.031-8.031 3.603-8.03 8.031-8.03 8.031 3.602 8.031 8.03z"/></g></svg>