<svg id="Capa_1" enable-background="new 0 0 512 512" height="512" viewBox="0 0 512 512" width="512" xmlns="http://www.w3.org/2000/svg"><g><path d="m240.469 77.126c-4.142 0-7.5-3.358-7.5-7.5 0-4.142 3.358-7.5 7.5-7.5 4.142 0 7.5 3.358 7.5 7.5 0 4.143-3.358 7.5-7.5 7.5z"/><path d="m504.5 341.69h-106.139l18.255-18.265c2.928-2.93 2.927-7.679-.003-10.606-2.93-2.929-7.679-2.928-10.606.003l-28.853 28.868h-44.222l-11.867-44.292c-1.072-4-5.188-6.379-9.186-5.303-4.001 1.071-6.375 5.185-5.304 9.186l14.636 54.625c-10.022-.615-18.659-7.604-21.294-17.419-.001-.004-.002-.009-.003-.013l-14.296-53.354c-1.072-4-5.187-6.378-9.186-5.303-4.001 1.071-6.375 5.185-5.304 9.186l12.038 44.926c-10.021-.618-18.66-7.597-21.293-17.421-.005-.02-.014-.039-.019-.059l-8.394-31.328c-1.072-4-5.188-6.378-9.186-5.303-4.001 1.071-6.375 5.185-5.304 9.186l5.791 21.613c-9.934-2.18-17.66-3.855-20.938-16.068l-9.255-34.536c25.37 11.841 55.697 10.703 80.117-3.114l3.428 12.792c1.072 4 5.188 6.377 9.186 5.303 4.001-1.071 6.375-5.185 5.304-9.186l-18.86-70.389c-2.589-9.663-7.678-18.224-14.715-24.977v-15.661h.267c22.746 0 41.702-16.482 45.586-38.127 8.894 1.318 14.497 6.349 16.807 15.095 0 4.143 3.358 7.5 7.5 7.5s7.5-3.357 7.5-7.5v-15.53c0-14.32-3.623-28.481-10.477-40.952-1.996-3.631-6.557-4.957-10.185-2.96-3.63 1.995-4.956 6.555-2.96 10.185 4.153 7.556 6.864 15.869 8.006 24.439-6.595-3.879-14.593-5.981-22.953-5.981h-39.09v-54.499c12.597 1.326 24.465 5.997 34.683 13.706 3.307 2.496 8.01 1.836 10.504-1.471s1.836-8.009-1.47-10.504c-12.984-9.795-28.155-15.552-44.235-16.843-2.955-17.757-18.413-31.339-36.991-31.339h-22.36c-35.207 0-63.85 28.639-63.85 63.84v61.15c-17.683 3.502-31.059 19.128-31.059 37.824v82.718c0 25.443 19.481 46.416 44.309 48.799 5.509 10.528 12.642 20.232 21.223 28.724-2.476 4.916-2.829 12.914-2.399 18.636h-83.587l-44.401-44.371c-2.931-2.929-7.679-2.927-10.607.003s-2.926 7.679.003 10.606l33.784 33.762h-75.076c-4.142 0-7.5 3.357-7.5 7.5v31.06c0 4.143 3.358 7.5 7.5 7.5h41.34c4.142 0 7.5-3.357 7.5-7.5s-3.358-7.5-7.5-7.5h-33.84v-16.06h172.385c-.297 4.868-.302 11.569 1.288 16.06h-107.143c-4.142 0-7.5 3.357-7.5 7.5s3.358 7.5 7.5 7.5h63.301l-18.365 18.24c-2.939 2.919-2.955 7.668-.036 10.606 3.53 2.941 7.066 2.953 10.606.036l29.08-28.883h81.384v54.62c0 37.894 31.918 69.63 69.62 69.63 4.142 0 7.5-3.357 7.5-7.5v-116.75h114.647l28.865 28.865c3.535 2.928 7.071 2.928 10.606 0 2.929-2.93 2.929-7.678 0-10.607l-18.258-18.258h44.02c4.142 0 7.5-3.357 7.5-7.5v-31.06c0-4.142-3.358-7.5-7.5-7.5zm-272.081-9.287c.114-4.051 3.438-7.313 7.516-7.313 4.15 0 7.526 3.376 7.526 7.526v32.102c0 4.15-3.386 7.248-7.526 7.526-7.516.506-7.497-6.979-7.497-6.991 0 0-.011-32.602-.019-32.85zm-23.283-92.67-4.431-16.535c25.231 12.589 55.771 12.116 80.611-1.276l5.333 19.905c-21.749 16.751-62.399 12.923-81.513-2.094zm72.169-32.78c-24.619 14.905-54.779 12.382-78.643-2.215 1.884-15.665 13.158-28.916 28.709-33.084 24.658-6.601 45.011 12.557 49.934 35.299zm-17.275-72.919-46.872-28.123c-9.735-5.84-15.783-16.521-15.783-27.875 0-17.652 14.333-32.213 31.972-32.504l30.682.428v88.074zm15.267 5.748h-.266v-23.828h30.686c-3.369 13.665-15.73 23.828-30.42 23.828zm-60.137-124.782h22.36c10.127 0 18.71 6.726 21.529 15.946 0 0-29.737-.416-29.806-.413-25.843.35-46.867 21.659-46.867 47.504 0 16.593 8.838 32.203 23.065 40.738l54.589 32.754v8.714c-40.584-18.688-86.072 20.983-74.794 63.179l20.101 75.013c1.269 4.729 3.392 9.086 6.202 12.901-4.942-1.276-10.237-.835-14.948 1.315-19.309-18.969-30.281-44.968-30.281-72.181v-176.63c0-26.931 21.914-48.84 48.85-48.84zm-79.909 170.845h16.059v16.062h-16.059zm16.059-45.362v30.362h-16.059v-8.031c0-10.369 6.736-19.189 16.059-22.331zm-16.059 105.048v-28.625h16.059v23.563c0 12.688 2.082 25.145 6.033 36.926-12.892-4.846-22.092-17.299-22.092-31.864zm63.134 119.722v-32.103c0-4.15 3.376-7.526 7.527-7.526 3.958 0 7.204 3.072 7.497 6.957 0 .012-.001.024-.001.036 0 0 .011 32.601.019 32.85-.271 9.603-15.042 9.929-15.042-.214zm107.235 131.234c-5.677-.783-11.074-2.449-16.058-4.843v-80.333c0-4.143-3.358-7.5-7.5-7.5s-7.5 3.357-7.5 7.5v69.697c-9.912-9.895-16.062-23.558-16.062-38.638v-54.62h47.12zm187.38-123.737h-236.025c1.701-4.44 1.795-11.147 1.486-16.048h30.324c9.023 11.072 26.045 16.619 39.864 12.923 5.803-1.554 6.129-8.463 4.302-12.935h160.049z"/></g></svg>