<svg id="Capa_1" enable-background="new 0 0 512.139 512.139" height="512" viewBox="0 0 512.139 512.139" width="512" xmlns="http://www.w3.org/2000/svg"><g><path d="m344.63 222.967c-23.846-15.648-55.123-25.947-81.346-27.177v-23.872h22.73c13.602 0 26.694-4.072 37.859-11.777 3.41-2.353 4.266-7.023 1.914-10.433-2.352-3.408-7.022-4.266-10.432-1.913-8.65 5.969-18.796 9.123-29.341 9.123h-12.122l45.068-45.067c2.929-2.93 2.929-7.678 0-10.607-2.928-2.927-7.677-2.929-10.606 0l-45.069 45.069c-.222-6.749-.362-14.458.788-21.073l16.511-16.512c6.392-6.393 11.194-13.948 14.232-22.183 6.372-2.719 13.159-4.096 20.219-4.096h22.72v22.729c0 7.14-1.43 14.06-4.251 20.566-1.647 3.801.098 8.217 3.898 9.864 3.825 1.531 7.113.232 9.864-3.897 3.642-8.401 5.489-17.329 5.489-26.533v-30.229c0-4.143-3.358-7.5-7.5-7.5h-30.22c-5.681 0-11.223.718-16.593 2.093 1.225-17.716-5.276-35.267-17.859-47.85l-19.496-19.496c-3.535-2.928-7.071-2.928-10.606 0l-19.496 19.496c-12.583 12.583-19.083 30.134-17.858 47.85-5.37-1.375-10.911-2.093-16.593-2.093h-30.22c-4.142 0-7.5 3.357-7.5 7.5v30.229c0 36.801 29.939 66.74 66.74 66.74h22.73v23.866c-77.89 3.659-143.36 66.499-150.152 144.11-.361 4.127 2.691 7.765 6.818 8.126 4.115.354 7.764-2.691 8.125-6.817 1.238-14.15 4.586-27.703 9.699-40.368l46.431-21.997c1.334-.632 2.899-.477 4.075.401l22.616 16.907c5.726 4.289 13.276 4.997 19.723 1.841 2.014-.895 3.778-.29 5.293 1.815l6.496 13.249c.963 1.963.15 4.343-1.81 5.305l-19.268 9.448c-.937.459-2.041.525-3.032.184l-16.105-5.557c-15.728-5.425-33.445 11.594-25.652 27.474 0 0 16.378 33.36 16.713 33.996-5.375 4.114-8.067 11.38-6.812 19.061 1.402 8.576 7.136 14.756 14.609 15.743.122.016 20.252 1.677 20.252 1.677l25.492 6.405c5.969 1.505 15.342 2.727 20.94-.03l22.817-11.186c1.098-.417 1.952-.123 2.563.88 0 0 19.252 39.712 19.088 40.193l-6.054 17.71c-1.899 5.529.065 12.503 3.127 17.423-5.479 1.55-11.072 2.779-16.754 3.666l-3.809-27.996c-1.426-10.483-16.334-17.779-25.547-13.264l-9.91 4.86c-2.884 1.413-6.378.218-7.792-2.665l-4.86-9.908c-5.055-10.309-17.554-14.582-27.866-9.527-1.395.685-2.974.786-4.446.281l-39.982-13.669c-.781-.267-1.601-.403-2.426-.403h-20.509c-8.535-15.389-14.335-32.55-16.684-50.877-.526-4.108-4.274-7.012-8.393-6.486-4.108.526-7.012 4.284-6.485 8.393 9.942 77.582 78.647 137.957 156.969 137.957 68.904 0 131.753-46.671 151.583-112.641 1.192-3.967-1.057-8.149-5.024-9.342-3.962-1.193-8.149 1.057-9.341 5.023-2.893 9.625-6.778 18.782-11.512 27.379l-6.823-13.294c-3.525-6.868-10.509-11.204-18.226-11.317l-25.353-.376c-2.206-.033-4.18-1.283-5.151-3.265l-10.536-21.482c-2.444-4.982-6.68-8.722-11.927-10.526l-14.83-5.103c-4.625-1.592-5.063-8.599-.67-10.754l16.902-8.289c1.4-.687 2.981-.786 4.457-.283l10.893 3.725c8.499 2.904 17.866.061 23.312-7.085l13.464-17.668c1.609-2.112 4.445-2.869 6.893-1.845l32.95 13.799c2.068 11.738 2.678 23.514 1.83 35.328-.302 4.131 2.803 7.725 6.934 8.026 3.634.259 6.31-2.053 8.026-6.935 4.062-55.603-22.981-110.911-69.003-142.247zm-54.76 46.282c2.085 4.249-1.69 9.925-6.25 9.925l-9.938-.072c-2.589-.02-4.996-1.531-6.134-3.858l-10.033-20.456c-1.943-4.139-4.775-7.181-8.496-9.127l-22.014-10.283c-1.9-2.762-4.019-8.09-2.416-11.221l5.732-11.222c31.914-5.861 65.416-.443 93.879 15.094l-24.317 11.927c-10.272 5.037-15.047 19.067-10.013 29.293zm-34.086-251.143c15.42 15.778 28.921 26.494 27.825 47.104-.805 15.131-9.174 29.856-20.325 39.604v-56.55c0-4.143-3.358-7.5-7.5-7.5s-7.5 3.357-7.5 7.5v56.55c-11.307-9.619-18.609-24.511-20.325-39.604-2.175-19.141 11.109-30.797 27.825-47.104zm-81.97 87.073v-22.73h22.72c7.06 0 13.847 1.377 20.219 4.096 3.038 8.236 7.84 15.791 14.232 22.184l16.511 16.512c1.15 6.615 1.01 14.324.788 21.073l-45.069-45.069c-2.929-2.928-7.678-2.928-10.606 0-2.929 2.93-2.929 7.678 0 10.607l45.068 45.067h-12.122c-28.531 0-51.741-23.211-51.741-51.74zm-33.858 332.973h9.683l38.802 13.266c5.264 1.801 10.914 1.442 15.905-1.007 2.882-1.415 6.378-.22 7.792 2.664l4.86 9.909c6.658 10.87 15.946 14.046 27.865 9.527l9.91-4.86c2.115-.723 3.533.313 4.254 3.109l3.565 26.207c-47.751 2.311-94.458-20.243-122.636-58.815zm229.733-136.992c-8.749-3.663-18.872-.953-24.618 6.59l-13.463 17.666c-1.525 2.001-4.149 2.799-6.528 1.984l-10.895-3.725c-5.266-1.8-10.916-1.441-15.913 1.009l-16.902 8.289c-15.689 7.694-14.123 32.724 2.395 38.405l14.83 5.103c1.469.506 2.655 1.553 3.339 2.948l10.536 21.482c3.47 7.074 10.519 11.541 18.396 11.657l25.354.376c2.16.032 4.115 1.246 5.102 3.169l10.853 21.146c-16.029 22.182-38.186 39.45-63.543 49.624l-3.185-6.174c-.236-.456 5.954-19.218 5.954-19.218 1.459-4.276 1.166-8.866-.825-12.922l-18.988-38.72c-5.407-8.836-12.953-11.418-22.638-7.747 0 0-23.534 11.418-23.916 11.367 0 0-36.475-7.954-36.883-7.987l-20.194-1.663c-2.259-2.503-2.366-5.225-.322-8.169 8.011-4.931 9.033-11.713 3.067-20.346l-15.693-32.004c-1.929-3.931 3.866-7.87 7.295-6.688l16.099 5.555c4.739 1.637 10.039 1.312 14.535-.896l19.268-9.448c9.386-4.607 13.275-15.993 8.67-25.377l-6.494-13.245c-4.358-8.894-16.519-13.041-25.375-8.678-1.346.66-2.925.512-4.125-.387l-22.628-16.917c-5.644-4.21-13.105-4.951-19.47-1.938l-28.911 13.697c17.67-28.449 45.019-50.311 77.073-61.045-3.578 7.561-1.446 17.28 2.664 24.197 1.021 2.549 2.703 4.517 5.047 5.903l23.41 10.936c.833.639 1.511 1.466 1.977 2.418l10.033 20.455c3.668 7.499 11.137 12.196 19.493 12.26l9.932.072c15.131 0 27.542-15.823 19.83-31.54-1.565-3.503-.513-6.574 3.156-9.211l32.637-16.009c24.869 17.849 43.81 43.455 53.255 73.25z"/></g></svg>