<svg id="Capa_1" enable-background="new 0 0 512 512" height="512" viewBox="0 0 512 512" width="512" xmlns="http://www.w3.org/2000/svg"><g><path d="m56.527 255.532c-4.137 0-7.491-3.354-7.491-7.491 0-4.137 3.354-7.491 7.491-7.491 4.137 0 7.491 3.354 7.491 7.491 0 4.137-3.354 7.491-7.491 7.491z"/><g><path d="m212.159 246.031-69.79 12.508c-6.256 2.452-7.678 6.572-4.268 12.361l9.988 11.193c.976 1.093 2.251 1.877 3.667 2.253l37.62 9.988c3.062.782 5.788-.258 8.178-3.121l22.182-33.689c3.825-6.446 1.883-13.188-7.577-11.493zm-24.15 32.439-28.984-7.695 38.607-6.919z"/><path d="m502.185 258.538 9.65-44.96c.04-6.897-3.334-9.738-10.123-8.521l-20.974 8.45c-3.837 1.546-5.695 5.911-4.149 9.748s5.907 5.692 9.748 4.149l7.891-3.18-7.027 32.742c-.222 1.037-.222 2.108 0 3.145l7.028 32.743-48.68-19.605c5.648-9.807 5.642-19.611-.018-29.412l10.523-4.238c3.838-1.546 5.696-5.91 4.15-9.747-1.546-3.836-5.907-5.7-9.747-4.15l-24.422 9.836h-10.88l-28.789-40.837c-2.219-3.148-6.465-4.099-9.816-2.2l-38.83 22.01-22.751-47.125c-1.767-3.659-6.127-5.241-9.828-3.571l-49.493 22.34c-9.916-3.341-19.978-6.021-30.126-8.037l10.161-20.264c10.202-20.348-14.95-39.359-31.902-26.619l-59.764 44.952c-4.582.694-9.149 1.516-13.695 2.484-4.047.862-6.629 4.841-5.767 8.887.861 4.047 4.842 6.623 8.886 5.767 41.193-8.77 84.19-5.491 124.341 9.476l83.032 32.735h-52.634c-49.303-13.414-108.121-15.988-179.616-7.868-4.542-7.237-12.121-14.845-17.73-21.571 3.947-1.591 7.919-3.084 11.919-4.451 3.915-1.337 6.004-5.596 4.666-9.511-1.338-3.914-5.596-6.001-9.511-4.665-33.001 11.276-62.175 29.748-89.344 51.322-10.974 8.49-11.535 28.639-.891 37.937 29.593 25.818 64.475 46.113 102.249 57.187l27.285 47.233c3.001 5.196 10.698 4.965 13.279-.591l17.261-37.144c7.131.279 14.261.23 21.39-.149 4.131-.218 7.303-3.744 7.084-7.876-.218-4.132-3.746-7.334-7.876-7.084-36.235 1.917-72.966-5.57-105.934-20.607 25.052-10.443 39.821-39.407 32.501-65.658 67.919-7.324 123.705-4.631 170.271 8.209.649.178 1.318.269 1.991.269l140.292.002c.009 0 .018.002.026.002.01 0 .019-.001.029-.001 4.721.006 7.28 1.293 7.28 8.057.031 5.909-1.767 7.859-7.459 7.982h-47.094c-.916 0-1.824.168-2.679.495-51.258 19.636-103.814 46.547-157.887 57.309-4.058.807-6.692 4.75-5.885 8.808.709 3.565 3.838 6.032 7.339 6.031 7.526-.674 14.872-2.405 22.037-5.193l66.235 22.662c3.784 1.216 6.944-.307 9.479-4.567l16.067-44.95 42.941 14.204c3.018 1.001 6.339-.017 8.283-2.535l28.775-37.282h11.086l75.679 30.479c4.945 1.995 11.404-2.545 10.122-8.521zm-350.418 83.709-8.797 18.929-12.859-22.26c7.165 1.45 14.383 2.56 21.656 3.331zm-51.826-73.119c-4.882 14.648-19.866 25.261-33.983 30.318-9.639-5.287-19.063-11.27-28.217-17.905 4.173-.116 8.727-2.557 8.727-7.491 0-4.138-3.354-7.491-7.491-7.491h-20.154c-3.873-3.339-5.967-12.148-1.092-15.921 18.195-14.723 37.71-28.121 58.85-38.258 13.964 15.806 31.057 33.654 23.36 56.748zm278.091-60.248 18.792 26.657h-15.157l-29.88-11.78zm-58.653 2.101-43.941-17.323 29.211-13.185zm-147.051-37.343 40.456-30.429c5.429-4.08 12.205 2.543 9.504 7.931l-12.246 24.423c-12.524-1.647-25.132-2.291-37.714-1.925zm134.933 166.464-41.468-14.187 53.923-20.657zm70.295-34.635-31.331-10.364 35.405-13.563h14.393z"/></g></g></svg>