<svg id="Capa_1" enable-background="new 0 0 512 512" height="512" viewBox="0 0 512 512" width="512" xmlns="http://www.w3.org/2000/svg"><g><path d="m511.998 378.295c0-2.841-1.605-5.438-4.146-6.708l-16.902-8.451c-14.031-7.014-28.953-1.217-38.349 9.855-5.638 5.639-14.815 5.641-20.455.001-11.368-11.368-30.302-11.369-41.67-.001-5.64 5.642-14.816 5.64-20.454 0-9.399-11.075-24.324-16.867-38.355-9.845l-15.314 7.666-177.324-.017v-95.532c10.515 1.473 21.094 6.037 31.82 13.696l.003 11.748c.001 4.142 3.358 7.498 7.5 7.498h.002c4.142-.001 7.499-3.359 7.498-7.502l-.003-11.794c21.658-15.765 41.717-15.789 62.652-.072v11.868c0 4.143 3.357 7.5 7.5 7.5s7.5-3.357 7.5-7.5v-15.53-.001s0 0 0-.001c0-22.205-5.634-44.161-16.291-63.495-2-3.627-6.561-4.947-10.189-2.947-3.627 2-4.946 6.562-2.947 10.189 7.063 12.813 11.635 26.93 13.488 41.472-20.265-11.156-41.319-10.854-62.004.884-1.339-32.907-6.127-71.497-25.303-99.367 20.989 5.227 40.133 16.24 55.579 32.266 2.877 2.985 7.624 3.071 10.604.196 2.983-2.875 3.07-7.622.196-10.604-23.377-24.256-54.257-38.343-87.605-40.132v-12.181c0-4.143-3.357-7.5-7.5-7.5s-7.5 3.357-7.5 7.5v12.215c-68.87 4.007-123.704 61.152-124 130.938-.014.189-.029 16.099-.029 16.099 0 4.143 3.357 7.5 7.5 7.5s7.5-3.357 7.5-7.5v-11.672c22.771-15.833 42.837-15.929 62.674-.31l-.001 11.981c-.001 4.143 3.356 7.5 7.499 7.501h.001c4.142 0 7.499-3.357 7.5-7.499l.001-11.791c10.482-7.629 20.906-12.179 31.353-13.651v95.531h-49.846c-4.143 0-7.5 3.357-7.5 7.5s3.357 7.5 7.5 7.5h49.847v47.958c-17.568 3.591-30.825 19.166-30.825 37.78 0 4.143 3.357 7.5 7.5 7.5h62.119c4.143 0 7.5-3.357 7.5-7.5 0-18.778-13.495-34.455-31.294-37.864v-47.874h50.5c41.331 3.151 77.491 14.102 107.759 44.394 31.467 31.467 73.301 48.796 117.794 48.796h81.919v8.561c0 4.136-3.364 7.5-7.5 7.5h-467c-4.136 0-7.5-3.364-7.5-7.5v-101.75h23.311c4.143 0 7.5-3.357 7.5-7.5s-3.357-7.5-7.5-7.5h-30.811c-4.143 0-7.5 3.357-7.5 7.5v109.25c0 12.406 10.094 22.5 22.5 22.5h467c12.406 0 22.5-10.094 22.5-22.5zm-418.998-107.486s5.625-51.598 12.843-70.848c7.401-19.738 17.09-31.522 25.918-31.522s18.517 11.784 25.918 31.522c7.229 19.28 12.848 70.972 12.848 70.972-25.846-16.454-51.688-16.496-77.527-.124zm-77.108.075c10.086-67.109 59.836-92.859 87.336-98.914-14.75 20.055-26.25 60.555-25.24 98.823-18.428-12.231-39.01-12.232-62.096.091zm138.206 193.149h-44.672c3.139-9.325 11.966-16.06 22.336-16.06s19.197 6.735 22.336 16.06zm153.797-44.449c-14.147-14.157-30.507-25.49-48.685-33.766l58.916-.006c6.419 0 14.961-6.14 20.256-9.252 7.644-3.828 16.509 1.29 21.033 7.038 11.489 11.487 30.181 11.486 41.67-.001 6.819-5.649 13.637-5.648 20.455.001 11.489 11.487 30.182 11.485 41.669 0 4.524-5.748 13.389-10.87 21.033-7.047l12.757 6.379v81.055h-81.919c-40.487 0-78.554-15.769-107.185-44.401z"/><path d="m466.978 417.388h-40.136c-4.143 0-7.5 3.357-7.5 7.5s3.357 7.5 7.5 7.5h40.136c4.143 0 7.5-3.357 7.5-7.5s-3.358-7.5-7.5-7.5z"/><path d="m397.978 417.388h-15.667c-4.143 0-7.5 3.357-7.5 7.5s3.357 7.5 7.5 7.5h15.667c4.143 0 7.5-3.357 7.5-7.5s-3.358-7.5-7.5-7.5z"/><path d="m430.969 121.401c1.438-3.886-.547-8.199-4.432-9.637-3.886-1.437-8.199.548-9.637 4.432-5.648 15.271-20.382 25.53-36.662 25.53-21.552 0-39.086-17.538-39.086-39.096 0-21.552 17.534-39.086 39.086-39.086 16.146 0 30.835 10.141 36.553 25.234 1.467 3.874 5.795 5.822 9.671 4.356 3.873-1.468 5.824-5.797 4.356-9.671-7.913-20.887-28.239-34.92-50.58-34.92-29.823 0-54.086 24.263-54.086 54.086 0 29.828 24.263 54.096 54.086 54.096 22.528.002 42.914-14.195 50.731-35.324z"/><path d="m380.237 32.483c4.143 0 7.5-3.357 7.5-7.5v-15.529c0-4.143-3.357-7.5-7.5-7.5s-7.5 3.357-7.5 7.5v15.529c0 4.143 3.358 7.5 7.5 7.5z"/><path d="m372.737 180.281v15.529c0 4.143 3.357 7.5 7.5 7.5s7.5-3.357 7.5-7.5v-15.529c0-4.143-3.357-7.5-7.5-7.5s-7.5 3.358-7.5 7.5z"/><path d="m415.312 41.882c3.793 1.966 7.208 1.05 10.245-2.745l7.766-13.449c2.071-3.587.842-8.174-2.745-10.245-3.587-2.07-8.173-.843-10.245 2.745l-7.766 13.449c-2.072 3.587-.842 8.174 2.745 10.245z"/><path d="m329.898 189.822c3.793 1.966 7.208 1.05 10.245-2.745l7.765-13.449c2.071-3.587.842-8.174-2.745-10.245-3.59-2.07-8.175-.844-10.245 2.745l-7.765 13.449c-2.071 3.587-.841 8.174 2.745 10.245z"/><path d="m451.233 70.303 13.449-7.765c3.587-2.071 4.816-6.658 2.745-10.245-2.07-3.588-6.659-4.815-10.245-2.745l-13.449 7.765c-3.587 2.071-4.629 6.556-2.745 10.245 1.865 3.65 6.115 5.091 10.245 2.745z"/><path d="m309.242 134.962-13.449 7.765c-3.587 2.071-4.816 6.658-2.745 10.245 3.037 3.796 6.452 4.711 10.245 2.745l13.449-7.765c3.587-2.071 4.816-6.658 2.745-10.245-2.07-3.588-6.659-4.815-10.245-2.745z"/><path d="m450.387 102.633c0 4.143 3.357 7.5 7.5 7.5h15.529c4.143 0 7.5-3.357 7.5-7.5s-3.357-7.5-7.5-7.5h-15.529c-4.143 0-7.5 3.357-7.5 7.5z"/><path d="m287.06 110.133h15.529c4.143 0 7.5-3.357 7.5-7.5s-3.357-7.5-7.5-7.5h-15.529c-4.143 0-7.5 3.357-7.5 7.5s3.357 7.5 7.5 7.5z"/><path d="m443.733 147.952 13.449 7.765c3.793 1.966 7.208 1.05 10.245-2.745 2.071-3.587.842-8.174-2.745-10.245l-13.449-7.765c-3.589-2.071-8.175-.843-10.245 2.745-2.071 3.587-.842 8.174 2.745 10.245z"/><path d="m295.793 62.538 13.449 7.765c3.793 1.966 7.208 1.05 10.245-2.745 2.071-3.587.842-8.174-2.745-10.245l-13.449-7.765c-3.589-2.071-8.175-.843-10.245 2.745-2.071 3.587-.842 8.174 2.745 10.245z"/><path d="m420.332 187.077c3.037 3.796 6.452 4.711 10.245 2.745 3.587-2.071 4.816-6.658 2.745-10.245l-7.766-13.449c-2.072-3.588-6.66-4.814-10.245-2.745-3.587 2.071-4.816 6.658-2.745 10.245z"/><path d="m334.918 39.137c3.037 3.796 6.452 4.711 10.245 2.745 3.587-2.071 4.816-6.658 2.745-10.245l-7.765-13.449c-2.07-3.588-6.659-4.814-10.245-2.745-3.587 2.071-4.816 6.658-2.745 10.245z"/></g></svg>