<svg id="Capa_1" enable-background="new 0 0 512.001 512.001" height="512" viewBox="0 0 512.001 512.001" width="512" xmlns="http://www.w3.org/2000/svg"><g><path d="m449.759 378.432-31.061-124.25c-.835-3.338-3.835-5.681-7.276-5.681h-23.57v-44.39c0-4.143-3.357-7.5-7.5-7.5s-7.5 3.357-7.5 7.5v47.273l-57.496 28.979c-2.49 1.255-4.078 3.788-4.123 6.577l-.499 31.065c-.032 2.035.764 3.997 2.206 5.434l31.181 31.061c.82.817 1.819 1.434 2.919 1.801l81.563 27.223-20.28 20.279-27.521-.078c-.008 0-.015 0-.021 0-4.133 0-7.488 3.344-7.5 7.479-.012 4.143 3.337 7.51 7.479 7.521l23.163.066v18.858l-47.137 23.604.127-18.832c.014-2.008-.778-3.938-2.199-5.356l-31.18-31.15c-2.287-2.284-5.779-2.848-8.666-1.396l-41.7 20.94c-3.702 1.858-5.196 6.366-3.337 10.067 1.858 3.7 6.366 5.195 10.067 3.337l36.863-18.511 25.13 25.106-.157 23.332-56.335 28.21h-83.829l.219-18.907 48.9-24.561c3.701-1.859 5.195-6.367 3.336-10.068-1.859-3.703-6.368-5.193-10.068-3.336l-49.121 24.672-87.836-57.504 1.143-23.755 58.76-57.914h55.029l28.758 28.855c2.924 2.935 7.673 2.94 10.606.019 2.935-2.924 2.942-7.673.019-10.606l-30.956-31.062c-1.407-1.412-3.319-2.206-5.313-2.206h-53.719v-53.414l29.774-89.733c.273-.823.401-1.688.379-2.555l-1.458-56.735h25.141c4.143 0 7.5-3.357 7.5-7.5s-3.357-7.5-7.5-7.5h-31.022l-48.55-24.938 62.57-50.065 42.064 55.951c1.417 1.885 3.638 2.993 5.995 2.993h43.95l-18.196 18.266c-2.923 2.935-2.914 7.683.021 10.606 3.538 2.922 7.074 2.915 10.606-.021l25.639-25.736 44.005 44.006h-44.014c-1.994 0-3.906.794-5.313 2.207l-30.943 31.062c-1.4 1.405-2.187 3.309-2.187 5.293v31.063c0 4.143 3.357 7.5 7.5 7.5s7.5-3.357 7.5-7.5v-27.965l26.559-26.66h51.504v32.169c0 4.143 3.357 7.5 7.5 7.5s7.5-3.357 7.5-7.5v-39.572c0-.032.005-.064.005-.097 0-2.09-.856-3.978-2.234-5.338l-62.078-62.079c-.007-.007-.012-.014-.019-.021-1.485-1.479-3.434-2.205-5.376-2.184h-58.183l-44.459-59.136c-1.22-1.621-3.043-2.68-5.056-2.934-2.012-.259-4.042.317-5.625 1.584l-77.647 62.128c-1.318 1.051-2.274 2.578-2.637 4.225l-39.971 179.23c-.901 4.043 1.645 8.052 5.688 8.953 3.771.809 6.755-1.086 8.953-5.688l37.858-169.758 47.875 24.592 1.507 58.671-29.743 89.64c-.253.762-.382 1.56-.382 2.362v56.7l-76.61 25.232 12.386-55.53c.901-4.043-1.645-8.051-5.688-8.953-4.042-.897-8.052 1.645-8.953 5.688l-15.261 68.421c-.55 2.476.232 5.164 2.035 6.954l28.904 28.709-1.33 27.639c-.128 2.655 1.159 5.18 3.383 6.635l91.602 59.97-.312 26.949c.387 4.617 2.887 7.146 7.499 7.587h93.189c1.166 0 2.315-.272 3.358-.794l124.25-62.22c2.538-1.271 4.142-3.867 4.142-6.706v-27.864l28.863-28.862c2.044-1.928 2.531-4.74 1.975-7.122zm-366.277-25.945 52.265-17.214-34.933 34.43zm242.301-37.425.375-23.344 55.982-28.217h23.427l26.325 105.308-78.434-26.178z"/><path d="m256.227 217.44c-4.143 0-7.5 3.357-7.5 7.5v27.955l-28.865 28.863c-2.93 2.929-2.93 7.678-.001 10.606 3.535 2.929 7.071 2.93 10.606.001l31.062-31.061c1.407-1.407 2.197-3.314 2.197-5.304v-23.56h55.005c4.143 0 7.5-3.357 7.5-7.5s-3.357-7.5-7.5-7.5z"/></g></svg>